<?xml version="1.0" standalone="no"?>
<!DOCTYPE svg PUBLIC "-//W3C//DTD SVG 20010904//EN"
 "http://www.w3.org/TR/2001/REC-SVG-20010904/DTD/svg10.dtd">
<svg version="1.0" xmlns="http://www.w3.org/2000/svg"
 width="512.000000pt" height="512.000000pt" viewBox="0 0 512.000000 512.000000"
 preserveAspectRatio="xMidYMid meet">

<g transform="translate(0.000000,512.000000) scale(0.100000,-0.100000)"
fill="#000000" stroke="none">
<path d="M2030 3744 c-430 -49 -712 -154 -1009 -374 -211 -156 -422 -391 -554
-617 -67 -114 -94 -135 -208 -163 -147 -35 -209 -82 -244 -181 -22 -61 -21
-517 0 -580 20 -58 67 -114 114 -139 79 -40 297 -81 511 -95 l94 -7 57 -62
c130 -141 328 -191 503 -126 71 27 165 96 202 149 l29 41 248 0 c265 0 303 6
327 50 21 39 15 90 -14 119 l-26 26 -233 5 -232 5 -7 75 c-10 123 -56 219
-142 298 -98 90 -200 126 -341 120 -82 -3 -101 -8 -166 -40 -162 -80 -269
-247 -269 -419 l0 -40 -55 5 c-30 3 -81 9 -113 12 -72 7 -241 43 -267 57 -31
16 -35 27 -35 105 l0 72 90 0 c85 0 91 2 122 29 27 24 33 36 33 71 0 35 -6 47
-33 71 -31 27 -37 29 -122 29 l-90 0 0 53 c0 70 11 79 133 111 107 28 188 73
230 129 13 18 49 74 80 125 89 146 170 247 306 382 151 150 272 237 446 324
213 107 397 157 648 178 253 21 524 -10 757 -88 324 -108 595 -295 826 -571
148 -176 218 -218 431 -255 l128 -23 5 -105 c7 -123 22 -166 83 -229 59 -61
126 -91 205 -91 56 0 83 8 220 65 144 60 157 64 173 49 40 -36 49 -76 49 -223
0 -173 -10 -205 -67 -220 -145 -39 -327 -61 -505 -61 l-108 0 0 48 c0 168
-105 329 -266 408 -70 35 -85 39 -173 42 -115 4 -188 -15 -275 -73 -74 -49
-121 -104 -164 -194 -29 -60 -36 -88 -40 -152 l-5 -79 -228 0 -227 0 -31 -26
c-25 -21 -31 -33 -31 -66 0 -100 24 -108 338 -108 l249 0 28 -40 c87 -125 275
-200 436 -172 106 18 173 54 255 137 l71 72 214 6 c224 6 385 27 522 68 56 16
79 30 117 68 75 75 85 117 85 346 0 188 0 191 -29 252 -80 173 -386 357 -745
448 -53 13 -152 33 -220 45 -183 31 -235 58 -318 163 -72 93 -187 210 -288
295 -283 237 -618 389 -991 447 -95 15 -421 28 -494 19z m2447 -1222 c43 -16
100 -40 126 -54 l49 -24 -72 -32 c-94 -41 -130 -42 -164 -1 -21 25 -26 41 -26
85 0 30 2 54 5 54 2 0 39 -13 82 -28z m-3242 -451 c98 -44 155 -131 155 -237
0 -74 -18 -121 -67 -175 -102 -113 -266 -117 -373 -9 -130 129 -93 336 75 419
53 27 155 28 210 2z m2639 5 c47 -20 113 -82 139 -130 16 -31 22 -59 22 -116
0 -64 -4 -82 -27 -122 -49 -83 -142 -138 -233 -138 -88 0 -191 69 -231 154
-81 173 42 366 233 366 35 0 79 -6 97 -14z"/>
<path d="M2070 3363 c-350 -34 -649 -170 -898 -407 -70 -67 -96 -116 -96 -186
-1 -95 59 -174 153 -200 23 -6 387 -10 1007 -10 1080 0 1024 -3 1097 68 70 68
82 173 28 251 -60 89 -264 243 -428 325 -254 127 -581 187 -863 159z m415
-218 c178 -32 349 -102 502 -204 92 -62 203 -156 203 -172 0 -5 -259 -9 -645
-9 l-645 0 0 189 0 189 83 11 c45 6 93 13 107 15 52 9 309 -3 395 -19z m-785
-230 l0 -155 -215 0 c-132 0 -215 4 -215 10 0 12 139 131 213 182 47 32 203
118 214 118 2 0 3 -70 3 -155z"/>
<path d="M1880 2359 c-39 -16 -59 -39 -66 -74 -7 -37 15 -89 45 -105 11 -5 74
-10 141 -10 121 0 122 0 151 29 40 40 40 89 0 133 l-29 33 -109 2 c-59 2 -119
-2 -133 -8z"/>
<path d="M2395 1766 c-66 -66 -23 -170 71 -170 49 0 94 48 94 100 0 81 -108
127 -165 70z"/>
</g>
</svg>
