<svg width="410" height="69" viewBox="0 0 410 69" fill="#4D3107" xmlns="http://www.w3.org/2000/svg">
<g clip-path="url(#clip0_123_169)" filter="url(#filter0_d_123_169)">
<path d="M19.8174 43.0268C19.8846 35.9464 26.7447 22.6416 36.4968 12.1378L36.5641 12.0599C29.9057 10.1926 23.7182 8.9477 17.1271 8.9477C11.4777 8.9477 5.42464 9.88138 -1.5027 12.2156C-1.30093 12.2934 -1.36819 12.2156 -1.30093 12.449C-1.30093 12.9936 -2.78056 13.6161 -3.92391 13.6161C-4.66372 13.6161 -4.86549 13.6161 -5 13.227C-5 12.9936 -4.73098 12.6824 -4.19293 12.5268L-4.26019 12.449C3.87776 9.49235 10.6706 8.32525 17.0599 8.32525C23.92 8.32525 30.1748 9.64796 37.0349 11.5153C43.6259 4.66837 50.6205 0 56.4045 0C60.2381 0 63.3991 2.4898 63.3991 6.76913C63.3991 10.8929 60.0363 15.8724 52.4364 15.8724C50.486 15.8724 48.1993 15.4834 45.7108 14.7832L45.4418 14.6275L39.3888 12.838C34.2774 18.1288 30.0403 24.3533 27.081 29.9554C24.9961 33.8457 22.5749 38.7474 22.5749 42.7156C22.5749 47.3061 26.0049 49.6403 30.1075 49.6403C35.4207 49.6403 41.9445 46.0612 45.3746 43.8048C51.6294 39.8367 57.4806 34.5459 60.7761 30.111L61.3814 30.5C55.5974 38.2806 41.541 49.1735 31.3181 50.4184C30.1748 50.6518 29.0987 50.7296 28.0898 50.7296C23.1802 50.4962 19.8174 48.7066 19.8174 43.0268ZM62.4575 6.61352C62.4575 3.8125 60.9107 1.40051 57.4806 1.40051C53.8488 1.40051 48.1321 4.20153 39.9269 12.3712L45.7108 14.0829C48.3338 14.861 50.2842 15.25 52.4364 15.25C59.162 15.25 62.4575 11.0485 62.4575 6.61352Z" fill="#4D3107"/>
<path d="M62.4575 34.8572C60.4399 34.8572 59.9018 33.9235 59.7673 32.6786C59.7673 31.7449 60.3726 30.4222 61.2469 29.6442V29.5663C62.2558 28.3993 63.1973 27.8546 63.7354 27.8546C64.2734 27.8546 64.2734 28.0102 64.3407 28.5549C64.3407 29.5664 63.1301 31.5115 61.1797 32.3674C61.516 33.1454 62.323 33.7679 63.6681 33.7679C66.0893 33.7679 69.2504 31.6671 71.268 30.1888L71.6043 30.7334C67.5017 33.6123 64.677 34.7016 62.9283 34.8572H62.4575ZM63.6009 28.5549H63.5336C62.9283 28.5549 61.3142 30.111 61.1124 31.4337V31.6671C62.7266 30.8891 63.6009 29.1773 63.6009 28.5549Z" fill="#4D3107"/>
<path d="M69.5194 42.0931C69.5194 39.6033 72.2096 34.1569 72.2096 32.2117C72.2096 31.7449 72.0751 31.5115 71.8061 31.4337C71.268 31.2781 71.0663 31.0447 71.0663 30.7334C71.0663 29.4885 74.7653 27.0765 75.5051 27.0765C75.6397 27.0765 75.6397 27.0765 75.6397 27.2322C75.6397 27.7768 74.0255 29.1773 73.2857 29.3329C73.0839 29.5663 72.9494 29.7998 72.9494 29.9554C72.9494 30.1888 73.0839 30.2666 73.4202 30.3444C74.0928 30.4222 74.3618 30.889 74.3618 31.6671C74.3618 34.1569 71.0663 39.6811 71.0663 41.5485C71.0663 42.0153 71.268 42.2487 71.6043 42.2487C72.8822 42.2487 76.9848 39.1365 86.9386 29.8776L87.4767 30.2666C76.9848 40.0702 72.2769 43.338 70.461 43.338C69.7884 43.338 69.5194 42.8712 69.5194 42.0931Z" fill="#4D3107"/>
<path d="M88.7545 34.8572C86.7369 34.8572 86.1988 33.9235 86.0643 32.6786C86.0643 31.7449 86.6696 30.4222 87.5439 29.6442V29.5663C88.5528 28.3993 89.4944 27.8546 90.0324 27.8546C90.5705 27.8546 90.5704 28.0102 90.6377 28.5549C90.6377 29.5664 89.4271 31.5115 87.4767 32.3674C87.813 33.1454 88.62 33.7679 89.9651 33.7679C92.3864 33.7679 95.5474 31.6671 97.5651 30.1888L97.9013 30.7334C93.7987 33.6123 90.974 34.7016 89.2253 34.8572H88.7545ZM89.8979 28.5549H89.8306C89.2253 28.5549 87.6112 30.111 87.4094 31.4337V31.6671C89.0236 30.8891 89.8979 29.1773 89.8979 28.5549Z" fill="#4D3107"/>
<path d="M94.4713 38.2028C94.8748 36.3355 95.6819 33.8457 96.6907 31.7449C97.0943 30.8112 100.995 23.3419 102.071 23.3419C102.206 23.3419 102.34 23.5753 102.34 23.8865C102.34 24.7424 101.399 26.3763 100.726 26.5319L97.027 34.3903C101.802 27.4656 103.349 25.9873 104.358 25.9873C104.896 25.9873 105.098 26.3763 105.098 27.31C105.098 28.7105 104.627 30.8891 104.627 32.2896C104.627 33.1454 104.694 33.301 105.03 33.5345C106.174 33.5345 109.738 28.3215 111.42 28.3215C111.756 28.3993 111.958 28.6327 111.958 29.0217C111.823 30.0332 111.622 30.5 111.622 31.2003C111.622 32.7564 112.429 33.301 113.505 33.301C115.791 33.301 119.356 30.8112 119.759 30.0332L120.23 30.1888C118.952 31.7449 115.522 33.7679 113.101 33.7679C111.42 33.7679 110.68 32.912 110.68 31.9783C110.68 31.1225 111.218 30.0332 111.218 29.4107C111.151 29.0995 111.285 29.1773 111.016 29.0217C110.142 29.0217 106.51 34.3903 104.425 34.5459C103.484 34.5459 103.013 33.6901 102.946 32.2896C102.946 30.7334 103.82 28.088 103.82 27.2322C103.82 27.0766 103.82 26.9987 103.685 26.9987C102.744 27.5434 102.071 28.5549 100.457 30.7334C99.1119 32.523 97.3633 35.0128 95.1438 38.2806C95.0766 38.3584 94.9421 38.4362 94.8076 38.4362C94.6058 38.4362 94.4713 38.4362 94.4713 38.2028Z" fill="#4D3107"/>
<path d="M122.584 36.6467C121.643 37.736 120.096 38.2028 119.154 38.2028C118.213 38.2028 117.473 37.4247 117.473 36.2577C117.54 34.4681 118.078 33.2232 120.028 29.7219C120.499 28.9439 121.105 28.477 121.374 28.477C121.575 28.477 121.643 28.477 121.643 28.7105C121.643 29.3329 120.634 31.0446 119.894 31.3559C118.751 33.3788 118.28 34.8571 118.213 35.7908C118.213 36.9579 118.482 37.4247 119.02 37.4247C120.23 37.3469 121.239 36.4911 122.113 35.4018C121.777 34.5459 121.71 33.6122 121.71 32.6008C121.71 29.5663 122.651 26.2207 123.526 25.1314C123.929 24.5089 124.4 24.2755 124.804 24.2755C125.745 24.2755 126.216 25.7538 126.216 27.8546C126.216 30.2666 125.409 33.3788 123.526 35.713C124.4 36.9579 125.409 37.5026 126.418 37.5026C129.31 37.5026 132.673 33.3788 135.027 30.2666L135.565 30.3444C133.547 33.2232 129.512 38.4362 125.812 38.514C124.333 38.514 123.391 37.8916 122.584 36.6467ZM125.14 26.2207C125.14 25.5204 125.005 25.0536 124.736 25.0536C123.997 25.0536 122.45 28.8661 122.45 32.2895C122.45 32.9898 122.584 33.6901 122.786 34.3125C124.266 31.7449 125.14 28.088 125.14 26.2207Z" fill="#4D3107"/>
<path d="M132.605 36.8023C132.605 34.6237 136.103 28.3214 137.313 26.3763C137.582 25.676 138.12 25.287 138.457 25.287C138.658 25.287 138.793 25.3648 138.793 25.7538C138.793 26.5319 137.919 28.088 137.313 28.3992L133.95 36.102C136.17 33.1454 138.793 29.9554 141.147 29.7997C143.703 29.7997 143.703 34.9349 144.779 35.6352L145.249 35.7908C147.133 35.7908 150.966 30.9668 151.571 30.0332L152.109 30.1888C150.832 32.1339 147.536 36.4133 144.442 36.7245C142.895 36.7245 142.761 35.2462 142.559 33.6122C142.357 31.9783 142.088 30.4222 141.012 30.4222C140.474 30.4222 139.667 30.889 138.524 31.9005C137.246 33.0676 135.968 34.6237 134.959 35.7908C134.69 36.102 133.681 37.5804 133.143 37.5804C132.807 37.5804 132.605 37.3469 132.605 36.8023Z" fill="#4D3107"/>
<path d="M149.285 36.4133C149.352 34.7794 153.387 25.8317 154.867 25.8317C155.001 25.8317 155.069 25.9095 155.069 26.1429C155.069 26.6875 154.396 27.8546 153.791 28.1658C152.244 30.8112 150.899 33.9235 150.832 35.4796C150.832 36.6467 151.639 37.1135 152.782 37.1135C157.759 36.8801 165.292 32.2118 168.856 29.722L169.327 30.1888C163.274 34.3125 155.674 38.5919 151.773 38.5919C150.226 38.5919 149.285 37.9694 149.285 36.4133ZM155.136 24.5089C155.136 24.0421 155.674 23.3419 156.145 23.3419C156.548 23.3419 156.817 23.4975 156.817 23.7309C156.817 23.8865 156.683 24.0421 156.548 24.1977C156.078 24.5868 156.078 24.8202 155.54 24.8202C155.271 24.8202 155.136 24.6646 155.136 24.5089Z" fill="#4D3107"/>
<path d="M170.403 36.5689C170.403 35.6352 170.807 34.5459 171.412 33.4566C168.923 35.9464 167.309 36.8023 166.502 36.8023C165.897 36.6467 165.628 36.4911 165.628 35.713C165.628 33.5345 168.789 28.8661 172.017 28.8661C172.757 28.8661 173.497 29.0217 174.169 29.5663C174.438 29.2551 175.313 28.1658 175.985 28.1658C176.187 28.1658 176.322 28.1658 176.322 28.4771C176.322 29.1773 175.178 30.8112 174.573 30.8112C173.026 32.912 172.084 35.0906 172.084 36.5689C172.084 37.8916 172.623 38.3584 173.9 38.4362C177.599 38.4362 184.258 32.523 185.939 30.111L186.477 30.2666C184.46 33.2232 178.137 38.9809 173.564 38.9809C171.681 38.9809 170.403 37.9694 170.403 36.5689ZM173.631 30.111C173.295 30.0332 173.026 29.9554 172.69 29.9554C169.731 29.9554 166.771 34.2347 166.771 35.6352C166.771 35.8686 166.839 36.0243 167.108 36.0243C167.847 36.0243 169.798 34.5459 173.631 30.111Z" fill="#4D3107"/>
<path d="M186.208 60.8444H185.872C185.872 60.5332 185.939 60.222 186.006 59.8329C187.082 55.0089 189.235 50.574 191.723 46.6059H191.387C190.109 46.6059 188.159 46.9949 185.536 47.9286C184.729 48.2398 184.19 48.3176 183.854 48.3176C183.585 48.3176 183.518 48.2398 183.518 48.0842C183.518 47.2283 188.562 44.8163 196.027 40.6926C199.794 36.1021 202.551 33.6901 204.905 30.9669C202.215 32.6786 198.987 33.8457 197.305 33.8457C196.364 33.6901 195.826 33.6123 195.826 32.7564C195.893 32.1339 198.112 28.7883 198.852 28.7883C199.054 28.7883 199.121 28.8661 199.121 29.0995C199.121 29.722 197.978 31.2003 197.44 31.2003C196.767 32.1339 196.7 32.3674 196.633 32.7564C196.633 33.2232 196.969 33.1454 197.574 33.2232C200.668 32.8342 204.569 31.1225 207.797 28.1658C208.201 28.1658 207.999 28.2436 208.335 28.4771L207.999 28.9439H207.932C206.519 30.5778 203.493 34.1569 200.197 38.3584C205.174 35.4796 210.218 32.4452 213.648 29.8776L214.119 30.2666C210.353 33.1454 204.636 36.5689 199.189 39.6033L193.875 46.7615C194.346 47.1505 194.413 47.5396 194.413 48.162C194.413 51.7411 188.293 58.9771 186.544 61L186.208 60.8444ZM185.334 47.3839C188.159 46.3725 190.243 45.9834 191.656 45.9834H191.992L192.127 46.0612C193.068 44.5829 194.077 43.2602 195.019 41.9375C188.36 45.75 184.258 47.9286 184.258 47.9286C184.325 47.9286 184.594 47.6174 185.334 47.3839ZM193.674 48.3954L193.606 47.9286C193.606 47.773 193.539 47.5396 193.405 47.4618C193.135 47.9286 192.799 48.3954 192.463 48.8623C189.638 53.0638 187.419 56.9541 186.746 59.6773C189.033 57.1097 193.674 51.4299 193.674 48.3954Z" fill="#4D3107"/>
<path d="M267.251 38.903H266.175C261.266 38.903 257.365 37.8916 254.136 36.4133H253.867C251.715 35.4018 250.37 34.3903 249.63 33.5344C243.376 42.949 235.977 50.6518 225.015 51.0408V50.8074C234.969 49.5625 242.03 40.7704 248.42 30.8112V30.3444C248.42 29.4107 248.823 28.2436 250.572 27.3877C256.894 17.1173 262.88 6.53571 270.883 2.02295C268.058 2.80101 264.897 3.03443 261.669 3.03443C253.935 3.03443 244.721 1.4005 238.264 1.4005C234.498 1.4005 231.471 1.94515 229.79 3.65688C229.924 3.73469 229.992 3.96811 229.992 4.20152C229.992 5.213 228.781 6.92474 227.907 6.92474C227.503 6.92474 227.301 6.76913 227.301 6.30229C227.301 5.67984 227.772 4.74617 228.31 4.27933C229.924 1.47831 233.623 0.700249 238.331 0.700249C245.528 0.700249 254.876 2.41198 261.198 2.41198C265.301 2.41198 269.135 1.86734 275.053 0.311218L275.12 0.466831C267.319 4.12372 261.736 13.6161 255.885 23.4196C268.058 11.1263 277.205 7.00254 284.805 6.69132C291.463 6.69132 294.961 10.8929 294.961 16.0281C294.961 19.3737 293.548 23.264 290.455 27.0765C283.729 35.0905 275.591 38.2806 268.26 38.8252C273.439 45.1275 279.828 52.2079 293.885 52.2079C298.189 52.2079 303.233 51.5076 309.219 49.9515H309.353C309.622 49.9515 309.69 50.1071 309.69 50.4184C309.69 50.574 309.555 50.7296 309.421 50.8074C303.368 52.3635 298.256 53.0638 293.885 53.0638C279.088 53.0638 272.632 45.4388 267.251 38.903ZM254.607 29.8775C253.531 29.8775 252.59 29.9553 251.85 30.111C251.312 31.0446 250.706 31.9005 250.168 32.7564C251.043 33.7678 252.186 34.6237 254.136 35.5574L254.338 35.7908C257.163 37.1135 261.333 38.2806 265.839 38.2806H266.781C263.081 33.8457 259.853 30.0332 254.607 29.8775ZM285.814 29.2551C291.396 23.9643 293.078 17.0395 293.078 13.6939C293.078 9.72576 290.724 8.09183 287.092 8.09183C278.416 8.09183 262.342 17.5064 254.338 25.9872C253.867 27.0765 253.195 28.0102 252.455 29.0995C253.128 29.0217 253.867 29.0217 254.675 29.0217C260.324 29.1773 263.687 33.301 267.588 38.0472L267.789 38.2806C273.91 37.8916 280.164 35.2462 285.814 29.2551Z" fill="#4D3107"/>
<path d="M295.432 34.8572C293.414 34.8572 292.876 33.9235 292.741 32.6786C292.741 31.7449 293.347 30.4222 294.221 29.6442V29.5663C295.23 28.3993 296.171 27.8546 296.709 27.8546C297.247 27.8546 297.247 28.0102 297.315 28.5549C297.315 29.5664 296.104 31.5115 294.154 32.3674C294.49 33.1454 295.297 33.7679 296.642 33.7679C299.063 33.7679 302.224 31.6671 304.242 30.1888L304.578 30.7334C300.476 33.6123 297.651 34.7016 295.902 34.8572H295.432ZM296.575 28.5549H296.508C295.902 28.5549 294.288 30.111 294.086 31.4337V31.6671C295.701 30.8891 296.575 29.1773 296.575 28.5549Z" fill="#4D3107"/>
<path d="M301.955 32.8342C301.955 30.9668 307.336 27.9324 309.488 27.9324C309.959 27.9324 310.093 28.0102 310.093 28.3214C309.891 29.0217 309.084 30.1109 308.412 30.1109C308.143 30.1109 308.076 30.0331 308.076 29.7997C308.076 29.4885 308.412 29.1773 308.883 28.6326C307.672 28.866 303.838 31.2002 303.838 32.6785C303.838 33.3788 304.713 33.8456 306.058 33.8456C309.219 33.8456 314.263 31.5115 316.146 30.1887L316.55 30.6556C316.483 30.6556 310.497 34.6237 305.654 34.6237C303.704 34.6237 301.955 33.9234 301.955 32.8342Z" fill="#4D3107"/>
<path d="M317.828 34.8572C315.81 34.8572 315.272 33.9235 315.137 32.6786C315.137 31.7449 315.743 30.4222 316.617 29.6442V29.5663C317.626 28.3993 318.568 27.8546 319.106 27.8546C319.644 27.8546 319.644 28.0102 319.711 28.5549C319.711 29.5664 318.5 31.5115 316.55 32.3674C316.886 33.1454 317.693 33.7679 319.038 33.7679C321.46 33.7679 324.621 31.6671 326.638 30.1888L326.975 30.7334C322.872 33.6123 320.047 34.7016 318.299 34.8572H317.828ZM318.971 28.5549H318.904C318.299 28.5549 316.684 30.111 316.483 31.4337V31.6671C318.097 30.8891 318.971 29.1773 318.971 28.5549Z" fill="#4D3107"/>
<path d="M311.775 55.3202C316.886 45.2054 320.114 38.2806 327.58 28.8661C328.185 27.9324 328.992 27.31 329.396 27.31C329.53 27.31 329.597 27.4656 329.597 27.6212C329.597 28.3214 328.387 29.8776 327.647 30.1888L323.948 36.2577C330.27 28.7883 335.314 26.0651 337.601 26.0651C338.542 26.0651 339.013 26.5319 339.013 27.2322C338.677 28.9439 337.937 30.1888 334.507 32.8342C337.668 32.8342 341.165 32.6786 344.461 29.9554L344.932 30.3444C341.233 33.4566 337.399 33.4566 333.902 33.4566H333.633C332.422 34.3903 333.7 33.6901 327.445 37.1135C326.504 37.5026 325.629 37.8138 325.091 37.9694C324.284 37.9694 324.082 37.8138 324.082 37.4248L324.15 37.0357C321.998 39.6811 323.006 38.3584 321.123 41.0038L312.515 55.4758L311.775 55.3202ZM332.422 33.5345C329.799 33.5345 327.378 33.9235 325.562 36.1799C324.957 36.8801 324.89 37.1135 324.822 37.347H325.024C326.773 37.0357 330.136 35.1684 332.422 33.5345ZM333.297 32.8342C335.92 30.7334 336.592 29.722 336.861 28.2436C336.727 27.6212 336.659 27.5434 335.92 27.5434C332.893 27.5434 327.513 33.301 326.369 34.5459C328.387 33.0676 330.741 32.912 333.297 32.8342Z" fill="#4D3107"/>
<path d="M342.309 32.8342C342.309 30.9668 347.689 27.9324 349.841 27.9324C350.312 27.9324 350.447 28.0102 350.447 28.3214C350.245 29.0217 349.438 30.1109 348.765 30.1109C348.496 30.1109 348.429 30.0331 348.429 29.7997C348.429 29.4885 348.765 29.1773 349.236 28.6326C348.026 28.866 344.192 31.2002 344.192 32.6785C344.192 33.3788 345.066 33.8456 346.411 33.8456C349.572 33.8456 354.617 31.5115 356.5 30.1887L356.903 30.6556C356.836 30.6556 350.85 34.6237 346.008 34.6237C344.057 34.6237 342.309 33.9234 342.309 32.8342Z" fill="#4D3107"/>
<path d="M354.079 36.4133C354.146 34.7794 358.181 25.8317 359.661 25.8317C359.795 25.8317 359.863 25.9095 359.863 26.1429C359.863 26.6875 359.19 27.8546 358.585 28.1658C357.038 30.8112 355.693 33.9235 355.625 35.4796C355.625 36.6467 356.433 37.1135 357.576 37.1135C362.553 36.8801 370.085 32.2118 373.65 29.722L374.121 30.1888C368.068 34.3125 360.468 38.5919 356.567 38.5919C355.02 38.5919 354.079 37.9694 354.079 36.4133ZM359.93 24.5089C359.93 24.0421 360.468 23.3419 360.939 23.3419C361.342 23.3419 361.611 23.4975 361.611 23.7309C361.611 23.8865 361.477 24.0421 361.342 24.1977C360.871 24.5868 360.871 24.8202 360.333 24.8202C360.064 24.8202 359.93 24.6646 359.93 24.5089Z" fill="#4D3107"/>
<path d="M376.475 36.6467C375.533 37.736 373.986 38.2028 373.045 38.2028C372.103 38.2028 371.363 37.4247 371.363 36.2577C371.431 34.4681 371.969 33.2232 373.919 29.7219C374.39 28.9439 374.995 28.477 375.264 28.477C375.466 28.477 375.533 28.477 375.533 28.7105C375.533 29.3329 374.524 31.0446 373.785 31.3559C372.641 33.3788 372.17 34.8571 372.103 35.7908C372.103 36.9579 372.372 37.4247 372.91 37.4247C374.121 37.3469 375.13 36.4911 376.004 35.4018C375.668 34.5459 375.6 33.6122 375.6 32.6008C375.6 29.5663 376.542 26.2207 377.416 25.1314C377.82 24.5089 378.291 24.2755 378.694 24.2755C379.636 24.2755 380.107 25.7538 380.107 27.8546C380.107 30.2666 379.299 33.3788 377.416 35.713C378.291 36.9579 379.299 37.5026 380.308 37.5026C383.2 37.5026 386.563 33.3788 388.917 30.2666L389.455 30.3444C387.437 33.2232 383.402 38.4362 379.703 38.514C378.223 38.514 377.282 37.8916 376.475 36.6467ZM379.03 26.2207C379.03 25.5204 378.896 25.0536 378.627 25.0536C377.887 25.0536 376.34 28.8661 376.34 32.2895C376.34 32.9898 376.475 33.6901 376.677 34.3125C378.156 31.7449 379.03 28.088 379.03 26.2207Z" fill="#4D3107"/>
<path d="M386.496 36.8023C386.496 34.6237 389.993 28.3214 391.204 26.3763C391.473 25.676 392.011 25.287 392.347 25.287C392.549 25.287 392.683 25.3648 392.683 25.7538C392.683 26.5319 391.809 28.088 391.204 28.3992L387.841 36.102C390.06 33.1454 392.683 29.9554 395.037 29.7997C397.593 29.7997 397.593 34.9349 398.669 35.6352L399.14 35.7908C401.023 35.7908 404.857 30.9668 405.462 30.0332L406 30.1888C404.722 32.1339 401.427 36.4133 398.333 36.7245C396.786 36.7245 396.651 35.2462 396.45 33.6122C396.248 31.9783 395.979 30.4222 394.903 30.4222C394.365 30.4222 393.558 30.889 392.414 31.9005C391.137 33.0676 389.859 34.6237 388.85 35.7908C388.581 36.102 387.572 37.5804 387.034 37.5804C386.698 37.5804 386.496 37.3469 386.496 36.8023Z" fill="#4D3107"/>
</g>
<defs>
<filter id="filter0_d_123_169" x="-9" y="0" width="419" height="69" filterUnits="userSpaceOnUse" color-interpolation-filters="sRGB">
<feFlood flood-opacity="0" result="BackgroundImageFix"/>
<feColorMatrix in="SourceAlpha" type="matrix" values="0 0 0 0 0 0 0 0 0 0 0 0 0 0 0 0 0 0 127 0" result="hardAlpha"/>
<feOffset dy="4"/>
<feGaussianBlur stdDeviation="2"/>
<feComposite in2="hardAlpha" operator="out"/>
<feColorMatrix type="matrix" values="0 0 0 0 0 0 0 0 0 0 0 0 0 0 0 0 0 0 0.25 0"/>
<feBlend mode="normal" in2="BackgroundImageFix" result="effect1_dropShadow_123_169"/>
<feBlend mode="normal" in="SourceGraphic" in2="effect1_dropShadow_123_169" result="shape"/>
</filter>
<clipPath id="clip0_123_169">
<rect width="411" height="61" fill="#4D3107" transform="translate(-5)"/>
</clipPath>
</defs>
</svg>
