<svg width="294" height="149" viewBox="0 0 294 149" fill="none" xmlns="http://www.w3.org/2000/svg">
<g clip-path="url(#clip0_323_49940)">
<path d="M148.028 75.0704L149.855 73.245C151.683 70.0505 152.368 66.1715 152.368 61.8361C152.368 49.9709 147.114 35.1394 147.114 22.3614C147.114 17.7979 147.8 13.6907 149.399 10.0398C146.429 13.4625 143.459 17.5697 140.261 21.6769C123.357 43.8101 100.97 73.245 48.8858 73.245C46.8298 73.245 44.7739 73.245 42.7179 73.245C41.3473 73.245 40.4336 72.7887 40.2051 72.3323V72.1041C40.2051 71.6478 41.3473 71.1914 43.1748 70.9632H43.8601C45.6876 70.9632 47.0583 71.4196 47.5151 71.8759V72.3323H49.3427C100.741 72.3323 122.9 42.8974 139.804 20.9923C144.83 14.6034 149.17 8.67075 153.739 4.10719C155.338 2.50995 157.394 0.912708 159.678 -0.22818L159.907 -2.30968e-06C153.054 4.56355 151.226 11.6371 151.226 19.8515C151.226 31.9449 155.566 46.5482 155.566 58.1853C155.566 62.5207 155.11 66.3997 153.282 69.8223L163.562 58.1853C182.294 36.5084 207.879 7.75804 228.895 5.01991L229.124 5.93262C208.793 8.67075 183.436 37.4211 164.247 59.098C158.536 65.487 153.51 71.1914 149.17 75.755L148.028 75.0704Z" fill="#4D3107"/>
<path d="M200.34 49.2864C198.741 50.8836 196.457 51.34 194.858 51.34C193.259 51.34 192.117 50.1991 192.117 48.6018C192.117 46.0919 193.03 44.4946 196.228 39.4747C196.914 38.3338 198.056 37.6493 198.284 37.6493C198.513 37.6493 198.741 37.6493 198.741 37.8775C198.741 38.7902 197.142 41.072 196 41.5283C194.173 44.2665 193.487 46.3201 193.259 47.6891C193.259 49.2864 193.716 49.9709 194.629 49.9709C196.685 49.9709 198.284 48.6018 199.655 47.2328C199.198 46.0919 198.97 44.7228 198.97 43.3537C198.97 39.2466 200.569 34.4548 201.939 33.0858C202.625 32.173 203.31 31.9449 203.995 31.9449C205.594 31.9449 206.28 33.9985 206.28 36.9648C206.28 40.3874 204.909 44.7228 201.939 47.9173C203.31 49.7427 204.909 50.4273 206.508 50.4273C211.077 50.4273 216.559 44.7228 220.214 40.3874H221.128C217.93 44.2665 211.305 51.5681 205.366 51.7963C203.082 51.7963 201.711 51.1118 200.34 49.2864ZM204.452 34.9112C204.452 33.9985 204.224 33.3139 203.767 33.3139C202.625 33.3139 200.112 38.562 200.112 43.3537C200.112 44.2665 200.34 45.1792 200.569 46.0919C203.082 42.441 204.452 37.4211 204.452 34.9112Z" fill="#4D3107"/>
<path d="M206.737 61.8361V61.608C207.193 57.2726 220.443 50.6554 230.951 45.8637C229.58 43.1256 226.611 41.7565 226.611 39.9311C226.611 38.1057 228.667 36.7366 230.723 36.2802C231.179 36.2802 231.636 36.5084 231.636 36.9648C231.408 38.1057 230.951 38.7902 227.981 40.8438C228.667 41.9847 231.179 43.5819 232.779 45.1792C239.175 42.441 244.2 40.6156 244.2 40.6156L244.657 41.3002C244.657 41.3002 239.632 43.1256 233.464 45.8637C234.606 47.2328 234.834 48.3737 234.834 49.7427C234.606 57.7289 218.159 64.1179 211.077 64.1179C208.336 63.6616 207.193 63.2052 206.737 61.8361ZM231.636 49.0582C231.636 48.1455 231.636 47.2328 231.408 46.7764C220.671 51.5681 208.793 58.1853 208.793 61.608C208.793 62.2925 209.249 62.5207 210.392 62.7488H211.077C217.016 62.5207 231.179 55.9035 231.636 49.0582ZM230.494 36.9648C229.352 37.193 227.753 37.8775 227.753 39.7029C229.809 38.1057 230.494 37.4211 230.494 36.9648Z" fill="#4D3107"/>
<path d="M39.7483 138.276C39.7483 128.464 50.9417 109.982 66.4755 95.3782C55.7389 92.8683 45.9161 91.0429 35.1795 91.0429C26.042 91.0429 16.4476 92.4119 5.25408 95.6064C5.48252 95.6064 5.48252 95.6064 5.48252 95.8346C5.48252 96.5191 3.19813 97.4318 1.37063 97.4318C0.228436 97.4318 -0.22844 97.4318 -0.456879 96.9755C-0.456879 96.7473 -2.14577e-06 96.291 0.913751 96.0628C13.9347 91.9556 24.8998 90.3583 35.1795 90.3583C46.1445 90.3583 56.1958 92.1838 67.1608 94.6937C77.669 85.1102 88.8625 78.7213 98.2284 78.7213C104.396 78.7213 109.422 82.1439 109.422 88.0766C109.422 93.781 103.939 100.626 91.8322 100.626C88.634 100.626 84.979 100.17 81.0956 99.0291L80.6387 98.8009L70.8158 96.291C62.5921 103.593 55.7389 112.263 51.1702 120.021C47.7436 125.498 43.8601 132.115 43.8601 137.591C43.8601 143.98 49.3427 147.175 55.9674 147.175C64.4196 147.175 74.9277 142.155 80.4103 139.188C90.4615 133.712 99.8275 126.41 105.082 120.25L105.995 120.706C96.6294 131.43 74.2424 146.49 57.7949 148.315C55.9674 148.544 54.1399 148.772 52.5408 148.772C45.2308 148.772 39.7483 146.262 39.7483 138.276ZM108.28 87.8484C108.28 83.9694 105.767 80.5467 100.284 80.5467C94.345 80.5467 85.2075 84.4257 72.1865 95.8346L81.5525 98.1164C85.6643 99.2573 88.8625 99.7136 92.289 99.7136C103.026 99.9418 108.28 94.0092 108.28 87.8484Z" fill="#4D3107"/>
<path d="M114.219 129.377C114.219 128.008 114.904 126.639 115.818 125.041C111.935 128.464 109.193 129.605 107.823 129.605C106.909 129.377 106.452 129.149 106.452 128.008C106.452 125.041 111.478 118.424 116.732 118.424C117.874 118.424 119.016 118.652 120.159 119.337C120.615 118.881 121.986 117.511 123.128 117.511C123.357 117.511 123.585 117.511 123.585 117.968C123.585 118.881 121.758 121.162 120.844 121.162C118.331 124.129 116.96 127.095 116.96 129.149C116.96 130.974 117.874 131.658 119.93 131.658C125.869 131.658 136.606 123.444 139.347 120.021L140.261 120.25C137.063 124.357 126.783 132.343 119.473 132.343C116.275 132.799 114.219 131.43 114.219 129.377ZM119.473 120.478C119.016 120.478 118.559 120.25 117.874 120.25C113.077 120.25 108.28 126.182 108.28 128.236C108.28 128.464 108.28 128.692 108.737 128.692C110.107 128.692 113.305 126.639 119.473 120.478Z" fill="#4D3107"/>
<path d="M125.641 141.926V141.698C126.098 137.363 139.347 130.746 149.855 125.954C148.485 123.216 145.515 121.847 145.515 120.021C145.515 118.196 147.571 116.827 149.627 116.371C150.084 116.371 150.541 116.599 150.541 117.055C150.312 118.196 149.855 118.881 146.886 120.934C147.571 122.075 150.084 123.672 151.683 125.27C158.079 122.531 163.105 120.706 163.105 120.706L163.562 121.39C163.562 121.39 158.536 123.216 152.368 125.954C153.51 127.323 153.739 128.464 153.739 129.833C153.511 137.819 137.063 144.208 129.981 144.208C127.24 143.98 126.098 143.524 125.641 141.926ZM150.541 129.149C150.541 128.236 150.541 127.323 150.312 126.867C139.576 131.658 127.697 138.276 127.697 141.698C127.697 142.383 128.154 142.611 129.296 142.839H129.981C135.921 142.611 149.855 136.222 150.541 129.149ZM149.399 117.283C148.256 117.511 146.657 118.196 146.657 120.021C148.713 118.196 149.399 117.74 149.399 117.283Z" fill="#4D3107"/>
<path d="M171.557 129.377C171.557 128.008 172.242 126.639 173.156 125.041C169.273 128.464 166.531 129.605 165.161 129.605C164.247 129.377 163.79 129.149 163.79 128.008C163.79 125.041 168.816 118.424 174.07 118.424C175.212 118.424 176.354 118.652 177.496 119.337C177.953 118.881 179.324 117.511 180.466 117.511C180.695 117.511 180.923 117.511 180.923 117.968C180.923 118.881 179.096 121.162 178.182 121.162C175.669 124.129 174.298 127.095 174.298 129.149C174.298 130.974 175.212 131.658 177.268 131.658C183.207 131.658 193.944 123.444 196.685 120.021L197.599 120.25C194.401 124.357 184.121 132.343 176.811 132.343C173.613 132.799 171.557 131.43 171.557 129.377ZM176.811 120.478C176.354 120.478 175.897 120.25 175.212 120.25C170.415 120.25 165.618 126.182 165.618 128.236C165.618 128.464 165.618 128.692 166.075 128.692C167.445 128.692 170.643 126.639 176.811 120.478Z" fill="#4D3107"/>
<path d="M198.284 131.658C198.97 129.149 200.112 125.726 201.939 122.76C202.625 121.39 208.793 111.123 210.62 111.123C210.848 111.123 211.077 111.351 211.077 111.807C211.077 112.948 209.478 115.23 208.564 115.458L202.625 126.41C210.392 116.827 212.676 114.773 214.275 114.773C215.189 114.773 215.417 115.23 215.417 116.599C215.417 118.424 214.732 121.619 214.732 123.444C214.732 124.585 214.732 124.813 215.417 125.27C217.245 125.27 222.956 117.968 225.697 117.968C226.154 117.968 226.611 118.424 226.611 118.881C226.382 120.25 226.154 120.934 226.154 121.847C226.154 123.9 227.524 124.813 229.124 124.813C232.779 124.813 238.489 121.39 239.175 120.25L239.86 120.478C237.804 122.531 232.322 125.498 228.438 125.498C225.697 125.498 224.555 124.357 224.555 122.988C224.555 121.847 225.469 120.25 225.469 119.337C225.469 118.881 225.469 119.109 225.24 118.881C223.869 118.881 217.93 126.41 214.732 126.639C213.133 126.639 212.448 125.498 212.448 123.444C212.448 121.39 213.818 117.511 213.818 116.371C213.818 116.142 213.818 116.142 213.59 116.142C211.991 116.827 211.077 118.196 208.336 121.39C206.28 123.9 203.31 127.323 199.883 131.887C199.883 131.887 199.655 132.115 199.427 132.115C198.513 131.887 198.284 131.887 198.284 131.658Z" fill="#4D3107"/>
<path d="M249.683 129.605C248.084 131.202 245.8 131.658 244.2 131.658C242.601 131.658 241.459 130.518 241.459 128.92C241.459 126.41 242.373 124.813 245.571 119.793C246.256 118.652 247.399 117.968 247.627 117.968C247.855 117.968 248.084 117.968 248.084 118.196C248.084 119.109 246.485 121.39 245.343 121.847C243.515 124.585 242.83 126.639 242.601 128.008C242.601 129.605 243.058 130.289 243.972 130.289C246.028 130.289 247.627 128.92 248.998 127.551C248.541 126.41 248.312 125.041 248.312 123.672C248.312 119.565 249.911 114.773 251.282 113.404C251.967 112.492 252.653 112.263 253.338 112.263C254.937 112.263 255.622 114.317 255.622 117.283C255.622 120.706 254.252 125.041 251.282 128.236C252.653 130.061 254.252 130.746 255.851 130.746C260.42 130.746 265.902 125.041 269.557 120.706H270.471C267.273 124.585 260.648 131.887 254.709 132.115C252.424 132.115 250.825 131.202 249.683 129.605ZM253.795 115.002C253.795 114.089 253.566 113.404 253.11 113.404C251.967 113.404 249.455 118.652 249.455 123.444C249.455 124.357 249.683 125.27 249.911 126.182C252.196 122.76 253.795 117.74 253.795 115.002Z" fill="#4D3107"/>
<path d="M256.079 141.926V141.698C256.536 137.363 269.786 130.746 280.294 125.954C278.923 123.216 275.953 121.847 275.953 120.021C275.953 118.196 278.009 116.827 280.065 116.371C280.522 116.371 280.979 116.599 280.979 117.055C280.751 118.196 280.294 118.881 277.324 120.934C278.009 122.075 280.522 123.672 282.121 125.27C288.517 122.531 293.543 120.706 293.543 120.706L294 121.39C294 121.39 288.974 123.216 282.807 125.954C283.949 127.323 284.177 128.464 284.177 129.833C283.949 137.819 267.501 144.208 260.42 144.208C257.678 143.98 256.536 143.524 256.079 141.926ZM280.979 129.149C280.979 128.236 280.979 127.323 280.751 126.867C270.014 131.658 258.135 138.276 258.135 141.698C258.135 142.383 258.592 142.611 259.734 142.839H260.42C266.131 142.611 280.294 136.222 280.979 129.149ZM279.837 117.283C278.695 117.511 277.096 118.196 277.096 120.021C279.152 118.196 279.608 117.74 279.837 117.283Z" fill="#4D3107"/>
</g>
<defs>
<clipPath id="clip0_323_49940">
<rect width="294" height="149" fill="white"/>
</clipPath>
</defs>
</svg>
