<svg width="126" height="44" viewBox="0 0 126 44" fill="none" xmlns="http://www.w3.org/2000/svg">
<g clip-path="url(#clip0_323_49918)">
<path d="M7.68814 11.1082L10.8203 3.31803C11.1051 2.88525 11.2475 2.45246 11.2475 2.3082C11.3898 2.01967 11.3898 1.73115 11.3898 1.58689C11.3898 1.29836 11.2475 1.00984 11.1051 0.865574C10.8203 0.721312 10.5356 0.721312 9.9661 0.721312V0H14.2373V0.721312C13.9525 0.721312 13.6678 0.865574 13.5254 0.865574C13.3831 0.865574 13.0983 1.00984 12.9559 1.1541C12.9559 1.1541 12.8136 1.29836 12.6712 1.44262C12.5288 1.73115 12.5288 1.87541 12.3864 2.16393L7.54576 13.9934H6.97627L2.27797 2.88525C2.13559 2.45246 1.99322 2.16393 1.85085 1.87541C1.70847 1.58689 1.5661 1.44262 1.42373 1.29836C1.28136 1.00984 0.99661 1.00984 0.854237 0.865574C0.569492 0.721312 0.284746 0.721312 0 0.721312V0H5.83729V0.721312C5.55254 0.721312 5.2678 0.721312 4.98305 0.721312C4.84068 0.721312 4.55593 0.865574 4.55593 0.865574C4.41356 1.00984 4.27119 1.00984 4.27119 1.1541C4.27119 1.29836 4.27119 1.29836 4.27119 1.44262C4.27119 1.58689 4.27119 1.87541 4.41356 2.01967C4.41356 2.3082 4.55593 2.59672 4.69831 3.02951L7.68814 11.1082Z" fill="#4D3107"/>
<path d="M19.7898 10.3869C19.7898 10.9639 19.7898 11.3967 19.7898 11.8295C19.7898 12.118 19.9322 12.4066 20.0746 12.6951C20.2169 12.8393 20.3593 12.9836 20.6441 13.1279C20.9288 13.1279 21.2136 13.2721 21.6407 13.2721V13.9934H15.9458V13.1279C16.3729 13.1279 16.6576 13.1279 16.9424 12.9836C17.2271 12.8393 17.3695 12.8393 17.5119 12.5508C17.6542 12.4066 17.7966 12.118 17.7966 11.8295C17.7966 11.541 17.7966 11.1082 17.7966 10.5311V3.31803C17.7966 2.88525 17.7966 2.45246 17.7966 2.01967C17.7966 1.73115 17.6542 1.44262 17.5119 1.29836C17.3695 1.1541 17.2271 1.00984 16.9424 0.865574C16.6576 0.721312 16.3729 0.721312 16.0881 0.721312V0H21.4983V0.721312C21.0712 0.721312 20.7864 0.721312 20.6441 0.865574C20.3593 1.00984 20.2169 1.1541 20.0746 1.29836C19.9322 1.44262 19.9322 1.73115 19.7898 2.01967C19.6475 2.3082 19.7898 2.74098 19.7898 3.31803V10.3869Z" fill="#4D3107"/>
<path d="M35.878 13.8492H24.3458V13.1279C24.7729 13.1279 25.0576 13.1279 25.3424 12.9836C25.6271 12.8393 25.7695 12.8393 25.9119 12.6951C26.0542 12.5508 26.1966 12.4066 26.1966 12.118C26.1966 11.8295 26.1966 11.541 26.1966 11.1082V2.74098C26.1966 2.3082 26.1966 2.01967 26.1966 1.73115C26.1966 1.44262 26.0542 1.29836 25.9119 1.1541C25.7695 1.00984 25.6271 0.865574 25.3424 0.865574C25.0576 0.865574 24.7729 0.721312 24.4881 0.721312V0H29.8983V0.721312C29.4712 0.721312 29.1864 0.721312 29.0441 0.865574C28.7593 0.865574 28.617 1.00984 28.4746 1.1541C28.3322 1.29836 28.3322 1.58689 28.1898 1.73115C28.1898 2.01967 28.1898 2.3082 28.1898 2.88525V10.6754C28.1898 11.1082 28.1898 11.541 28.3322 11.9738C28.4746 12.2623 28.6169 12.5508 28.9017 12.6951C29.1864 12.8393 29.4712 12.9836 29.8983 12.9836C30.1831 12.9836 30.7525 12.9836 31.322 12.9836C32.0339 12.9836 32.6034 12.9836 33.0305 12.8393C33.4576 12.6951 33.8847 12.6951 34.1695 12.4066C34.4542 12.2623 34.739 11.9738 34.8814 11.541C35.0237 11.2525 35.1661 10.6754 35.3085 10.0984H36.0203L35.878 13.8492Z" fill="#4D3107"/>
<path d="M49.8305 13.8492H38.2983V13.1279C38.7254 13.1279 39.0102 13.1279 39.2949 12.9836C39.5797 12.8393 39.722 12.8393 39.8644 12.6951C40.0068 12.5508 40.1492 12.4066 40.1492 12.118C40.1492 11.8295 40.1492 11.541 40.1492 11.1082V2.74098C40.1492 2.3082 40.1492 2.01967 40.1492 1.73115C40.1492 1.44262 40.0068 1.29836 39.8644 1.1541C39.722 1.00984 39.5797 0.865574 39.2949 0.865574C39.0102 0.865574 38.8678 0.721312 38.4407 0.721312V0H43.8508V0.721312C43.4237 0.721312 43.139 0.721312 42.9966 0.865574C42.7119 0.865574 42.5695 1.00984 42.4271 1.1541C42.2847 1.29836 42.2847 1.58689 42.1424 1.73115C42.1424 2.01967 42.1424 2.3082 42.1424 2.88525V10.6754C42.1424 11.1082 42.1424 11.541 42.2847 11.9738C42.4271 12.2623 42.5695 12.5508 42.8542 12.6951C43.139 12.8393 43.4237 12.9836 43.8508 12.9836C44.1356 12.9836 44.7051 12.9836 45.2746 12.9836C45.9864 12.9836 46.5559 12.9836 46.9831 12.9836C47.4102 12.8393 47.8373 12.8393 48.122 12.5508C48.4068 12.4066 48.6915 12.118 48.8339 11.6852C48.9763 11.3967 49.1186 10.8197 49.261 10.2426H49.9729L49.8305 13.8492Z" fill="#4D3107"/>
<path d="M60.0814 8.8H55.3831C55.2407 9.23279 54.9559 9.66557 54.8136 10.0984C54.6712 10.5311 54.5288 10.8197 54.5288 11.1082C54.3864 11.3967 54.3864 11.6852 54.3864 11.8295C54.3864 11.9738 54.3864 12.118 54.3864 12.2623C54.3864 12.5508 54.5288 12.8393 54.6712 12.9836C54.8136 13.1279 55.2407 13.1279 55.6678 13.1279V13.8492H51.3966V13.1279C51.6814 13.1279 51.9661 12.9836 52.1085 12.9836C52.2508 12.9836 52.5356 12.8393 52.678 12.6951C52.8203 12.5508 52.9627 12.4066 53.1051 12.2623C53.2475 12.118 53.3898 11.8295 53.3898 11.6852L57.9458 0H58.6576L62.6441 10.0984C62.9288 10.8197 63.2136 11.2525 63.3559 11.6852C63.4983 12.118 63.7831 12.4066 63.9254 12.5508C64.0678 12.6951 64.3525 12.8393 64.4949 12.9836C64.7797 12.9836 64.922 13.1279 65.3492 13.1279V13.8492H59.5119V13.1279C60.0814 13.1279 60.5085 13.1279 60.7932 12.9836C61.078 12.8393 61.2203 12.6951 61.2203 12.4066C61.2203 12.2623 61.2203 12.118 61.2203 12.118C61.2203 11.9738 61.2203 11.9738 61.2203 11.8295C61.2203 11.6852 61.2203 11.541 61.078 11.3967C61.078 11.2525 60.9356 11.1082 60.9356 10.8197L60.0814 8.8ZM55.6678 7.93443H59.7966L57.8034 2.59672L55.6678 7.93443Z" fill="#4D3107"/>
<path d="M28.4746 23.5148C28.617 23.3705 28.617 23.2262 28.7593 23.082C28.9017 22.9377 29.0441 22.9377 29.1864 22.9377C29.4712 22.9377 29.6136 23.082 29.7559 23.2262C29.7559 23.2262 29.7559 23.3705 29.7559 23.5148V23.659C29.4712 25.1016 28.4746 27.8426 28.0475 30.2951C30.1831 24.8131 33.1729 18.4656 36.8746 18.3213H37.017C39.0102 18.3213 39.5797 20.6295 39.5797 23.082C39.5797 24.8131 39.2949 26.5443 39.1525 27.4098C38.7254 29.718 38.0136 32.1705 37.017 34.4787C40.2915 33.0361 42.8542 32.1705 42.8542 32.1705C42.9966 32.1705 42.9966 32.1705 42.9966 32.1705C43.139 32.1705 43.2814 32.3148 43.2814 32.3148C43.2814 32.459 43.139 32.6033 42.9966 32.7476C42.9966 32.7476 40.2915 33.6131 36.7322 35.0557C36.5898 35.3443 36.3051 35.9213 36.1627 36.2098C33.3153 41.9803 28.7593 44.2885 26.1966 44.2885C25.2 44.2885 24.6305 43.8557 24.6305 43.1344C24.6305 41.5476 27.6203 38.518 36.3051 34.7672C37.3017 32.3148 38.1559 29.718 38.5831 27.4098C38.7254 26.8328 38.8678 25.3902 38.8678 23.8033C38.8678 21.4951 38.4407 19.0426 37.017 19.0426C32.8881 19.3312 29.4712 27.6984 27.6203 33.4689C27.6203 33.6131 27.3356 34.1902 27.3356 34.3344C26.9085 36.4984 26.1966 38.0853 25.9119 38.518C25.9119 38.6623 25.7695 38.6623 25.7695 38.6623C25.7695 38.6623 25.7695 38.6623 25.6271 38.6623C25.4847 38.6623 25.3424 38.518 25.3424 38.2295C25.3424 37.941 25.3424 37.6525 25.4847 37.2197C25.6271 36.4984 26.0542 35.3443 26.339 34.0459C26.339 33.9016 26.4814 33.6131 26.4814 33.4689C26.7661 32.0262 27.0508 30.5836 27.3356 29.141V28.8525C27.478 25.6787 28.1898 24.0918 28.4746 23.5148ZM36.0203 34.9115C28.0475 38.3738 25.3424 41.1148 25.3424 42.4131C25.3424 42.9902 25.7695 43.2787 26.6237 43.2787C28.7593 43.2787 33.1729 40.9705 35.878 35.6328C35.878 35.4885 36.0203 35.0557 36.0203 34.9115Z" fill="#4D3107"/>
<path d="M45.8441 31.3049C45.8441 32.459 44.1356 33.0361 43.7085 33.1803C43.7085 33.3246 43.7085 33.3246 43.7085 33.4689C43.7085 33.7574 43.7085 34.1902 43.8508 34.3344C43.9932 34.623 44.278 34.7672 44.7051 34.7672C46.4136 34.7672 49.9729 32.0262 49.9729 32.0262H50.1153C50.2576 32.0262 50.4 32.1705 50.4 32.3148C50.4 32.3148 50.4 32.459 50.2576 32.459C50.2576 32.459 46.8407 35.0557 44.7051 35.0557C44.1356 35.0557 43.7085 34.9115 43.4237 34.4787C43.139 34.0459 43.139 33.7574 43.139 33.3246C43.139 32.6033 43.5661 31.882 43.8508 31.4492C44.1356 31.1607 44.278 31.0164 44.5627 30.8721C44.7051 30.7279 44.8475 30.7279 45.1322 30.7279C45.2746 30.7279 45.2746 30.7279 45.4169 30.7279C45.7017 30.7279 45.8441 30.8721 45.8441 31.3049C45.8441 31.1607 45.8441 31.1607 45.8441 31.3049ZM44.9898 31.3049C44.9898 31.1607 44.9898 31.1607 44.9898 31.3049C44.7051 31.3049 44.4203 31.7377 43.8508 32.6033C44.7051 31.7377 44.9898 31.3049 44.9898 31.3049Z" fill="#4D3107"/>
<path d="M68.7661 35.4885H57.2339V34.7672C57.661 34.7672 57.9458 34.7672 58.2305 34.623C58.5153 34.4787 58.6576 34.4787 58.8 34.3344C58.9424 34.1902 59.0847 34.0459 59.0847 33.7574C59.0847 33.4689 59.0847 33.1803 59.0847 32.7475V24.3803C59.0847 23.9475 59.0847 23.659 59.0847 23.3705C59.0847 23.082 58.9424 22.9377 58.8 22.7934C58.6576 22.6492 58.5153 22.5049 58.2305 22.5049C57.9458 22.5049 57.661 22.3607 57.3763 22.3607V21.6393H62.7864V22.3607C62.3593 22.3607 62.0746 22.3607 61.9322 22.5049C61.6475 22.5049 61.5051 22.6492 61.3627 22.7934C61.3627 22.7934 61.2203 23.082 61.2203 23.3705C61.2203 23.659 61.2203 23.9475 61.2203 24.5246V32.3148C61.2203 32.7475 61.2203 33.1803 61.3627 33.6131C61.5051 33.9016 61.6475 34.1902 61.9322 34.3344C62.2169 34.4787 62.5017 34.623 62.9288 34.623C63.3559 34.623 63.783 34.7672 64.4949 34.7672C65.2068 34.7672 65.7763 34.7672 66.2034 34.623C66.6305 34.4787 67.0576 34.4787 67.3424 34.1902C67.6271 34.0459 67.9119 33.7574 68.0542 33.3246C68.1966 33.0361 68.339 32.459 68.4814 31.882H69.1932L68.7661 35.4885Z" fill="#4D3107"/>
<path d="M75.1729 27.8426C75.7424 27.8426 76.3119 27.8426 76.739 27.6984C77.1661 27.5541 77.4508 27.5541 77.7356 27.2656C78.0203 27.1213 78.1627 26.8328 78.3051 26.6885C78.4475 26.4 78.4475 26.1115 78.4475 25.8229H79.0169V30.7279H78.4475C78.4475 30.4393 78.4475 30.0066 78.3051 29.8623C78.1627 29.5738 78.0203 29.4295 77.7356 29.141C77.4508 28.9967 77.1661 28.8525 76.739 28.7082C76.3119 28.5639 75.7424 28.5639 75.0305 28.5639V32.6033C75.0305 33.0361 75.0305 33.3246 75.1729 33.6131C75.3153 33.9016 75.4576 34.0459 75.6 34.1902C75.8847 34.3344 76.1695 34.4787 76.4542 34.4787C76.8814 34.4787 77.3085 34.623 77.878 34.623C78.4475 34.623 79.0169 34.6229 79.4441 34.4787C79.8712 34.3344 80.2983 34.1902 80.583 34.0459C80.8678 33.9016 81.1525 33.6131 81.2949 33.1803C81.4373 32.8918 81.5797 32.3148 81.722 31.882H82.5763L82.2915 35.4885H71.3288V34.7672C71.7559 34.7672 72.0407 34.7672 72.3254 34.623C72.6102 34.4787 72.7525 34.4787 72.8949 34.3344C73.0373 34.1902 73.1797 34.0459 73.1797 33.7574C73.1797 33.4689 73.1797 33.1803 73.1797 32.7475V24.3803C73.1797 23.9475 73.1797 23.659 73.1797 23.3705C73.1797 23.082 73.0373 22.9377 72.8949 22.7934C72.7525 22.6492 72.6102 22.5049 72.3254 22.5049C72.0407 22.5049 71.7559 22.3607 71.4712 22.3607V21.6393H81.722L81.8644 24.8131H81.2949C81.2949 24.3803 81.1525 23.9475 81.0102 23.659C80.8678 23.3705 80.5831 23.082 80.2983 22.9377C80.0136 22.7934 79.7288 22.6492 79.3017 22.5049C78.8746 22.5049 78.3051 22.3607 77.7356 22.3607H75.4576C75.3153 22.3607 75.1729 22.5049 75.1729 22.6492V27.8426Z" fill="#4D3107"/>
<path d="M86.4203 23.8033C86.278 23.5148 86.1356 23.2262 85.9932 23.082C85.8508 22.9377 85.7085 22.7934 85.5661 22.6492C85.4237 22.5049 85.2814 22.5049 84.9966 22.3607C84.8542 22.3607 84.5695 22.3607 84.4271 22.3607V21.6393H89.9797V22.3607C89.4102 22.3607 88.983 22.3607 88.6983 22.5049C88.4136 22.6492 88.2712 22.7934 88.2712 22.9377C88.2712 23.2262 88.4136 23.5148 88.6983 23.9475L91.4034 28.7082L93.3966 25.2459C93.8237 24.6689 94.1085 24.0918 94.2508 23.659C94.3932 23.2262 94.5356 22.9377 94.5356 22.7934C94.5356 22.5049 94.3932 22.3607 94.2508 22.3607C94.1085 22.2164 93.8237 22.2164 93.3966 22.2164V21.6393H97.5254V22.3607C97.2407 22.3607 97.0983 22.3607 96.8136 22.5049C96.6712 22.5049 96.3864 22.6492 96.2441 22.9377C95.9593 23.082 95.8169 23.5148 95.5322 23.8033C95.2475 24.0918 94.9627 24.6689 94.5356 25.2459L91.8305 29.8623V32.0262C91.8305 32.6033 91.8305 33.0361 91.8305 33.4689C91.8305 33.9016 91.9729 34.0459 92.1152 34.3344C92.2576 34.4787 92.4 34.6229 92.6847 34.7672C92.9695 34.7672 93.2542 34.9115 93.6814 34.9115V35.6328H87.9864V34.9115C88.4136 34.9115 88.6983 34.9115 88.983 34.7672C89.2678 34.7672 89.4102 34.6229 89.5525 34.3344C89.6949 34.1902 89.8373 33.9016 89.8373 33.6131C89.8373 33.3246 89.8373 32.8918 89.8373 32.3148V30.1508L86.4203 23.8033Z" fill="#4D3107"/>
<path d="M105.925 32.7475L109.058 24.9574C109.2 24.5246 109.342 24.2361 109.485 23.9475C109.485 23.659 109.627 23.5148 109.627 23.2262C109.627 22.9377 109.485 22.6492 109.342 22.5049C109.2 22.3607 108.773 22.3607 108.203 22.3607V21.6393H112.475V22.3607C112.19 22.3607 111.905 22.5049 111.763 22.5049C111.62 22.5049 111.336 22.6492 111.193 22.7934C111.051 22.9377 110.908 23.082 110.766 23.2262C110.624 23.3705 110.481 23.659 110.481 23.8033L105.641 35.6328H105.071L100.515 24.3803C100.373 24.0918 100.231 23.659 100.088 23.5148C99.9458 23.2262 99.8034 23.082 99.661 22.9377C99.5186 22.7934 99.2339 22.6492 99.0915 22.5049C98.8068 22.3607 98.6644 22.3607 98.2373 22.3607V21.6393H104.075V22.3607C103.79 22.3607 103.505 22.3607 103.22 22.3607C103.078 22.3607 102.793 22.5049 102.793 22.5049C102.651 22.5049 102.651 22.6492 102.508 22.7934C102.508 22.9377 102.508 22.9377 102.508 23.082C102.508 23.2262 102.508 23.5148 102.651 23.659C102.651 23.9475 102.793 24.2361 102.936 24.6689L105.925 32.7475Z" fill="#4D3107"/>
<path d="M120.732 30.4393H116.034C115.892 30.8721 115.607 31.3049 115.464 31.7377C115.322 32.1705 115.18 32.459 115.18 32.7475C115.037 33.0361 115.037 33.3246 115.037 33.4689C115.037 33.6131 115.037 33.7574 115.037 33.9016C115.037 34.1902 115.18 34.4787 115.322 34.623C115.464 34.7672 115.892 34.7672 116.319 34.7672V35.4885H112.047V34.7672C112.332 34.7672 112.617 34.623 112.759 34.623C112.902 34.623 113.186 34.4787 113.329 34.3344C113.471 34.1902 113.614 34.0459 113.756 33.9016C113.898 33.7574 114.041 33.4689 114.041 33.3246L118.597 21.6393H119.308L123.295 31.7377C123.58 32.459 123.864 32.8918 124.007 33.3246C124.149 33.7574 124.434 34.0459 124.576 34.1902C124.719 34.3344 125.003 34.4787 125.146 34.623C125.431 34.623 125.573 34.7672 126 34.7672V35.4885H120.163V34.7672C120.732 34.7672 121.159 34.7672 121.444 34.623C121.729 34.4787 121.729 34.3344 121.729 34.0459C121.729 33.9016 121.729 33.7574 121.729 33.7574C121.729 33.6131 121.729 33.6131 121.729 33.4689C121.729 33.3246 121.729 33.1803 121.586 33.0361C121.586 32.8918 121.444 32.7475 121.444 32.459L120.732 30.4393ZM116.319 29.5738H120.305L118.312 24.2361L116.319 29.5738Z" fill="#4D3107"/>
</g>
<defs>
<clipPath id="clip0_323_49918">
<rect width="126" height="44" fill="white"/>
</clipPath>
</defs>
</svg>
