<svg width="298" height="50" viewBox="0 0 298 50" fill="none" xmlns="http://www.w3.org/2000/svg">
<g clip-path="url(#clip0_199_740)">
<path d="M46.0152 36.5782H44.8429C39.494 36.5782 35.2442 35.6195 31.7271 34.2183H31.434C29.0893 33.2596 27.6238 32.3009 26.8178 31.4897C20.0034 40.413 11.9434 47.7139 0 48.0826V47.8614C10.8444 46.6814 18.538 38.3481 25.4989 28.9086V28.4661C25.4989 27.5811 25.9385 26.4749 27.8436 25.6637C34.7313 15.9292 41.2525 5.8997 49.972 1.62242C46.8945 2.35988 43.4507 2.58112 39.9336 2.58112C31.5073 2.58112 21.4689 1.03245 14.4347 1.03245C10.3314 1.03245 7.03418 1.54867 5.20236 3.17109C5.34891 3.24484 5.42218 3.46608 5.42218 3.68732C5.42218 4.64602 4.10327 6.26844 3.15073 6.26844C2.71109 6.26844 2.49127 6.12094 2.49127 5.67847C2.49127 5.0885 3.00418 4.20354 3.59036 3.76106C5.34891 1.10619 9.3789 0.368732 14.508 0.368732C22.3482 0.368732 32.5331 1.99115 39.4207 1.99115C43.8903 1.99115 48.0669 1.47493 54.5149 0L54.5881 0.147493C46.0885 3.61357 40.0069 12.6106 33.6322 21.9027C46.8945 10.2507 56.8596 6.34218 65.1394 6.0472C72.3934 6.0472 76.2036 10.0295 76.2036 14.8968C76.2036 18.0678 74.6649 21.7552 71.2943 25.3687C63.9671 32.9646 55.1011 35.9882 47.1143 36.5044C52.7563 42.4779 59.7172 49.1888 75.0312 49.1888C79.7207 49.1888 85.2161 48.5251 91.7374 47.0501H91.8839C92.177 47.0501 92.2503 47.1976 92.2503 47.4926C92.2503 47.6401 92.1038 47.7876 91.9572 47.8614C85.3627 49.3363 79.794 50 75.0312 50C58.9112 50 51.8771 42.7729 46.0152 36.5782ZM32.24 28.0236C31.0676 28.0236 30.0418 28.0973 29.2358 28.2448C28.6496 29.1298 27.9902 29.941 27.404 30.7522C28.3565 31.7109 29.6022 32.5221 31.7271 33.4071L31.9469 33.6283C35.0243 34.882 39.5672 35.9882 44.4765 35.9882H45.5023C41.4723 31.7847 37.9552 28.1711 32.24 28.0236ZM66.2385 27.4336C72.3201 22.4189 74.152 15.8555 74.152 12.6844C74.152 8.9233 71.5874 7.37463 67.6307 7.37463C58.1785 7.37463 40.6663 16.2979 31.9469 24.3363C31.434 25.3687 30.7013 26.2537 29.8953 27.2861C30.628 27.2124 31.434 27.2124 32.3133 27.2124C38.4682 27.3599 42.1318 31.2684 46.3816 35.767L46.6014 35.9882C53.2692 35.6195 60.0836 33.1121 66.2385 27.4336Z" fill="#4D3107"/>
<path d="M76.7165 32.7434C74.5183 32.7434 73.9321 31.8584 73.7856 30.6785C73.7856 29.7935 74.445 28.5398 75.3976 27.8024V27.7286C76.4967 26.6224 77.5225 26.1062 78.1087 26.1062C78.6949 26.1062 78.6949 26.2537 78.7681 26.7699C78.7681 27.7286 77.4492 29.5723 75.3243 30.3835C75.6907 31.1209 76.57 31.7109 78.0354 31.7109C80.6732 31.7109 84.117 29.7198 86.3152 28.3186L86.6816 28.8348C82.212 31.5634 79.1345 32.5959 77.2294 32.7434H76.7165ZM77.9621 26.7699H77.8889C77.2294 26.7699 75.4709 28.2448 75.251 29.4985V29.7198C77.0096 28.9823 77.9621 27.3599 77.9621 26.7699Z" fill="#4D3107"/>
<path d="M83.824 30.8259C83.824 29.056 89.6858 26.1799 92.0305 26.1799C92.5434 26.1799 92.6899 26.2537 92.6899 26.5487C92.4701 27.2124 91.5909 28.2448 90.8581 28.2448C90.565 28.2448 90.4918 28.1711 90.4918 27.9498C90.4918 27.6549 90.8581 27.3599 91.371 26.8436C90.0521 27.0649 85.8756 29.2773 85.8756 30.6785C85.8756 31.3422 86.8281 31.7847 88.2936 31.7847C91.7374 31.7847 97.2329 29.5723 99.2845 28.3186L99.7241 28.7611C99.6509 28.7611 93.1296 32.5221 87.8539 32.5221C85.729 32.5221 83.824 31.8584 83.824 30.8259Z" fill="#4D3107"/>
<path d="M102.289 34.4395C101.263 35.472 99.5776 35.9145 98.5518 35.9145C97.5259 35.9145 96.7199 35.177 96.7199 34.0708C96.7932 32.3746 97.3794 31.1947 99.5043 27.8761C100.017 27.1386 100.677 26.6962 100.97 26.6962C101.19 26.6962 101.263 26.6962 101.263 26.9174C101.263 27.5074 100.164 29.1298 99.3578 29.4248C98.1121 31.3422 97.5992 32.7434 97.5259 33.6283C97.5259 34.7345 97.819 35.177 98.4052 35.177C99.7241 35.1032 100.823 34.292 101.776 33.2596C101.409 32.4484 101.336 31.5634 101.336 30.6047C101.336 27.7286 102.362 24.5575 103.314 23.5251C103.754 22.9351 104.267 22.7139 104.707 22.7139C105.732 22.7139 106.245 24.115 106.245 26.1062C106.245 28.3923 105.366 31.3422 103.314 33.5546C104.267 34.7345 105.366 35.2507 106.465 35.2507C109.616 35.2507 113.28 31.3422 115.844 28.3923L116.43 28.4661C114.232 31.1947 109.836 36.1357 105.806 36.2094C104.194 36.2094 103.168 35.6195 102.289 34.4395ZM105.073 24.5575C105.073 23.8938 104.926 23.4513 104.633 23.4513C103.827 23.4513 102.142 27.0649 102.142 30.3097C102.142 30.9735 102.289 31.6372 102.508 32.2271C104.12 29.7935 105.073 26.3274 105.073 24.5575Z" fill="#4D3107"/>
<path d="M112.693 35.9144C113.133 34.1445 114.012 31.7846 115.111 29.7935C115.551 28.9085 119.801 21.8289 120.973 21.8289C121.12 21.8289 121.266 22.0501 121.266 22.3451C121.266 23.1563 120.24 24.705 119.508 24.8525L115.478 32.3008C120.68 25.7374 122.365 24.3362 123.464 24.3362C124.051 24.3362 124.27 24.705 124.27 25.5899C124.27 26.9174 123.758 28.9822 123.758 30.3097C123.758 31.1209 123.831 31.2684 124.197 31.4896C125.443 31.4896 129.326 26.5486 131.158 26.5486C131.524 26.6224 131.744 26.8436 131.744 27.2123C131.598 28.171 131.378 28.6135 131.378 29.2772C131.378 30.7522 132.257 31.2684 133.43 31.2684C135.921 31.2684 139.804 28.9085 140.244 28.171L140.757 28.3185C139.365 29.7935 135.628 31.7109 132.99 31.7109C131.158 31.7109 130.352 30.8997 130.352 30.0147C130.352 29.2035 130.938 28.171 130.938 27.5811C130.865 27.2861 131.012 27.3598 130.718 27.2123C129.766 27.2123 125.809 32.3008 123.538 32.4483C122.512 32.4483 121.999 31.6371 121.926 30.3097C121.926 28.8348 122.878 26.3274 122.878 25.5162C122.878 25.3687 122.878 25.2949 122.732 25.2949C121.706 25.8112 120.973 26.7699 119.215 28.8348C117.749 30.5309 115.844 32.8908 113.426 35.9881C113.353 36.0619 113.206 36.1356 113.06 36.1356C112.84 36.1356 112.693 36.1356 112.693 35.9144Z" fill="#4D3107"/>
<path d="M142.149 32.7434C139.951 32.7434 139.365 31.8584 139.218 30.6785C139.218 29.7935 139.878 28.5398 140.83 27.8024V27.7286C141.929 26.6224 142.955 26.1062 143.541 26.1062C144.127 26.1062 144.127 26.2537 144.201 26.7699C144.201 27.7286 142.882 29.5723 140.757 30.3835C141.123 31.1209 142.002 31.7109 143.468 31.7109C146.106 31.7109 149.55 29.7198 151.748 28.3186L152.114 28.8348C147.644 31.5634 144.567 32.5959 142.662 32.7434H142.149ZM143.395 26.7699H143.321C142.662 26.7699 140.903 28.2448 140.684 29.4985V29.7198C142.442 28.9823 143.395 27.3599 143.395 26.7699Z" fill="#4D3107"/>
<path d="M148.89 34.5871C148.89 32.5222 152.7 26.5487 154.019 24.7051C154.312 24.0413 154.898 23.6726 155.265 23.6726C155.485 23.6726 155.631 23.7464 155.631 24.1151C155.631 24.8526 154.679 26.3275 154.019 26.6225L150.356 33.9233C152.774 31.121 155.631 28.0974 158.196 27.9499C160.98 27.9499 160.98 32.8172 162.152 33.4809L162.665 33.6284C164.717 33.6284 168.894 29.0561 169.553 28.1711L170.139 28.3186C168.747 30.1623 165.157 34.2183 161.786 34.5133C160.101 34.5133 159.954 33.1121 159.734 31.5635C159.515 30.0148 159.222 28.5399 158.049 28.5399C157.463 28.5399 156.584 28.9823 155.338 29.941C153.946 31.0472 152.554 32.5222 151.455 33.6284C151.162 33.9233 150.062 35.3245 149.476 35.3245C149.11 35.3245 148.89 35.1033 148.89 34.5871Z" fill="#4D3107"/>
<path d="M174.096 32.7434C174.096 30.2361 176.367 25.885 178.785 21.9765C177.32 23.9676 175.635 26.0325 174.096 27.8024C174.316 28.0237 174.462 28.3187 174.536 28.7611L173.73 28.9824C173.73 28.7611 173.656 28.5399 173.51 28.3924C171.751 30.3835 169.846 31.8585 168.747 31.8585C168.234 31.8585 167.648 31.6372 167.648 31.121C167.648 29.9411 170.432 27.065 172.484 27.065C172.997 27.1387 173.07 27.065 173.583 27.3599C176.221 24.3363 179.225 20.354 181.13 17.6992C181.277 17.4779 183.182 14.4543 184.281 14.4543C184.501 14.4543 184.647 14.5281 184.647 14.8231C184.647 15.3393 183.841 16.4455 183.108 16.7405V16.8142C180.984 19.8378 176.734 25.59 175.928 30.3098C175.781 30.9735 175.708 31.5635 175.708 32.006C175.708 33.8496 176.807 34.4396 178.126 34.4396C181.496 34.4396 187.065 30.3835 189.044 28.3187L189.63 28.4661C188.091 30.4573 181.716 35.6195 177.466 35.6195C175.854 35.6195 174.096 34.8821 174.096 32.7434ZM173.143 27.8762C172.924 27.7287 172.777 27.7287 172.411 27.7287C170.945 27.7287 168.454 30.2361 168.454 30.9735C168.527 31.1948 168.6 31.1948 168.82 31.1948C169.7 31.1948 171.165 30.0148 173.143 27.8762Z" fill="#4D3107"/>
<path d="M190.802 34.3657C190.802 33.4808 191.242 32.4483 191.901 31.4159C189.19 33.7758 187.432 34.587 186.552 34.587C185.893 34.4395 185.6 34.292 185.6 33.5545C185.6 31.4896 189.044 27.0648 192.561 27.0648C193.367 27.0648 194.173 27.2123 194.905 27.7286C195.198 27.4336 196.151 26.4011 196.884 26.4011C197.104 26.4011 197.25 26.4011 197.25 26.6961C197.25 27.3598 196.004 28.9085 195.345 28.9085C193.66 30.8996 192.634 32.9645 192.634 34.3657C192.634 35.6194 193.22 36.0619 194.612 36.1356C198.642 36.1356 205.896 30.5309 207.728 28.2448L208.314 28.3923C206.116 31.1946 199.228 36.6519 194.246 36.6519C192.194 36.6519 190.802 35.6932 190.802 34.3657ZM194.319 28.2448C193.953 28.171 193.66 28.0973 193.293 28.0973C190.069 28.0973 186.845 32.1533 186.845 33.4808C186.845 33.702 186.919 33.8495 187.212 33.8495C188.018 33.8495 190.143 32.4483 194.319 28.2448Z" fill="#4D3107"/>
<path d="M205.457 30.8259C205.457 29.056 211.318 26.1799 213.663 26.1799C214.176 26.1799 214.323 26.2537 214.323 26.5487C214.103 27.2124 213.223 28.2448 212.491 28.2448C212.198 28.2448 212.124 28.1711 212.124 27.9498C212.124 27.6549 212.491 27.3599 213.004 26.8436C211.685 27.0649 207.508 29.2773 207.508 30.6785C207.508 31.3422 208.461 31.7847 209.926 31.7847C213.37 31.7847 218.865 29.5723 220.917 28.3186L221.357 28.7611C221.283 28.7611 214.762 32.5221 209.487 32.5221C207.362 32.5221 205.457 31.8584 205.457 30.8259Z" fill="#4D3107"/>
<path d="M218.279 34.2182C218.353 32.6696 222.749 24.1887 224.361 24.1887C224.508 24.1887 224.581 24.2625 224.581 24.4837C224.581 24.9999 223.848 26.1061 223.189 26.4011C221.503 28.9085 220.038 31.8584 219.965 33.3333C219.965 34.4395 220.844 34.882 222.09 34.882C227.512 34.6607 235.718 30.2359 239.602 27.8761L240.115 28.3185C233.52 32.2271 225.24 36.2831 220.99 36.2831C219.305 36.2831 218.279 35.6932 218.279 34.2182ZM224.654 22.9351C224.654 22.4926 225.24 21.8289 225.753 21.8289C226.193 21.8289 226.486 21.9764 226.486 22.1976C226.486 22.3451 226.339 22.4926 226.193 22.6401C225.68 23.0088 225.68 23.23 225.094 23.23C224.801 23.23 224.654 23.0825 224.654 22.9351Z" fill="#4D3107"/>
<path d="M242.679 34.4395C241.653 35.472 239.968 35.9145 238.942 35.9145C237.916 35.9145 237.11 35.177 237.11 34.0708C237.184 32.3746 237.77 31.1947 239.895 27.8761C240.408 27.1386 241.067 26.6962 241.36 26.6962C241.58 26.6962 241.653 26.6962 241.653 26.9174C241.653 27.5074 240.554 29.1298 239.748 29.4248C238.503 31.3422 237.99 32.7434 237.916 33.6283C237.916 34.7345 238.209 35.177 238.796 35.177C240.115 35.1032 241.214 34.292 242.166 33.2596C241.8 32.4484 241.727 31.5634 241.727 30.6047C241.727 27.7286 242.752 24.5575 243.705 23.5251C244.145 22.9351 244.657 22.7139 245.097 22.7139C246.123 22.7139 246.636 24.115 246.636 26.1062C246.636 28.3923 245.757 31.3422 243.705 33.5546C244.657 34.7345 245.757 35.2507 246.856 35.2507C250.006 35.2507 253.67 31.3422 256.235 28.3923L256.821 28.4661C254.623 31.1947 250.226 36.1357 246.196 36.2094C244.584 36.2094 243.558 35.6195 242.679 34.4395ZM245.463 24.5575C245.463 23.8938 245.317 23.4513 245.024 23.4513C244.218 23.4513 242.533 27.0649 242.533 30.3097C242.533 30.9735 242.679 31.6372 242.899 32.2271C244.511 29.7935 245.463 26.3274 245.463 24.5575Z" fill="#4D3107"/>
<path d="M253.597 34.5871C253.597 32.5222 257.407 26.5487 258.726 24.7051C259.019 24.0413 259.605 23.6726 259.971 23.6726C260.191 23.6726 260.338 23.7464 260.338 24.1151C260.338 24.8526 259.385 26.3275 258.726 26.6225L255.062 33.9233C257.48 31.121 260.338 28.0974 262.902 27.9499C265.687 27.9499 265.687 32.8172 266.859 33.4809L267.372 33.6284C269.424 33.6284 273.6 29.0561 274.26 28.1711L274.846 28.3186C273.454 30.1623 269.863 34.2183 266.493 34.5133C264.807 34.5133 264.661 33.1121 264.441 31.5635C264.221 30.0148 263.928 28.5399 262.756 28.5399C262.17 28.5399 261.29 28.9823 260.045 29.941C258.653 31.0472 257.26 32.5222 256.161 33.6284C255.868 33.9233 254.769 35.3245 254.183 35.3245C253.817 35.3245 253.597 35.1033 253.597 34.5871Z" fill="#4D3107"/>
<path d="M276.238 32.7434C274.04 32.7434 273.454 31.8584 273.307 30.6785C273.307 29.7935 273.967 28.5398 274.919 27.8024V27.7286C276.018 26.6224 277.044 26.1062 277.63 26.1062C278.216 26.1062 278.216 26.2537 278.29 26.7699C278.29 27.7286 276.971 29.5723 274.846 30.3835C275.212 31.1209 276.091 31.7109 277.557 31.7109C280.195 31.7109 283.639 29.7198 285.837 28.3186L286.203 28.8348C281.733 31.5634 278.656 32.5959 276.751 32.7434H276.238ZM277.484 26.7699H277.41C276.751 26.7699 274.992 28.2448 274.773 29.4985V29.7198C276.531 28.9823 277.484 27.3599 277.484 26.7699Z" fill="#4D3107"/>
<path d="M272.208 42.994L272.281 42.7728C272.648 39.7492 281.66 35.2507 288.694 32.0058C287.815 30.1622 285.69 29.2035 285.69 27.876C285.69 26.5486 287.009 25.6636 288.548 25.3687C288.914 25.3687 289.207 25.5161 289.207 25.8111C289.061 26.5486 288.768 26.9911 286.716 28.466C287.156 29.2772 288.914 30.3097 290.013 31.4158C294.336 29.5722 297.707 28.2448 297.707 28.2448L298 28.761C298 28.761 294.629 30.0147 290.453 31.8583C291.186 32.817 291.405 33.5545 291.405 34.5132C291.186 39.8967 280.121 44.3952 275.212 44.3952C273.307 44.3215 272.501 44.0265 272.208 42.994ZM289.134 34.2182C289.134 33.6282 289.061 33.0383 288.914 32.5958C281.587 35.9144 273.527 40.3392 273.527 42.699C273.527 43.1415 273.82 43.3628 274.626 43.4365H275.066C279.096 43.4365 288.694 39.0117 289.134 34.2182ZM288.328 26.0324C287.522 26.1799 286.496 26.6223 286.496 27.876C287.888 26.7698 288.255 26.4011 288.328 26.0324Z" fill="#4D3107"/>
</g>
<defs>
<clipPath id="clip0_199_740">
<rect width="298" height="50" fill="white"/>
</clipPath>
</defs>
</svg>
