<svg width="413" height="97" viewBox="0 0 413 97" fill="none" xmlns="http://www.w3.org/2000/svg">
<g clip-path="url(#clip0_123_2)">
<g filter="url(#filter0_d_123_2)">
<path d="M25.2388 2.15076C25.5683 2.50923 25.7001 3.01107 25.7001 3.51292C25.7001 4.01477 25.5024 4.51662 25.1729 4.87508C24.8434 5.23354 24.3821 5.44862 23.9208 5.44862C23.4595 5.44862 22.9983 5.23354 22.6688 4.87508C22.537 4.7317 22.537 4.44492 22.6688 4.22985C22.8006 4.08646 23.0642 4.08646 23.2619 4.22985C23.4595 4.44492 23.6572 4.51662 23.9208 4.51662C24.1844 4.51662 24.3821 4.44492 24.5798 4.22985C24.7775 4.01477 24.8434 3.728 24.8434 3.51292C24.8434 3.22615 24.7775 3.01107 24.5798 2.796C24.3821 2.58092 24.1844 2.50923 23.9208 2.50923C23.789 2.50923 23.7231 2.43753 23.6572 2.36584C23.5254 2.22246 23.5254 1.93569 23.6572 1.72061L24.3821 0.93199H23.196C22.9983 0.93199 22.8006 0.716913 22.8006 0.501835C22.8006 0.286757 22.9983 0.0716799 23.196 0.0716799H25.3047C25.5683 -1.26883e-05 25.7001 0.215065 25.7001 0.430143C25.7001 0.501835 25.7001 0.573528 25.6342 0.64522C25.6342 0.716913 25.5683 0.716913 25.5683 0.788605L24.6457 1.7923C24.9093 1.86399 25.0411 2.00738 25.2388 2.15076Z" fill="#4D3107"/>
<path d="M27.8088 1.29041C28.0724 1.29041 28.336 1.57718 28.336 1.86395C28.336 2.15072 28.0724 2.43749 27.8088 2.43749C27.5452 2.43749 27.2816 2.15072 27.2816 1.86395C27.2816 1.57718 27.5452 1.29041 27.8088 1.29041ZM27.8088 4.37318C28.0724 4.37318 28.336 4.65995 28.336 4.94672C28.336 5.2335 28.0724 5.52026 27.8088 5.52026C27.5452 5.52026 27.2816 5.2335 27.2816 4.94672C27.2816 4.65995 27.5452 4.37318 27.8088 4.37318Z" fill="#4D3107"/>
<path d="M33.7396 2.72432C33.7396 2.00739 33.9373 1.36216 34.2009 0.86031C34.5303 0.358463 34.9916 0 35.5188 0C36.046 0 36.5073 0.358463 36.8368 0.86031C37.1663 1.36216 37.298 2.00739 37.298 2.72432C37.298 3.44124 37.1004 4.08647 36.8368 4.58832C36.5073 5.09017 36.046 5.44863 35.5188 5.44863C34.9257 5.44863 34.4645 5.09017 34.2009 4.58832C33.9373 4.08647 33.8055 3.44124 33.7396 2.72432ZM36.5732 2.72432C36.5732 2.15078 36.4414 1.64893 36.2437 1.36216C36.046 1.0037 35.7824 0.86031 35.5847 0.86031C35.387 0.86031 35.1234 1.0037 34.9257 1.36216C34.728 1.72062 34.5962 2.15078 34.5962 2.72432C34.5962 3.29786 34.728 3.7997 34.9257 4.08647C35.1234 4.44494 35.387 4.58832 35.5847 4.58832C35.7824 4.58832 36.046 4.44494 36.2437 4.08647C36.4414 3.7997 36.5732 3.29786 36.5732 2.72432Z" fill="#4D3107"/>
<path d="M29 2.72432C29 2.00739 29.1977 1.36216 29.4613 0.86031C29.7908 0.358463 30.2521 0 30.7792 0C31.3064 0 31.7677 0.358463 32.0972 0.86031C32.4267 1.36216 32.5585 2.00739 32.5585 2.72432C32.5585 3.44124 32.3608 4.08647 32.0972 4.58832C31.7677 5.09017 31.3064 5.44863 30.7792 5.44863C30.1862 5.44863 29.7249 5.09017 29.4613 4.58832C29.1977 4.08647 29.0659 3.44124 29 2.72432ZM31.8336 2.72432C31.8336 2.15078 31.7018 1.64893 31.5041 1.36216C31.3064 1.0037 31.0428 0.86031 30.8451 0.86031C30.6474 0.86031 30.3838 1.0037 30.1862 1.36216C29.9885 1.72062 29.8567 2.15078 29.8567 2.72432C29.8567 3.29786 29.9885 3.7997 30.1862 4.08647C30.3838 4.44494 30.6474 4.58832 30.8451 4.58832C31.0428 4.58832 31.3064 4.44494 31.5041 4.08647C31.7018 3.7997 31.8336 3.29786 31.8336 2.72432Z" fill="#4D3107"/>
<path d="M43.4924 3.36955H42.6357V5.01848C42.6357 5.23356 42.438 5.44863 42.2404 5.44863C42.0427 5.44863 41.845 5.23356 41.845 5.01848V0.430155C41.845 0.215078 42.0427 0 42.2404 0H43.4924C44.3491 0 45.0081 0.716925 45.0081 1.64893C45.0081 2.58093 44.3491 3.36955 43.4924 3.36955ZM42.6357 2.50924H43.4924C43.8878 2.50924 44.2173 2.15078 44.2173 1.72062C44.2173 1.29047 43.8878 0.932003 43.4924 0.932003H42.6357V2.50924Z" fill="#4D3107"/>
<path d="M50.5435 0.430155V5.01848C50.5435 5.23356 50.3458 5.44863 50.1481 5.44863C49.9504 5.44863 49.7527 5.23356 49.7527 5.01848V1.79231L48.7642 3.29786C48.6983 3.44124 48.5665 3.44124 48.4347 3.44124C48.3029 3.44124 48.1712 3.36955 48.1053 3.29786L47.1168 1.72062V5.01848C47.1168 5.23356 46.9191 5.44863 46.7214 5.44863C46.5237 5.44863 46.326 5.23356 46.326 5.01848V0.430155C46.326 0.215078 46.5237 0 46.7214 0C46.8532 0 46.985 0.0716925 47.0509 0.143385L48.5006 2.29416L49.9504 0.143385C50.0163 0 50.1481 0 50.2799 0C50.3458 0.0716925 50.5435 0.215078 50.5435 0.430155Z" fill="#4D3107"/>
</g>
<g filter="url(#filter1_d_123_2)">
<path d="M15.2224 13.6933V9.10496C15.2224 8.88988 15.42 8.6748 15.6177 8.6748H16.6062C17.3311 8.6748 17.99 9.32004 17.99 10.1803C17.99 10.5388 17.8583 10.8256 17.7265 11.0407C18.1218 11.3274 18.4513 11.8293 18.4513 12.4745C18.4513 13.4065 17.7924 14.1234 16.9357 14.1234H15.6836C15.3541 14.1234 15.2224 13.9084 15.2224 13.6933ZM16.0131 10.8256H16.6062C16.9357 10.8256 17.1993 10.5388 17.1993 10.1803C17.1993 9.82188 16.9357 9.53512 16.6062 9.53512H16.0131V10.8256ZM16.0131 13.2631H16.9357C17.3311 13.2631 17.6606 12.9047 17.6606 12.4745C17.6606 12.0444 17.3311 11.6859 16.9357 11.6859H16.0131V13.2631Z" fill="#4D3107"/>
<path d="M19.7034 9.10496C19.7034 8.88988 19.9011 8.6748 20.0988 8.6748C20.2965 8.6748 20.4942 8.88988 20.4942 9.10496V13.6933C20.4942 13.9084 20.2965 14.1234 20.0988 14.1234C19.9011 14.1234 19.7034 13.9084 19.7034 13.6933V9.10496Z" fill="#4D3107"/>
<path d="M22.0757 13.6933V9.10496C22.0757 8.88988 22.2734 8.6748 22.4711 8.6748H24.7775C24.9752 8.6748 25.1729 8.88988 25.1729 9.10496C25.1729 9.32004 24.9752 9.53512 24.7775 9.53512H22.8665V10.969H24.5139C24.7116 10.969 24.9093 11.184 24.9093 11.3991C24.9093 11.6142 24.7116 11.8293 24.5139 11.8293H22.8665V13.2631H24.7775C24.9752 13.2631 25.1729 13.4782 25.1729 13.6933C25.1729 13.9084 24.9752 14.1234 24.7775 14.1234H22.4711C22.2734 14.1234 22.0757 13.9084 22.0757 13.6933Z" fill="#4D3107"/>
<path d="M27.4134 13.6933C27.4134 13.9084 27.2157 14.1234 27.018 14.1234C26.8203 14.1234 26.6226 13.9084 26.6226 13.6933V9.17665C26.6226 9.03327 26.6885 8.88988 26.7544 8.81819C26.9521 8.6748 27.1498 8.7465 27.2816 8.88988L29.588 12.3311V9.10496C29.588 8.88988 29.7857 8.6748 29.9834 8.6748C30.1811 8.6748 30.3788 8.88988 30.3788 9.10496V13.6216C30.3788 13.8367 30.1811 14.0517 29.9834 14.0517C29.8516 14.0517 29.7857 13.9801 29.7198 13.9084C29.7198 13.9084 29.7198 13.9084 29.6539 13.8367L27.3475 10.3954V13.6933H27.4134Z" fill="#4D3107"/>
<path d="M34.0032 14.0517C33.9373 13.98 34.0032 13.98 34.0032 14.0517C33.9373 13.98 33.9373 13.98 33.9373 13.9084C33.9373 13.9084 33.9373 13.8367 33.8714 13.8367L32.158 9.32003C32.0921 9.10495 32.158 8.88987 32.3557 8.74649C32.5534 8.6748 32.7511 8.74649 32.8829 8.96157L34.2668 12.5462L35.6506 8.96157C35.7165 8.74649 35.9801 8.6748 36.1778 8.74649C36.3755 8.81818 36.4414 9.10495 36.3755 9.32003L34.5962 13.8367V13.9084C34.5962 13.9084 34.5962 13.9084 34.5304 13.98C34.5304 13.98 34.5303 13.98 34.4645 14.0517C34.4645 14.0517 34.3986 14.0517 34.3986 14.1234H34.3327H34.2668H34.2009H34.135C34.0691 14.1234 34.0691 14.0517 34.0032 14.0517Z" fill="#4D3107"/>
<path d="M37.8252 13.6933V9.10496C37.8252 8.88988 38.0229 8.6748 38.2206 8.6748H40.527C40.7247 8.6748 40.9224 8.88988 40.9224 9.10496C40.9224 9.32004 40.7247 9.53512 40.527 9.53512H38.616V10.969H40.2634C40.4611 10.969 40.6588 11.184 40.6588 11.3991C40.6588 11.6142 40.4611 11.8293 40.2634 11.8293H38.616V13.2631H40.527C40.7247 13.2631 40.9224 13.4782 40.9224 13.6933C40.9224 13.9084 40.7247 14.1234 40.527 14.1234H38.2206C37.957 14.1234 37.8252 13.9084 37.8252 13.6933Z" fill="#4D3107"/>
<path d="M43.097 13.6933C43.097 13.9084 42.8993 14.1234 42.7016 14.1234C42.504 14.1234 42.3063 13.9084 42.3063 13.6933V9.17665C42.3063 9.03327 42.3722 8.88988 42.4381 8.81819C42.6358 8.6748 42.8334 8.7465 42.9652 8.88988L45.2717 12.3311V9.10496C45.2717 8.88988 45.4693 8.6748 45.667 8.6748C45.8647 8.6748 46.0624 8.88988 46.0624 9.10496V13.6216C46.0624 13.8367 45.8647 14.0517 45.667 14.0517C45.5352 14.0517 45.4693 13.9801 45.4034 13.9084C45.4034 13.9084 45.4035 13.9084 45.3376 13.8367L43.0311 10.3954V13.6933H43.097Z" fill="#4D3107"/>
<path d="M47.9076 9.10496C47.9076 8.88988 48.1053 8.6748 48.303 8.6748C48.5006 8.6748 48.6983 8.88988 48.6983 9.10496V13.6933C48.6983 13.9084 48.5006 14.1234 48.303 14.1234C48.1053 14.1234 47.9076 13.9084 47.9076 13.6933V9.10496Z" fill="#4D3107"/>
<path d="M50.3458 13.6933V9.10496C50.3458 8.88988 50.5435 8.6748 50.7412 8.6748H51.5978C52.9817 8.6748 54.1019 9.89358 54.1019 11.3991C54.1019 12.9047 52.9817 14.1234 51.5978 14.1234H50.7412C50.4776 14.1234 50.3458 13.9084 50.3458 13.6933ZM51.1365 13.2631H51.5978C52.5204 13.2631 53.3112 12.4028 53.3112 11.3991C53.3112 10.3954 52.5863 9.53512 51.5978 9.53512H51.1365V13.2631Z" fill="#4D3107"/>
<path d="M57.7922 12.833H56.0789L55.7494 13.8367C55.6835 13.9801 55.5517 14.1234 55.354 14.1234C55.2881 14.1234 55.2881 14.1234 55.2222 14.1234C55.0245 14.0517 54.8927 13.765 54.9586 13.5499L56.5402 8.96157C56.6061 8.81819 56.7378 8.6748 56.9355 8.6748C57.0673 8.6748 57.265 8.7465 57.3309 8.96157L58.9125 13.5499C58.9784 13.765 58.9125 14.0517 58.6489 14.1234C58.583 14.1234 58.583 14.1234 58.5171 14.1234C58.3853 14.1234 58.1876 14.0517 58.1217 13.8367L57.7922 12.833ZM57.5286 11.9727L56.9355 10.3237L56.3425 11.9727H57.5286Z" fill="#4D3107"/>
</g>
<g filter="url(#filter2_d_123_2)">
<path d="M111.96 1.29041C112.224 1.29041 112.487 1.57718 112.487 1.86395C112.487 2.15072 112.224 2.43749 111.96 2.43749C111.696 2.43749 111.433 2.15072 111.433 1.86395C111.433 1.57718 111.631 1.29041 111.96 1.29041ZM111.96 4.37318C112.224 4.37318 112.487 4.65995 112.487 4.94672C112.487 5.2335 112.224 5.52026 111.96 5.52026C111.696 5.52026 111.433 5.2335 111.433 4.94672C111.433 4.65995 111.631 4.37318 111.96 4.37318Z" fill="#4D3107"/>
<path d="M118.616 2.72432C118.616 2.00739 118.813 1.36216 119.077 0.86031C119.406 0.358463 119.868 0 120.395 0C120.922 0 121.383 0.358463 121.713 0.86031C122.042 1.36216 122.174 2.00739 122.174 2.72432C122.174 3.44124 121.976 4.08647 121.713 4.58832C121.383 5.09017 120.922 5.44863 120.395 5.44863C119.802 5.44863 119.341 5.09017 119.077 4.58832C118.813 4.08647 118.616 3.44124 118.616 2.72432ZM121.449 2.72432C121.449 2.15078 121.317 1.64893 121.12 1.36216C120.922 1.0037 120.659 0.86031 120.461 0.86031C120.263 0.86031 120 1.0037 119.802 1.36216C119.604 1.72062 119.472 2.15078 119.472 2.72432C119.472 3.29786 119.604 3.7997 119.802 4.08647C120 4.44494 120.263 4.58832 120.461 4.58832C120.659 4.58832 120.922 4.44494 121.12 4.08647C121.317 3.7997 121.449 3.29786 121.449 2.72432Z" fill="#4D3107"/>
<path d="M128.303 3.36955H127.446V5.01848C127.446 5.23356 127.248 5.44863 127.051 5.44863C126.853 5.44863 126.655 5.23356 126.655 5.01848V0.430155C126.655 0.215078 126.853 0 127.051 0H128.303C129.159 0 129.818 0.716925 129.818 1.64893C129.884 2.58093 129.159 3.36955 128.303 3.36955ZM127.446 2.50924H128.303C128.698 2.50924 129.028 2.15078 129.028 1.72062C129.028 1.29047 128.698 0.932003 128.303 0.932003H127.446V2.50924Z" fill="#4D3107"/>
<path d="M135.42 0.430155V5.01848C135.42 5.23356 135.222 5.44863 135.024 5.44863C134.826 5.44863 134.629 5.23356 134.629 5.01848V1.79231L133.574 3.36955C133.509 3.51293 133.377 3.51293 133.245 3.51293C133.113 3.51293 132.981 3.44124 132.915 3.36955L131.927 1.79231V5.01848C131.927 5.23356 131.729 5.44863 131.532 5.44863C131.334 5.44863 131.136 5.23356 131.136 5.01848V0.430155C131.136 0.215078 131.334 0 131.532 0C131.663 0 131.795 0.0716925 131.861 0.143385L133.311 2.29416L134.761 0.143385C134.826 0 134.958 0 135.09 0C135.222 0.0716925 135.42 0.215078 135.42 0.430155Z" fill="#4D3107"/>
</g>
<g filter="url(#filter3_d_123_2)">
<path d="M99.3736 11.3274C99.3736 9.82184 100.56 8.53137 102.009 8.53137C102.668 8.53137 103.196 8.74645 103.657 9.10491C103.855 9.2483 103.855 9.53507 103.723 9.75015C103.591 9.96522 103.327 9.96522 103.13 9.82184C102.8 9.53507 102.405 9.39168 102.009 9.39168C101.548 9.39168 101.087 9.60676 100.757 9.96522C100.428 10.3237 100.23 10.7538 100.23 11.3274C100.23 11.9009 100.428 12.3311 100.757 12.6895C101.087 13.048 101.548 13.2631 102.009 13.2631C102.471 13.2631 102.866 13.1197 103.13 12.8329C103.262 12.6895 103.525 12.7612 103.723 12.9046C103.855 13.1197 103.855 13.4065 103.657 13.5498C103.196 13.9083 102.668 14.1234 102.009 14.1234C100.56 14.1234 99.3736 12.9046 99.3736 11.3274Z" fill="#4D3107"/>
<path d="M105.37 13.6933V9.10496C105.37 8.88988 105.568 8.6748 105.766 8.6748H108.072C108.27 8.6748 108.467 8.88988 108.467 9.10496C108.467 9.32004 108.27 9.53512 108.072 9.53512H106.161V10.969H107.808C108.006 10.969 108.204 11.184 108.204 11.3991C108.204 11.6142 108.006 11.8293 107.808 11.8293H106.161V13.2631H108.072C108.27 13.2631 108.467 13.4782 108.467 13.6933C108.467 13.9084 108.27 14.1234 108.072 14.1234H105.766C105.568 14.1234 105.37 13.9084 105.37 13.6933Z" fill="#4D3107"/>
<path d="M113.344 13.4781C113.41 13.6932 113.278 13.9083 113.08 14.0517C113.08 14.0517 113.014 14.0517 112.948 14.0517C112.883 14.0517 112.751 14.0517 112.685 13.98C112.619 13.9083 112.487 13.8366 112.487 13.6932C112.355 13.4781 112.355 13.1913 112.355 12.7612C112.355 12.6178 112.29 12.5461 112.29 12.4027C112.224 12.331 112.158 12.2593 112.092 12.1877C111.96 12.0443 111.762 12.0443 111.696 11.9726H110.708V13.6215C110.708 13.8366 110.51 14.0517 110.313 14.0517C110.115 14.0517 109.917 13.8366 109.917 13.6215V9.03318C109.917 8.81811 110.115 8.60303 110.313 8.60303H111.565C112.421 8.60303 113.08 9.31995 113.08 10.252C113.08 10.7538 112.883 11.184 112.553 11.5424C112.619 11.6141 112.751 11.6858 112.817 11.8292C112.948 12.0443 113.08 12.331 113.08 12.6895C113.08 12.9046 113.08 13.048 113.08 13.1197C113.212 13.263 113.278 13.3347 113.344 13.4781ZM112.355 10.3953C112.355 9.96519 112.026 9.60672 111.631 9.60672H110.708V11.184H111.565C112.026 11.184 112.355 10.8255 112.355 10.3953Z" fill="#4D3107"/>
<path d="M114.794 13.6933V9.10496C114.794 8.88988 114.991 8.6748 115.189 8.6748H117.495C117.693 8.6748 117.891 8.88988 117.891 9.10496C117.891 9.32004 117.693 9.53512 117.495 9.53512H115.584V10.969H117.232C117.43 10.969 117.627 11.184 117.627 11.3991C117.627 11.6142 117.43 11.8293 117.232 11.8293H115.584V13.2631H117.495C117.693 13.2631 117.891 13.4782 117.891 13.6933C117.891 13.9084 117.693 14.1234 117.495 14.1234H115.189C114.991 14.1234 114.794 13.9084 114.794 13.6933Z" fill="#4D3107"/>
<path d="M123.624 9.10496V13.6933C123.624 13.9084 123.426 14.1234 123.229 14.1234C123.031 14.1234 122.833 13.9084 122.833 13.6933V10.3954L121.779 11.9727C121.713 12.116 121.581 12.116 121.449 12.116C121.317 12.116 121.186 12.0444 121.12 11.9727L120.131 10.3954V13.6933C120.131 13.9084 119.934 14.1234 119.736 14.1234C119.538 14.1234 119.341 13.9084 119.341 13.6933V9.10496C119.341 8.88988 119.538 8.6748 119.736 8.6748C119.868 8.6748 120 8.7465 120.065 8.81819L121.515 10.969L122.965 8.81819C123.031 8.6748 123.163 8.6748 123.294 8.6748C123.426 8.7465 123.624 8.88988 123.624 9.10496Z" fill="#4D3107"/>
<path d="M129.225 9.39168C129.686 9.89353 129.95 10.6105 129.95 11.3274C129.95 12.0443 129.686 12.7612 129.225 13.2631C128.83 13.7649 128.171 14.1234 127.512 14.1234C126.853 14.1234 126.194 13.7649 125.733 13.2631C125.271 12.7612 125.008 12.0443 125.008 11.3274C125.008 10.6105 125.271 9.89353 125.733 9.39168C126.194 8.88984 126.787 8.53137 127.512 8.53137C128.171 8.53137 128.83 8.88984 129.225 9.39168ZM129.093 11.3274C129.093 10.8255 128.896 10.3237 128.632 9.96522C128.303 9.60676 127.907 9.39168 127.512 9.39168C127.051 9.39168 126.655 9.60676 126.326 9.96522C125.996 10.3237 125.864 10.8255 125.864 11.3274C125.864 11.8292 126.062 12.3311 126.326 12.6895C126.655 13.048 127.051 13.2631 127.512 13.2631C127.907 13.2631 128.369 13.048 128.632 12.6895C128.962 12.3311 129.093 11.9009 129.093 11.3274Z" fill="#4D3107"/>
<path d="M132.256 13.6933C132.256 13.9084 132.059 14.1234 131.861 14.1234C131.663 14.1234 131.466 13.9084 131.466 13.6933V9.17665C131.466 9.03327 131.532 8.88988 131.598 8.81819C131.795 8.6748 131.993 8.7465 132.125 8.88988L134.431 12.3311V9.10496C134.431 8.88988 134.629 8.6748 134.826 8.6748C135.024 8.6748 135.222 8.88988 135.222 9.10496V13.6216C135.222 13.8367 135.024 14.0517 134.826 14.0517C134.695 14.0517 134.629 13.9801 134.563 13.9084C134.563 13.9084 134.563 13.9084 134.497 13.8367L132.191 10.3954V13.6933H132.256Z" fill="#4D3107"/>
<path d="M137.001 9.10496C137.001 8.88988 137.199 8.6748 137.396 8.6748C137.594 8.6748 137.792 8.88988 137.792 9.10496V13.6933C137.792 13.9084 137.594 14.1234 137.396 14.1234C137.199 14.1234 137.001 13.9084 137.001 13.6933V9.10496Z" fill="#4D3107"/>
<path d="M142.009 12.833H140.296L139.966 13.8367C139.901 13.9801 139.769 14.1234 139.571 14.1234C139.505 14.1234 139.505 14.1234 139.439 14.1234C139.242 14.0517 139.11 13.765 139.176 13.5499L140.757 8.96157C140.823 8.81819 140.955 8.6748 141.153 8.6748C141.284 8.6748 141.482 8.7465 141.548 8.96157L143.13 13.5499C143.195 13.765 143.13 14.0517 142.866 14.1234C142.8 14.1234 142.8 14.1234 142.734 14.1234C142.602 14.1234 142.405 14.0517 142.339 13.8367L142.009 12.833ZM141.68 11.9727L141.087 10.3237L140.494 11.9727H141.68Z" fill="#4D3107"/>
</g>
<g filter="url(#filter4_d_123_2)">
<path d="M194.003 2.15074C194.332 2.5092 194.53 3.01105 194.53 3.5129C194.53 4.01474 194.332 4.51659 194.003 4.87506C193.673 5.23352 193.212 5.4486 192.75 5.4486C192.289 5.4486 191.828 5.23352 191.498 4.87506C191.367 4.73167 191.367 4.4449 191.498 4.22982C191.63 4.08644 191.894 4.08644 192.092 4.22982C192.289 4.4449 192.487 4.51659 192.75 4.51659C193.014 4.51659 193.212 4.4449 193.409 4.22982C193.607 4.01474 193.673 3.72797 193.673 3.5129C193.673 3.22613 193.607 2.93936 193.409 2.79597C193.212 2.58089 193.014 2.5092 192.75 2.5092C192.487 2.5092 192.223 2.58089 192.092 2.79597C191.96 2.93936 191.696 2.93936 191.498 2.79597L191.433 2.72428C191.433 2.72428 191.433 2.72428 191.433 2.65259V2.58089C191.433 2.5092 191.433 2.5092 191.433 2.43751L191.63 0.430118C191.63 0.286733 191.696 0.21504 191.828 0.143348C191.894 0.143348 191.96 0.0716553 192.026 0.0716553H194.134C194.332 0.0716553 194.53 0.286733 194.53 0.50181C194.53 0.716888 194.332 0.931966 194.134 0.931966H192.355L192.289 1.72058C192.421 1.64889 192.619 1.64889 192.75 1.64889C193.212 1.5772 193.673 1.79228 194.003 2.15074Z" fill="#4D3107"/>
<path d="M196.704 1.29041C196.968 1.29041 197.232 1.57718 197.232 1.86395C197.232 2.15072 196.968 2.43749 196.704 2.43749C196.441 2.43749 196.177 2.15072 196.177 1.86395C196.177 1.57718 196.375 1.29041 196.704 1.29041ZM196.704 4.37318C196.968 4.37318 197.232 4.65995 197.232 4.94672C197.232 5.2335 196.968 5.52026 196.704 5.52026C196.441 5.52026 196.177 5.2335 196.177 4.94672C196.177 4.65995 196.375 4.37318 196.704 4.37318Z" fill="#4D3107"/>
<path d="M197.956 2.72432C197.956 2.00739 198.154 1.36216 198.418 0.86031C198.747 0.358463 199.208 0 199.736 0C200.263 0 200.724 0.358463 201.054 0.86031C201.383 1.36216 201.515 2.00739 201.515 2.72432C201.515 3.44124 201.317 4.08647 201.054 4.58832C200.724 5.09017 200.263 5.44863 199.736 5.44863C199.143 5.44863 198.681 5.09017 198.418 4.58832C198.154 4.08647 198.022 3.44124 197.956 2.72432ZM200.79 2.72432C200.79 2.15078 200.658 1.64893 200.461 1.36216C200.263 1.0037 199.999 0.86031 199.802 0.86031C199.604 0.86031 199.34 1.0037 199.143 1.36216C198.945 1.72062 198.813 2.15078 198.813 2.72432C198.813 3.29786 198.945 3.7997 199.143 4.08647C199.34 4.44494 199.604 4.58832 199.802 4.58832C199.999 4.58832 200.263 4.44494 200.461 4.08647C200.658 3.7997 200.79 3.29786 200.79 2.72432Z" fill="#4D3107"/>
<path d="M203.36 2.72432C203.36 2.00739 203.558 1.36216 203.821 0.86031C204.151 0.358463 204.612 0 205.139 0C205.666 0 206.128 0.358463 206.457 0.86031C206.787 1.36216 206.918 2.00739 206.918 2.72432C206.918 3.44124 206.721 4.08647 206.457 4.58832C206.128 5.09017 205.666 5.44863 205.139 5.44863C204.546 5.44863 204.085 5.09017 203.821 4.58832C203.492 4.08647 203.36 3.44124 203.36 2.72432ZM206.128 2.72432C206.128 2.15078 205.996 1.64893 205.798 1.36216C205.601 1.0037 205.337 0.86031 205.139 0.86031C204.942 0.86031 204.678 1.0037 204.48 1.36216C204.283 1.72062 204.151 2.15078 204.151 2.72432C204.151 3.29786 204.283 3.7997 204.48 4.08647C204.678 4.44494 204.942 4.58832 205.139 4.58832C205.337 4.58832 205.601 4.44494 205.798 4.08647C205.996 3.7997 206.128 3.29786 206.128 2.72432Z" fill="#4D3107"/>
<path d="M213.047 3.36955H212.19V5.01848C212.19 5.23356 211.993 5.44863 211.795 5.44863C211.597 5.44863 211.399 5.23356 211.399 5.01848V0.430155C211.399 0.215078 211.597 0 211.795 0H213.047C213.904 0 214.563 0.716925 214.563 1.64893C214.563 2.58093 213.904 3.36955 213.047 3.36955ZM212.19 2.50924H213.047C213.442 2.50924 213.772 2.15078 213.772 1.72062C213.772 1.29047 213.442 0.932003 213.047 0.932003H212.19V2.50924Z" fill="#4D3107"/>
<path d="M220.098 0.430155V5.01848C220.098 5.23356 219.9 5.44863 219.703 5.44863C219.505 5.44863 219.307 5.23356 219.307 5.01848V1.79231L218.253 3.36955C218.187 3.51293 218.055 3.51293 217.923 3.51293C217.792 3.51293 217.66 3.44124 217.594 3.36955L216.605 1.79231V5.01848C216.605 5.23356 216.408 5.44863 216.21 5.44863C216.012 5.44863 215.815 5.23356 215.815 5.01848V0.430155C215.815 0.215078 216.012 0 216.21 0C216.342 0 216.474 0.0716925 216.54 0.143385L217.989 2.29416L219.439 0.143385C219.505 0 219.637 0 219.768 0C219.9 0.0716925 220.098 0.215078 220.098 0.430155Z" fill="#4D3107"/>
</g>
<g filter="url(#filter5_d_123_2)">
<path d="M191.037 11.3274C191.037 9.82184 192.223 8.53137 193.673 8.53137C194.332 8.53137 194.859 8.74645 195.32 9.10491C195.518 9.2483 195.518 9.53507 195.386 9.75015C195.255 9.96522 194.991 9.96522 194.793 9.82184C194.464 9.53507 194.068 9.39168 193.673 9.39168C193.212 9.39168 192.75 9.60676 192.421 9.96522C192.092 10.3237 191.894 10.7538 191.894 11.3274C191.894 11.9009 192.092 12.3311 192.421 12.6895C192.75 13.048 193.212 13.2631 193.673 13.2631C194.134 13.2631 194.53 13.1197 194.793 12.8329C194.925 12.6895 195.189 12.7612 195.386 12.9046C195.518 13.1197 195.518 13.4065 195.32 13.5498C194.859 13.9083 194.332 14.1234 193.673 14.1234C192.223 14.1234 191.037 12.9046 191.037 11.3274Z" fill="#4D3107"/>
<path d="M200.856 9.39168C201.317 9.89353 201.581 10.6105 201.581 11.3274C201.581 12.0443 201.317 12.7612 200.856 13.2631C200.46 13.7649 199.802 14.1234 199.143 14.1234C198.484 14.1234 197.825 13.7649 197.363 13.2631C196.902 12.7612 196.638 12.0443 196.638 11.3274C196.638 10.6105 196.902 9.89353 197.363 9.39168C197.825 8.88984 198.418 8.53137 199.143 8.53137C199.802 8.53137 200.395 8.88984 200.856 9.39168ZM200.724 11.3274C200.724 10.8255 200.526 10.3237 200.263 9.96522C199.933 9.60676 199.538 9.39168 199.143 9.39168C198.681 9.39168 198.286 9.60676 197.956 9.96522C197.627 10.3237 197.495 10.8255 197.495 11.3274C197.495 11.8292 197.693 12.3311 197.956 12.6895C198.286 13.048 198.681 13.2631 199.143 13.2631C199.538 13.2631 199.999 13.048 200.263 12.6895C200.526 12.3311 200.724 11.9009 200.724 11.3274Z" fill="#4D3107"/>
<path d="M202.833 11.3274C202.833 9.82184 204.019 8.53137 205.469 8.53137C206.128 8.53137 206.655 8.74645 207.116 9.10491C207.314 9.2483 207.314 9.53507 207.182 9.75015C207.05 9.96522 206.787 9.96522 206.589 9.82184C206.259 9.53507 205.864 9.39168 205.469 9.39168C205.007 9.39168 204.546 9.60676 204.217 9.96522C203.887 10.3237 203.689 10.7538 203.689 11.3274C203.689 11.9009 203.887 12.3311 204.217 12.6895C204.546 13.048 205.007 13.2631 205.469 13.2631C205.93 13.2631 206.325 13.1197 206.589 12.8329C206.721 12.6895 206.984 12.7612 207.182 12.9046C207.314 13.1197 207.314 13.4065 207.116 13.5498C206.655 13.9083 206.128 14.1234 205.469 14.1234C204.019 14.1234 202.833 12.9046 202.833 11.3274Z" fill="#4D3107"/>
<path d="M211.861 9.53512H210.741V13.6933C210.741 13.9084 210.543 14.1234 210.345 14.1234C210.147 14.1234 209.95 13.9084 209.95 13.6933V9.53512H208.829C208.632 9.53512 208.434 9.32004 208.434 9.10496C208.434 8.88988 208.632 8.6748 208.829 8.6748H211.861C212.058 8.6748 212.256 8.88988 212.256 9.10496C212.256 9.39173 212.058 9.53512 211.861 9.53512Z" fill="#4D3107"/>
<path d="M213.706 13.6933V9.10496C213.706 8.88988 213.904 8.6748 214.101 8.6748H216.408C216.605 8.6748 216.803 8.88988 216.803 9.10496C216.803 9.32004 216.605 9.53512 216.408 9.53512H214.497V10.969H216.144C216.342 10.969 216.54 11.184 216.54 11.3991C216.54 11.6142 216.342 11.8293 216.144 11.8293H214.497V13.2631H216.408C216.605 13.2631 216.803 13.4782 216.803 13.6933C216.803 13.9084 216.605 14.1234 216.408 14.1234H214.167C213.904 14.1234 213.706 13.9084 213.706 13.6933Z" fill="#4D3107"/>
<path d="M218.253 13.6933V9.10496C218.253 8.88988 218.451 8.6748 218.648 8.6748C218.846 8.6748 219.044 8.88988 219.044 9.10496V13.2631H220.955C221.152 13.2631 221.35 13.4782 221.35 13.6933C221.35 13.9084 221.152 14.1234 220.955 14.1234H218.648C218.385 14.1234 218.253 13.9084 218.253 13.6933Z" fill="#4D3107"/>
</g>
<g filter="url(#filter6_d_123_2)">
<path d="M279.274 0.573503L277.495 5.16183C277.429 5.30521 277.297 5.4486 277.099 5.4486C277.033 5.4486 276.968 5.4486 276.968 5.4486C276.77 5.30521 276.704 5.01844 276.77 4.87506L278.286 0.931966H276.44C276.243 0.931966 276.045 0.716888 276.045 0.50181C276.045 0.286733 276.243 0.0716553 276.44 0.0716553H278.879H278.945C279.01 0.0716553 279.076 0.143348 279.076 0.143348C279.076 0.143348 279.076 0.143348 279.076 0.21504C279.076 0.21504 279.076 0.21504 279.076 0.286733C279.076 0.286733 279.076 0.286733 279.076 0.358425C279.076 0.358425 279.076 0.358425 279.076 0.430118C279.076 0.50181 279.076 0.573503 279.076 0.573503C279.274 0.573503 279.274 0.573503 279.274 0.573503Z" fill="#4D3107"/>
<path d="M281.251 1.21875C281.515 1.21875 281.778 1.50552 281.778 1.79229C281.778 2.07906 281.515 2.36583 281.251 2.36583C280.987 2.36583 280.724 2.15075 280.724 1.79229C280.724 1.50552 280.921 1.21875 281.251 1.21875ZM281.251 4.30153C281.515 4.30153 281.778 4.5883 281.778 4.87507C281.778 5.16184 281.515 5.44861 281.251 5.44861C280.987 5.44861 280.724 5.23353 280.724 4.87507C280.724 4.51661 280.921 4.30153 281.251 4.30153Z" fill="#4D3107"/>
<path d="M282.503 2.72432C282.503 2.00739 282.701 1.36216 282.964 0.86031C283.294 0.358463 283.755 0 284.282 0C284.809 0 285.271 0.358463 285.6 0.86031C285.93 1.36216 286.061 2.00739 286.061 2.72432C286.061 3.44124 285.864 4.08647 285.6 4.58832C285.271 5.09017 284.809 5.44863 284.282 5.44863C283.689 5.44863 283.228 5.09017 282.964 4.58832C282.701 4.08647 282.569 3.44124 282.503 2.72432ZM285.337 2.72432C285.337 2.15078 285.205 1.64893 285.007 1.36216C284.809 1.0037 284.546 0.86031 284.348 0.86031C284.15 0.86031 283.887 1.0037 283.689 1.36216C283.491 1.64893 283.36 2.15078 283.36 2.72432C283.36 3.29786 283.491 3.7997 283.689 4.08647C283.887 4.44494 284.15 4.58832 284.348 4.58832C284.546 4.58832 284.809 4.44494 285.007 4.08647C285.205 3.72801 285.337 3.29786 285.337 2.72432Z" fill="#4D3107"/>
<path d="M287.907 2.72432C287.907 2.00739 288.104 1.36216 288.368 0.86031C288.697 0.358463 289.159 0 289.686 0C290.213 0 290.674 0.358463 291.004 0.86031C291.333 1.36216 291.465 2.00739 291.465 2.72432C291.465 3.44124 291.267 4.08647 291.004 4.58832C290.674 5.09017 290.213 5.44863 289.686 5.44863C289.093 5.44863 288.631 5.09017 288.368 4.58832C288.038 4.08647 287.907 3.44124 287.907 2.72432ZM290.674 2.72432C290.674 2.15078 290.543 1.64893 290.345 1.36216C290.147 1.0037 289.884 0.86031 289.686 0.86031C289.488 0.86031 289.225 1.0037 289.027 1.36216C288.829 1.72062 288.697 2.15078 288.697 2.72432C288.697 3.29786 288.829 3.7997 289.027 4.08647C289.225 4.44494 289.488 4.58832 289.686 4.58832C289.884 4.58832 290.147 4.44494 290.345 4.08647C290.543 3.72801 290.674 3.29786 290.674 2.72432Z" fill="#4D3107"/>
<path d="M297.594 3.29786H296.737V5.01848C296.737 5.23356 296.539 5.44863 296.342 5.44863C296.144 5.44863 295.946 5.23356 295.946 5.01848V0.430155C295.946 0.215078 296.144 0 296.342 0H297.594C298.45 0 299.109 0.716925 299.109 1.64893C299.109 2.58093 298.45 3.29786 297.594 3.29786ZM296.737 2.43755H297.594C297.989 2.43755 298.318 2.07908 298.318 1.64893C298.318 1.21877 297.989 0.86031 297.594 0.86031H296.737V2.43755Z" fill="#4D3107"/>
<path d="M304.645 0.430155V5.01848C304.645 5.23356 304.447 5.44863 304.249 5.44863C304.052 5.44863 303.854 5.23356 303.854 5.01848V1.72062L302.799 3.29786C302.734 3.44124 302.602 3.44124 302.47 3.44124C302.338 3.44124 302.206 3.36955 302.14 3.29786L301.152 1.72062V5.01848C301.152 5.23356 300.954 5.44863 300.757 5.44863C300.559 5.44863 300.361 5.23356 300.361 5.01848V0.430155C300.361 0.215078 300.559 0 300.757 0C300.888 0 301.02 0.0716925 301.086 0.143385L302.536 2.29416L303.986 0.143385C304.052 0 304.183 0 304.315 0C304.447 0 304.645 0.215078 304.645 0.430155Z" fill="#4D3107"/>
</g>
<g filter="url(#filter7_d_123_2)">
<path d="M280.79 11.3274C280.79 9.82184 281.976 8.53137 283.426 8.53137C284.085 8.53137 284.612 8.74645 285.073 9.10491C285.271 9.2483 285.271 9.53507 285.139 9.75015C285.007 9.96522 284.744 9.96522 284.546 9.82184C284.216 9.53507 283.821 9.39168 283.426 9.39168C282.964 9.39168 282.503 9.60676 282.174 9.96522C281.844 10.3237 281.646 10.7538 281.646 11.3274C281.646 11.9009 281.844 12.3311 282.174 12.6895C282.503 13.048 282.964 13.2631 283.426 13.2631C283.887 13.2631 284.282 13.1197 284.546 12.8329C284.678 12.6895 284.941 12.7612 285.139 12.9046C285.271 13.1197 285.271 13.4065 285.073 13.5498C284.612 13.9083 284.085 14.1234 283.426 14.1234C281.976 14.1234 280.79 12.8329 280.79 11.3274Z" fill="#4D3107"/>
<path d="M286.786 13.6933V9.10496C286.786 8.88988 286.984 8.6748 287.182 8.6748H289.488C289.686 8.6748 289.884 8.88988 289.884 9.10496C289.884 9.32004 289.686 9.53512 289.488 9.53512H287.577V10.969H289.225C289.422 10.969 289.62 11.184 289.62 11.3991C289.62 11.6142 289.422 11.8293 289.225 11.8293H287.577V13.2631H289.488C289.686 13.2631 289.884 13.4782 289.884 13.6933C289.884 13.9084 289.686 14.1234 289.488 14.1234H287.182C286.984 14.1234 286.786 13.9084 286.786 13.6933Z" fill="#4D3107"/>
<path d="M292.124 13.6933C292.124 13.9084 291.926 14.1234 291.729 14.1234C291.531 14.1234 291.333 13.9084 291.333 13.6933V9.17665C291.333 9.03327 291.399 8.88988 291.465 8.81819C291.663 8.6748 291.86 8.7465 291.992 8.88988L294.299 12.3311V9.10496C294.299 8.88988 294.496 8.6748 294.694 8.6748C294.892 8.6748 295.089 8.88988 295.089 9.10496V13.6216C295.089 13.8367 294.892 14.0517 294.694 14.0517C294.562 14.0517 294.496 13.9801 294.43 13.9084C294.43 13.9084 294.43 13.9084 294.365 13.8367L292.058 10.3954V13.6933H292.124Z" fill="#4D3107"/>
<path d="M299.636 12.833H297.923L297.594 13.8367C297.528 13.9801 297.396 14.1234 297.198 14.1234C297.132 14.1234 297.132 14.1234 297.066 14.1234C296.869 14.0517 296.737 13.765 296.803 13.5499L298.384 8.96157C298.45 8.81819 298.582 8.6748 298.78 8.6748C298.912 8.6748 299.109 8.7465 299.175 8.96157L300.757 13.5499C300.823 13.765 300.757 14.0517 300.493 14.1234C300.427 14.1234 300.427 14.1234 300.361 14.1234C300.229 14.1234 300.032 14.0517 299.966 13.8367L299.636 12.833ZM299.373 11.9727L298.78 10.3237L298.187 11.9727H299.373Z" fill="#4D3107"/>
</g>
<g filter="url(#filter8_d_123_2)">
<path d="M359.735 1.86401C359.735 0.86031 360.526 0 361.448 0C362.371 0 363.096 0.716925 363.162 1.64893C363.162 1.79231 363.162 1.9357 363.162 2.07908C363.162 2.58093 363.096 3.15447 362.898 3.65632C362.7 4.15817 362.437 4.66002 361.976 4.94678C361.646 5.16186 361.317 5.30525 360.921 5.30525C360.723 5.30525 360.526 5.16186 360.526 4.87509C360.526 4.66002 360.658 4.44494 360.921 4.44494C361.185 4.44494 361.382 4.37324 361.58 4.22986C361.778 4.08647 361.91 3.94309 362.041 3.65632C362.107 3.58463 362.107 3.51293 362.107 3.44124C361.91 3.51293 361.646 3.58463 361.448 3.58463C360.46 3.72801 359.735 2.93939 359.735 1.86401ZM360.526 1.86401C360.526 2.43755 360.921 2.8677 361.448 2.8677C361.976 2.8677 362.371 2.43755 362.371 1.86401C362.371 1.29047 361.976 0.86031 361.448 0.86031C360.921 0.86031 360.526 1.29047 360.526 1.86401Z" fill="#4D3107"/>
<path d="M365.27 1.21875C365.534 1.21875 365.798 1.50552 365.798 1.79229C365.798 2.07906 365.534 2.36583 365.27 2.36583C365.007 2.36583 364.743 2.07906 364.743 1.79229C364.743 1.50552 364.941 1.21875 365.27 1.21875ZM365.27 4.30153C365.534 4.30153 365.798 4.5883 365.798 4.87507C365.798 5.16184 365.534 5.44861 365.27 5.44861C365.007 5.44861 364.743 5.16184 364.743 4.87507C364.743 4.5883 364.941 4.30153 365.27 4.30153Z" fill="#4D3107"/>
<path d="M366.588 2.72432C366.588 2.00739 366.786 1.36216 367.05 0.86031C367.379 0.358463 367.84 0 368.368 0C368.895 0 369.356 0.358463 369.686 0.86031C370.015 1.36216 370.147 2.00739 370.147 2.72432C370.147 3.44124 369.949 4.08647 369.686 4.58832C369.356 5.09017 368.895 5.44863 368.368 5.44863C367.774 5.44863 367.313 5.09017 367.05 4.58832C366.72 4.08647 366.588 3.44124 366.588 2.72432ZM369.356 2.72432C369.356 2.15078 369.224 1.64893 369.027 1.36216C368.829 1.0037 368.565 0.86031 368.368 0.86031C368.17 0.86031 367.906 1.0037 367.709 1.36216C367.511 1.72062 367.379 2.15078 367.379 2.72432C367.379 3.29786 367.511 3.7997 367.709 4.08647C367.906 4.44494 368.17 4.58832 368.368 4.58832C368.565 4.58832 368.829 4.44494 369.027 4.08647C369.224 3.72801 369.356 3.29786 369.356 2.72432Z" fill="#4D3107"/>
<path d="M371.926 2.72432C371.926 2.00739 372.124 1.36216 372.387 0.86031C372.717 0.358463 373.178 0 373.705 0C374.232 0 374.694 0.358463 375.023 0.86031C375.353 1.36216 375.485 2.00739 375.485 2.72432C375.485 3.44124 375.287 4.08647 375.023 4.58832C374.694 5.09017 374.232 5.44863 373.705 5.44863C373.112 5.44863 372.651 5.09017 372.387 4.58832C372.058 4.08647 371.926 3.44124 371.926 2.72432ZM374.694 2.72432C374.694 2.15078 374.562 1.64893 374.364 1.36216C374.167 1.0037 373.903 0.86031 373.705 0.86031C373.508 0.86031 373.244 1.0037 373.046 1.36216C372.849 1.72062 372.717 2.15078 372.717 2.72432C372.717 3.29786 372.849 3.7997 373.046 4.08647C373.244 4.44494 373.508 4.58832 373.705 4.58832C373.903 4.58832 374.167 4.44494 374.364 4.08647C374.562 3.72801 374.694 3.29786 374.694 2.72432Z" fill="#4D3107"/>
<path d="M381.613 3.29786H380.756V5.01848C380.756 5.23356 380.559 5.44863 380.361 5.44863C380.163 5.44863 379.966 5.23356 379.966 5.01848V0.430155C379.966 0.215078 380.163 0 380.361 0H381.613C382.47 0 383.129 0.716925 383.129 1.64893C383.129 2.58093 382.47 3.29786 381.613 3.29786ZM380.756 2.43755H381.613C382.008 2.43755 382.338 2.07908 382.338 1.64893C382.338 1.21877 382.008 0.86031 381.613 0.86031H380.756V2.43755Z" fill="#4D3107"/>
<path d="M388.664 0.430155V5.01848C388.664 5.23356 388.466 5.44863 388.269 5.44863C388.071 5.44863 387.873 5.23356 387.873 5.01848V1.72062L386.819 3.29786C386.753 3.44124 386.621 3.44124 386.489 3.44124C386.358 3.44124 386.226 3.36955 386.16 3.29786L385.171 1.72062V5.01848C385.171 5.23356 384.974 5.44863 384.776 5.44863C384.578 5.44863 384.381 5.23356 384.381 5.01848V0.430155C384.381 0.215078 384.578 0 384.776 0C384.908 0 385.04 0.0716925 385.106 0.143385L386.555 2.29416L388.005 0.143385C388.071 0 388.203 0 388.335 0C388.532 0 388.664 0.215078 388.664 0.430155Z" fill="#4D3107"/>
</g>
<g filter="url(#filter9_d_123_2)">
<path d="M356.967 11.9727H356.111V13.6216C356.111 13.8367 355.913 14.0518 355.715 14.0518C355.518 14.0518 355.32 13.8367 355.32 13.6216V9.0333C355.32 8.81823 355.518 8.60315 355.715 8.60315H356.967C357.824 8.60315 358.483 9.32007 358.483 10.2521C358.549 11.2558 357.824 11.9727 356.967 11.9727ZM356.111 11.1124H356.967C357.363 11.1124 357.692 10.7539 357.692 10.3238C357.692 9.89361 357.363 9.53515 356.967 9.53515H356.111V11.1124Z" fill="#4D3107"/>
<path d="M361.778 12.833H360.065L359.735 13.8367C359.669 13.9801 359.537 14.1234 359.34 14.1234C359.274 14.1234 359.274 14.1234 359.208 14.1234C359.01 14.0517 358.878 13.765 358.944 13.5499L360.526 8.96157C360.592 8.81819 360.723 8.6748 360.921 8.6748C361.053 8.6748 361.251 8.7465 361.317 8.96157L362.898 13.5499C362.964 13.765 362.898 14.0517 362.634 14.1234C362.569 14.1234 362.569 14.1234 362.503 14.1234C362.371 14.1234 362.173 14.0517 362.107 13.8367L361.778 12.833ZM361.514 11.9727L360.921 10.3237L360.328 11.9727H361.514Z" fill="#4D3107"/>
<path d="M367.445 13.4782C367.511 13.6933 367.379 13.9084 367.181 14.0518C367.181 14.0518 367.116 14.0518 367.05 14.0518C366.984 14.0518 366.852 14.0518 366.786 13.9801C366.72 13.9084 366.588 13.8367 366.588 13.6933C366.457 13.4782 366.457 13.1915 366.457 12.7613C366.457 12.6179 366.391 12.5462 366.391 12.4029C366.325 12.3312 366.259 12.2595 366.193 12.1878C366.061 12.0444 365.863 12.0444 365.798 11.9727H364.941V13.6216C364.941 13.8367 364.743 14.0518 364.546 14.0518C364.348 14.0518 364.15 13.8367 364.15 13.6216V9.0333C364.15 8.81823 364.348 8.60315 364.546 8.60315H365.798C366.654 8.60315 367.313 9.32007 367.313 10.2521C367.313 10.7539 367.116 11.1841 366.786 11.5425C366.852 11.6142 366.984 11.6859 367.05 11.8293C367.181 12.0444 367.313 12.3312 367.313 12.6896C367.313 12.9047 367.313 13.0481 367.313 13.1198C367.313 13.2632 367.379 13.3349 367.445 13.4782ZM366.457 10.3238C366.457 9.89361 366.127 9.53515 365.732 9.53515H364.875V11.1124H365.732C366.127 11.1124 366.457 10.7539 366.457 10.3238Z" fill="#4D3107"/>
<path d="M371.794 9.53512H370.674V13.6933C370.674 13.9084 370.476 14.1234 370.279 14.1234C370.081 14.1234 369.883 13.9084 369.883 13.6933V9.53512H368.763C368.565 9.53512 368.368 9.32004 368.368 9.10496C368.368 8.88988 368.565 8.6748 368.763 8.6748H371.794C371.992 8.6748 372.19 8.88988 372.19 9.10496C372.19 9.32004 371.992 9.53512 371.794 9.53512Z" fill="#4D3107"/>
<path d="M377.132 9.39173L375.682 11.5425V13.6216C375.682 13.8367 375.485 14.0517 375.287 14.0517C375.089 14.0517 374.891 13.8367 374.891 13.6216V11.5425L373.442 9.39173C373.31 9.17666 373.31 8.96158 373.508 8.81819C373.705 8.67481 373.903 8.7465 374.035 8.88988L375.221 10.6822L376.407 8.88988C376.539 8.67481 376.802 8.67481 376.934 8.81819C377.198 8.96158 377.264 9.17666 377.132 9.39173Z" fill="#4D3107"/>
<path d="M383.722 9.53512H382.601V13.6933C382.601 13.9084 382.404 14.1234 382.206 14.1234C382.008 14.1234 381.811 13.9084 381.811 13.6933V9.53512H380.69C380.493 9.53512 380.295 9.32004 380.295 9.10496C380.295 8.88988 380.493 8.6748 380.69 8.6748H383.722C383.919 8.6748 384.117 8.88988 384.117 9.10496C384.117 9.32004 383.919 9.53512 383.722 9.53512Z" fill="#4D3107"/>
<path d="M385.633 9.10496C385.633 8.88988 385.83 8.6748 386.028 8.6748C386.226 8.6748 386.424 8.88988 386.424 9.10496V13.6933C386.424 13.9084 386.226 14.1234 386.028 14.1234C385.83 14.1234 385.633 13.9084 385.633 13.6933V9.10496Z" fill="#4D3107"/>
<path d="M392.354 9.10496V13.6933C392.354 13.9084 392.157 14.1234 391.959 14.1234C391.761 14.1234 391.564 13.9084 391.564 13.6933V10.3954L390.509 11.9727C390.443 12.116 390.311 12.116 390.18 12.116C390.048 12.116 389.916 12.0444 389.85 11.9727L388.862 10.3954V13.6933C388.862 13.9084 388.664 14.1234 388.466 14.1234C388.269 14.1234 388.071 13.9084 388.071 13.6933V9.10496C388.071 8.88988 388.269 8.6748 388.466 8.6748C388.598 8.6748 388.73 8.7465 388.796 8.81819L390.246 10.969L391.695 8.81819C391.761 8.6748 391.893 8.6748 392.025 8.6748C392.157 8.6748 392.354 8.88988 392.354 9.10496Z" fill="#4D3107"/>
<path d="M394.002 13.6933V9.10496C394.002 8.88988 394.199 8.6748 394.397 8.6748H396.704C396.901 8.6748 397.099 8.88988 397.099 9.10496C397.099 9.32004 396.901 9.53512 396.704 9.53512H394.793V10.969H396.44C396.638 10.969 396.835 11.184 396.835 11.3991C396.835 11.6142 396.638 11.8293 396.44 11.8293H394.793V13.2631H396.704C396.901 13.2631 397.099 13.4782 397.099 13.6933C397.099 13.9084 396.901 14.1234 396.704 14.1234H394.397C394.134 14.1234 394.002 13.9084 394.002 13.6933Z" fill="#4D3107"/>
</g>
<path d="M0.329483 29.9675H416.671" stroke="#4D3107" stroke-miterlimit="10" stroke-linecap="round" stroke-linejoin="round"/>
<path d="M36.7709 33.7671C38.6997 33.7671 40.2634 32.0659 40.2634 29.9674C40.2634 27.8689 38.6997 26.1677 36.7709 26.1677C34.842 26.1677 33.2783 27.8689 33.2783 29.9674C33.2783 32.0659 34.842 33.7671 36.7709 33.7671Z" fill="#4D3107"/>
<path d="M121.383 33.7671C123.312 33.7671 124.876 32.0659 124.876 29.9674C124.876 27.8689 123.312 26.1677 121.383 26.1677C119.454 26.1677 117.891 27.8689 117.891 29.9674C117.891 32.0659 119.454 33.7671 121.383 33.7671Z" fill="#4D3107"/>
<path d="M205.996 33.7671C207.925 33.7671 209.488 32.0659 209.488 29.9674C209.488 27.8689 207.925 26.1677 205.996 26.1677C204.067 26.1677 202.503 27.8689 202.503 29.9674C202.503 32.0659 204.067 33.7671 205.996 33.7671Z" fill="#4D3107"/>
<path d="M290.608 33.7671C292.537 33.7671 294.101 32.0659 294.101 29.9674C294.101 27.8689 292.537 26.1677 290.608 26.1677C288.68 26.1677 287.116 27.8689 287.116 29.9674C287.116 32.0659 288.68 33.7671 290.608 33.7671Z" fill="#4D3107"/>
<path d="M375.221 33.7671C377.15 33.7671 378.714 32.0659 378.714 29.9674C378.714 27.8689 377.15 26.1677 375.221 26.1677C373.292 26.1677 371.728 27.8689 371.728 29.9674C371.728 32.0659 373.292 33.7671 375.221 33.7671Z" fill="#4D3107"/>
<path d="M127.314 96.6415H117.561V57.2823L122.438 47.0303L127.314 57.2823V96.6415Z" stroke="#4D3107" stroke-miterlimit="10"/>
<path d="M122.438 47.0303V38.9291" stroke="#4D3107" stroke-miterlimit="10"/>
<path d="M121.054 42.1553H123.822" stroke="#4D3107" stroke-miterlimit="10"/>
<path d="M123.822 75.8507H121.12V62.8027C121.12 60.6519 121.581 58.5728 122.372 56.7088L122.438 56.5654L122.504 56.7088C123.36 58.6445 123.756 60.7236 123.756 62.8027V75.8507H123.822Z" stroke="#4D3107" stroke-miterlimit="10"/>
<path d="M123.822 96.6416H121.12V92.7702C121.12 90.6194 121.581 88.5404 122.372 86.6763L122.438 86.533L122.504 86.6763C123.36 88.612 123.756 90.6911 123.756 92.7702V96.6416H123.822Z" stroke="#4D3107" stroke-miterlimit="10"/>
<path d="M122.438 84.4538C121.713 84.4538 121.054 83.8086 121.054 82.9483V80.439C121.054 79.6504 121.647 78.9335 122.438 78.9335C123.163 78.9335 123.822 79.5787 123.822 80.439V82.9483C123.822 83.8086 123.163 84.4538 122.438 84.4538Z" stroke="#4D3107" stroke-miterlimit="10"/>
<path d="M132.784 85.2424V83.02C132.784 82.2313 132.191 81.5144 131.4 81.5144C130.675 81.5144 130.016 82.1596 130.016 83.02V85.2424H132.784Z" stroke="#4D3107" stroke-miterlimit="10"/>
<path d="M130.675 96.6416H127.314V73.915H127.841C132.52 73.915 136.276 78.0015 136.276 83.0917V90.476C136.276 93.9173 133.772 96.6416 130.675 96.6416Z" stroke="#4D3107" stroke-miterlimit="10"/>
<path d="M112.092 85.2424V83.02C112.092 82.2313 112.685 81.5144 113.476 81.5144C114.201 81.5144 114.86 82.1596 114.86 83.02V85.2424H112.092Z" stroke="#4D3107" stroke-miterlimit="10"/>
<path d="M114.201 96.6416H117.561V73.915H117.034C112.355 73.915 108.599 78.0015 108.599 83.0917V90.476C108.533 93.9173 111.103 96.6416 114.201 96.6416Z" stroke="#4D3107" stroke-miterlimit="10"/>
<path d="M134.431 77.1412C134.826 76.6393 135.09 76.0658 135.288 75.4205L138.846 62.731" stroke="#4D3107" stroke-miterlimit="10" stroke-linecap="round" stroke-linejoin="round"/>
<path d="M135.683 74.6319C135.683 74.6319 137.858 69.0399 143.789 70.1153C143.854 70.1153 141.021 75.7073 135.683 74.6319Z" stroke="#4D3107" stroke-miterlimit="10" stroke-linecap="round" stroke-linejoin="round"/>
<path d="M138.649 63.2328C138.649 63.2328 140.494 57.4974 146.49 58.1427C146.49 58.1427 144.052 63.9498 138.649 63.2328Z" stroke="#4D3107" stroke-miterlimit="10" stroke-linecap="round" stroke-linejoin="round"/>
<path d="M136.342 70.0436C136.342 70.0436 130.873 68.5381 131.004 62.014C131.07 62.014 136.54 64.1648 136.342 70.0436Z" stroke="#4D3107" stroke-miterlimit="10" stroke-linecap="round" stroke-linejoin="round"/>
<path d="M109.192 93.5587C108.797 93.0569 108.467 92.4833 108.27 91.9098L104.118 79.4353" stroke="#4D3107" stroke-width="0.9962" stroke-miterlimit="10" stroke-linecap="round" stroke-linejoin="round"/>
<path d="M107.808 91.1929C107.808 91.1929 105.37 85.7443 99.5713 87.1781C99.5713 87.1781 102.603 92.5551 107.808 91.1929Z" stroke="#4D3107" stroke-width="0.9962" stroke-miterlimit="10" stroke-linecap="round" stroke-linejoin="round"/>
<path d="M104.316 79.9372C104.316 79.9372 102.207 74.2734 96.2764 75.3488C96.3423 75.3488 99.0441 81.0125 104.316 79.9372Z" stroke="#4D3107" stroke-width="0.9962" stroke-miterlimit="10" stroke-linecap="round" stroke-linejoin="round"/>
<path d="M297.387 83.5814C303.207 75.8199 302.142 64.3948 295.008 58.0628C287.874 51.7307 277.372 52.8896 271.552 60.6511C265.732 68.4126 266.797 79.8377 273.931 86.1698C281.065 92.5018 291.567 91.3429 297.387 83.5814Z" stroke="#4D3107" stroke-width="1.095" stroke-miterlimit="10" stroke-linecap="round" stroke-linejoin="round"/>
<path d="M297.378 74.2354C298.461 66.485 293.565 59.2462 286.441 58.0671C279.317 56.888 272.663 62.2151 271.58 69.9655C270.496 77.7158 275.392 84.9546 282.516 86.1337C289.64 87.3128 296.294 81.9857 297.378 74.2354Z" stroke="#4D3107" stroke-width="1.095" stroke-miterlimit="10" stroke-linecap="round" stroke-linejoin="round"/>
<path d="M309.653 55.1315V62.0857C309.653 62.3725 309.389 62.6592 309.126 62.6592C308.862 62.6592 308.598 62.3725 308.598 62.0857V55.1315C308.598 54.8448 308.335 54.558 308.071 54.558H307.676C307.412 54.558 307.149 54.8448 307.149 55.1315V62.0857C307.149 62.3725 306.885 62.6592 306.622 62.6592C306.358 62.6592 306.094 62.3725 306.094 62.0857V55.1315C306.094 54.8448 305.831 54.558 305.567 54.558H305.172C304.908 54.558 304.645 54.8448 304.645 55.1315V62.0857C304.645 62.3725 304.381 62.6592 304.117 62.6592C303.854 62.6592 303.59 62.3725 303.59 62.0857V55.1315C303.59 54.8448 303.327 54.558 303.063 54.558H302.931C302.668 54.558 302.404 54.8448 302.404 55.1315V63.3762C302.404 65.3836 303.59 67.1042 305.238 67.6777C305.435 67.7494 305.633 67.9645 305.633 68.2513V88.5402C305.633 89.1855 306.094 89.6156 306.622 89.6156C307.215 89.6156 307.61 89.1138 307.61 88.5402V68.2513C307.61 67.9645 307.742 67.7494 308.005 67.6777C309.653 67.0325 310.839 65.3836 310.839 63.3762V55.1315C310.839 54.8448 310.575 54.558 310.312 54.558H310.18C309.916 54.558 309.653 54.7731 309.653 55.1315Z" stroke="#4D3107" stroke-width="1.095" stroke-miterlimit="10" stroke-linecap="round" stroke-linejoin="round"/>
<path d="M280.131 81.9446C280.526 81.4428 280.856 80.8692 281.053 80.2957L285.205 67.8212" stroke="#4D3107" stroke-miterlimit="10" stroke-linecap="round" stroke-linejoin="round"/>
<path d="M281.515 79.5071C281.515 79.5071 283.953 73.9868 289.818 75.4923C289.818 75.4923 286.72 80.941 281.515 79.5071Z" stroke="#4D3107" stroke-miterlimit="10" stroke-linecap="round" stroke-linejoin="round"/>
<path d="M285.007 68.323C285.007 68.323 287.116 62.6593 293.047 63.7347C293.047 63.7347 290.345 69.3267 285.007 68.323Z" stroke="#4D3107" stroke-miterlimit="10" stroke-linecap="round" stroke-linejoin="round"/>
<path d="M282.371 74.9904C282.371 74.9904 277.034 73.1981 277.429 66.6741C277.495 66.6741 282.832 69.1116 282.371 74.9904Z" stroke="#4D3107" stroke-miterlimit="10" stroke-linecap="round" stroke-linejoin="round"/>
<path d="M201.449 66.1005C202.767 65.2402 203.821 65.2402 204.876 65.5269L206.721 52.4072L197.166 50.83L195.518 62.4441C195.914 62.2291 196.309 62.0857 196.638 62.014C199.736 61.2254 198.747 68.2512 201.449 66.1005Z" stroke="#4D3107" stroke-miterlimit="10"/>
<path d="M204.48 68.1796L204.876 65.527C203.887 65.1685 202.767 65.2402 201.449 66.1005C198.747 68.2513 199.736 61.2971 196.638 62.014C196.309 62.1574 195.914 62.3008 195.518 62.4442L194.925 66.5307C194.53 69.1833 196.045 71.6925 198.418 72.4094L196.507 85.9593C194.53 85.6726 193.014 85.8876 192.948 86.3178C192.882 86.8196 194.596 87.6083 196.836 87.9667C199.077 88.3252 200.922 88.1818 200.988 87.68C201.054 87.1781 199.604 86.5329 197.693 86.1744L199.604 72.6245C201.976 72.6962 204.085 70.8322 204.48 68.1796Z" stroke="#4D3107" stroke-miterlimit="10"/>
<path d="M215.222 70.2587C216.144 68.9682 217.198 68.538 218.253 68.4663L215.815 55.49L206.325 57.5691L208.5 69.1116C208.829 68.7531 209.159 68.4663 209.423 68.2513C212.058 66.3156 213.376 73.2697 215.222 70.2587Z" stroke="#4D3107" stroke-miterlimit="10"/>
<path d="M218.714 71.0472L218.253 68.3946C217.198 68.4663 216.144 68.8965 215.222 70.1869C213.376 73.198 212.058 66.3155 209.423 68.1795C209.159 68.3946 208.829 68.6814 208.5 69.0398L209.291 73.1263C209.752 75.7789 211.993 77.4996 214.431 77.2845L216.935 90.691C215.024 91.1928 213.64 91.9098 213.706 92.4116C213.772 92.9135 215.683 92.9852 217.857 92.4833C220.032 91.9815 221.745 91.1928 221.68 90.6193C221.614 90.1175 220.032 90.0458 218.121 90.4042L215.617 76.9977C217.792 76.2808 219.175 73.6999 218.714 71.0472Z" stroke="#4D3107" stroke-miterlimit="10"/>
<path d="M218.253 89.9741C218.78 89.6873 219.241 89.2571 219.637 88.6836L227.281 78.3599" stroke="#4D3107" stroke-miterlimit="10" stroke-linecap="round" stroke-linejoin="round"/>
<path d="M220.23 88.1817C220.23 88.1817 224.184 83.8802 229.324 87.3214C229.324 87.3214 224.777 91.4079 220.23 88.1817Z" stroke="#4D3107" stroke-miterlimit="10" stroke-linecap="round" stroke-linejoin="round"/>
<path d="M226.951 78.8618C226.951 78.8618 230.642 74.2735 235.979 77.3562C235.979 77.3562 231.696 81.7295 226.951 78.8618Z" stroke="#4D3107" stroke-miterlimit="10" stroke-linecap="round" stroke-linejoin="round"/>
<path d="M222.47 84.2387C222.47 84.2387 217.923 80.654 220.362 74.6319C220.296 74.5602 224.645 78.8617 222.47 84.2387Z" stroke="#4D3107" stroke-miterlimit="10" stroke-linecap="round" stroke-linejoin="round"/>
<path d="M193.805 86.8195C193.475 86.6044 193.146 86.3177 192.882 85.9592L187.874 79.2201" stroke="#4D3107" stroke-width="0.6572" stroke-miterlimit="10" stroke-linecap="round" stroke-linejoin="round"/>
<path d="M192.487 85.6725C192.487 85.6725 189.917 82.8048 186.49 85.0989C186.49 85.0989 189.456 87.7515 192.487 85.6725Z" stroke="#4D3107" stroke-width="0.6572" stroke-miterlimit="10" stroke-linecap="round" stroke-linejoin="round"/>
<path d="M188.072 79.5069C188.072 79.5069 185.634 76.4958 182.141 78.5749C182.141 78.5749 184.975 81.4426 188.072 79.5069Z" stroke="#4D3107" stroke-width="0.6572" stroke-miterlimit="10" stroke-linecap="round" stroke-linejoin="round"/>
<path d="M191.037 83.0915C191.037 83.0915 194.003 80.7257 192.421 76.7826C192.421 76.7109 189.587 79.5069 191.037 83.0915Z" stroke="#4D3107" stroke-width="0.6572" stroke-miterlimit="10" stroke-linecap="round" stroke-linejoin="round"/>
<path d="M360.13 60.7953C360.13 61.0103 359.933 61.2254 359.735 61.2254C359.537 61.2254 359.34 61.0103 359.34 60.7953C359.34 60.5802 359.537 60.3651 359.735 60.3651C359.933 60.3651 360.13 60.5802 360.13 60.7953Z" stroke="#4D3107" stroke-miterlimit="10"/>
<path d="M370.081 76.711C370.081 78.4316 367.906 79.7937 365.205 79.7937C362.503 79.7937 360.328 78.4316 360.328 76.711C360.328 74.9903 362.503 73.6282 365.205 73.6282C367.906 73.6282 370.081 74.9903 370.081 76.711Z" stroke="#4D3107" stroke-miterlimit="10"/>
<path d="M378.516 87.6083C381.209 87.6083 383.392 86.2281 383.392 84.5255C383.392 82.823 381.209 81.4427 378.516 81.4427C375.823 81.4427 373.639 82.823 373.639 84.5255C373.639 86.2281 375.823 87.6083 378.516 87.6083Z" stroke="#4D3107" stroke-miterlimit="10"/>
<path d="M370.081 76.711V57.0673L383.392 64.1648V83.8086" stroke="#4D3107" stroke-miterlimit="10"/>
<path d="M370.081 60.2217L383.392 67.3192" stroke="#4D3107" stroke-miterlimit="10"/>
<path d="M362.832 63.7347C362.832 65.312 361.646 66.6741 360.13 66.6741C361.58 66.6741 362.832 67.9646 362.832 69.6135C362.832 68.0363 364.018 66.6741 365.534 66.6741C364.018 66.6741 362.832 65.3837 362.832 63.7347Z" stroke="#4D3107" stroke-miterlimit="10"/>
<path d="M382.338 54.1279C382.338 55.7052 381.152 57.0673 379.636 57.0673C381.086 57.0673 382.338 58.3578 382.338 60.0067C382.338 58.4295 383.524 57.0673 385.04 57.0673C383.524 57.0673 382.338 55.7769 382.338 54.1279Z" stroke="#4D3107" stroke-miterlimit="10"/>
<path d="M363.623 57.0672C363.623 57.2823 363.425 57.4974 363.228 57.4974C363.03 57.4974 362.832 57.2823 362.832 57.0672C362.832 56.8522 363.03 56.6371 363.228 56.6371C363.491 56.6371 363.623 56.7805 363.623 57.0672Z" stroke="#4D3107" stroke-miterlimit="10"/>
<path d="M378.911 53.6977C378.911 53.9128 378.714 54.1279 378.516 54.1279C378.318 54.1279 378.12 53.9128 378.12 53.6977C378.12 53.4827 378.318 53.2676 378.516 53.2676C378.714 53.2676 378.911 53.4827 378.911 53.6977Z" stroke="#4D3107" stroke-miterlimit="10"/>
<path d="M387.412 62.2291C387.412 62.4442 387.214 62.6593 387.017 62.6593C386.819 62.6593 386.621 62.4442 386.621 62.2291C386.621 62.014 386.819 61.799 387.017 61.799C387.214 61.799 387.412 62.014 387.412 62.2291Z" stroke="#4D3107" stroke-miterlimit="10"/>
<path d="M378.516 69.6135C378.516 69.8286 378.318 70.0437 378.12 70.0437C377.923 70.0437 377.725 69.8286 377.725 69.6135C377.725 69.3984 377.923 69.1833 378.12 69.1833C378.318 69.1833 378.516 69.3267 378.516 69.6135Z" stroke="#4D3107" stroke-miterlimit="10"/>
<path d="M49.8186 91.1929H23.789C23.196 91.1929 22.6688 90.6911 22.6688 89.9741V74.4886C22.6688 73.8433 23.1301 73.2698 23.789 73.2698H49.8845C50.4776 73.2698 51.0047 73.7716 51.0047 74.4886V89.9741C50.9388 90.6911 50.4117 91.1929 49.8186 91.1929Z" stroke="#4D3107" stroke-miterlimit="10"/>
<path d="M29.2585 79.507H25.3047C24.9752 79.507 24.7775 79.2203 24.7775 78.9335V76.4242C24.7775 76.0658 25.0411 75.8507 25.3047 75.8507H29.2585C29.588 75.8507 29.7857 76.1375 29.7857 76.4242V78.9335C29.8516 79.2203 29.588 79.507 29.2585 79.507Z" stroke="#4D3107" stroke-miterlimit="10"/>
<path d="M36.7709 88.4685C39.646 88.4685 41.9768 85.9328 41.9768 82.8048C41.9768 79.6768 39.646 77.1411 36.7709 77.1411C33.8957 77.1411 31.565 79.6768 31.565 82.8048C31.565 85.9328 33.8957 88.4685 36.7709 88.4685Z" stroke="#4D3107" stroke-miterlimit="10"/>
<path d="M36.7709 86.8197C34.728 86.8197 33.0147 85.0274 33.0147 82.7332C33.0147 80.5107 34.6621 78.6467 36.7709 78.6467C38.8796 78.6467 40.527 80.439 40.527 82.7332C40.527 85.0274 38.8796 86.8197 36.7709 86.8197Z" stroke="#4D3107" stroke-miterlimit="10"/>
<path d="M42.8993 73.3415H30.6424L31.6309 70.6172H41.9768L42.8993 73.3415Z" stroke="#4D3107" stroke-miterlimit="10"/>
<path d="M48.0393 73.3415H45.6011V71.9793C45.6011 71.2624 46.1283 70.6172 46.8532 70.6172C47.5122 70.6172 48.1052 71.1907 48.1052 71.9793V73.3415H48.0393Z" stroke="#4D3107" stroke-miterlimit="10"/>
<path d="M41.845 68.8965H31.7626C31.3014 68.8965 30.9719 68.5381 30.9719 68.0362V63.5913C30.9719 63.0894 31.3014 62.731 31.7626 62.731H41.845C42.3063 62.731 42.6357 63.0894 42.6357 63.5913V68.0362C42.6357 68.5381 42.3063 68.8965 41.845 68.8965Z" stroke="#4D3107" stroke-miterlimit="10"/>
<path d="M30.906 66.1004H32.6852L34.0691 64.9534L35.5188 66.1004L36.8368 65.0251L38.1547 66.1004L39.5386 64.9534L40.8565 66.0288H42.6357" stroke="#4D3107" stroke-miterlimit="10"/>
<path d="M26.2272 65.1686L28.7314 65.312" stroke="#4D3107" stroke-miterlimit="10"/>
<path d="M26.6226 60.7236L29.0608 62.3726" stroke="#4D3107" stroke-miterlimit="10"/>
<path d="M29.7198 57.9993L30.9719 60.2934" stroke="#4D3107" stroke-miterlimit="10"/>
<path d="M109.669 2.09315C109.998 2.45161 110.13 2.95346 110.13 3.4553C110.13 3.95715 109.932 4.459 109.603 4.81746C109.273 5.17593 108.812 5.391 108.351 5.391C107.89 5.391 107.428 5.17593 107.099 4.81746C106.967 4.67408 106.967 4.38731 107.099 4.17223C107.231 4.02884 107.494 4.02884 107.692 4.17223C107.89 4.38731 108.087 4.459 108.351 4.459C108.614 4.459 108.812 4.38731 109.01 4.17223C109.208 3.95715 109.273 3.67038 109.273 3.4553C109.273 3.16853 109.208 2.95346 109.01 2.73838C108.812 2.5233 108.614 2.45161 108.351 2.45161C108.219 2.45161 108.153 2.37992 108.087 2.30822C107.956 2.16484 107.956 1.87807 108.087 1.66299L108.812 0.874373H107.626C107.428 0.874373 107.231 0.659295 107.231 0.444218C107.231 0.22914 107.428 0.0140627 107.626 0.0140627H109.735C109.998 -0.0576299 110.13 0.157448 110.13 0.372525C110.13 0.444218 110.13 0.51591 110.064 0.587603C110.064 0.659295 109.998 0.659296 109.998 0.730988L109.076 1.73468C109.339 1.80638 109.471 1.94976 109.669 2.09315Z" fill="#4D3107"/>
<path d="M116.603 2.15078C116.932 2.50924 117.13 3.01109 117.13 3.51293C117.13 4.01478 116.932 4.51663 116.603 4.87509C116.273 5.23356 115.812 5.44863 115.351 5.44863C114.89 5.44863 114.428 5.23356 114.099 4.87509C113.967 4.73171 113.967 4.44494 114.099 4.22986C114.231 4.08647 114.494 4.08647 114.692 4.22986C114.89 4.44494 115.087 4.51663 115.351 4.51663C115.614 4.51663 115.812 4.44494 116.01 4.22986C116.208 4.01478 116.273 3.72801 116.273 3.51293C116.273 3.22616 116.208 3.01109 116.01 2.79601C115.812 2.58093 115.614 2.50924 115.351 2.50924C115.219 2.50924 115.153 2.43755 115.087 2.36585C114.956 2.22247 114.956 1.9357 115.087 1.72062L115.812 0.932003H114.626C114.428 0.932003 114.231 0.716925 114.231 0.501848C114.231 0.215078 114.428 0 114.626 0H116.735C116.932 0 117.13 0.215078 117.13 0.430155C117.13 0.501848 117.13 0.57354 117.064 0.645233C117.064 0.716925 117.064 0.716925 116.998 0.788618L116.076 1.79231C116.273 1.86401 116.471 2.00739 116.603 2.15078Z" fill="#4D3107"/>
</g>
<defs>
<filter id="filter0_d_123_2" x="18.5699" y="0" width="35.9735" height="13.5203" filterUnits="userSpaceOnUse" color-interpolation-filters="sRGB">
<feFlood flood-opacity="0" result="BackgroundImageFix"/>
<feColorMatrix in="SourceAlpha" type="matrix" values="0 0 0 0 0 0 0 0 0 0 0 0 0 0 0 0 0 0 127 0" result="hardAlpha"/>
<feOffset dy="4"/>
<feGaussianBlur stdDeviation="2"/>
<feComposite in2="hardAlpha" operator="out"/>
<feColorMatrix type="matrix" values="0 0 0 0 0 0 0 0 0 0 0 0 0 0 0 0 0 0 0.25 0"/>
<feBlend mode="normal" in2="BackgroundImageFix" result="effect1_dropShadow_123_2"/>
<feBlend mode="normal" in="SourceGraphic" in2="effect1_dropShadow_123_2" result="shape"/>
</filter>
<filter id="filter1_d_123_2" x="11.2224" y="8.6748" width="51.7139" height="13.4486" filterUnits="userSpaceOnUse" color-interpolation-filters="sRGB">
<feFlood flood-opacity="0" result="BackgroundImageFix"/>
<feColorMatrix in="SourceAlpha" type="matrix" values="0 0 0 0 0 0 0 0 0 0 0 0 0 0 0 0 0 0 127 0" result="hardAlpha"/>
<feOffset dy="4"/>
<feGaussianBlur stdDeviation="2"/>
<feComposite in2="hardAlpha" operator="out"/>
<feColorMatrix type="matrix" values="0 0 0 0 0 0 0 0 0 0 0 0 0 0 0 0 0 0 0.25 0"/>
<feBlend mode="normal" in2="BackgroundImageFix" result="effect1_dropShadow_123_2"/>
<feBlend mode="normal" in="SourceGraphic" in2="effect1_dropShadow_123_2" result="shape"/>
</filter>
<filter id="filter2_d_123_2" x="107.433" y="0" width="31.9867" height="13.5203" filterUnits="userSpaceOnUse" color-interpolation-filters="sRGB">
<feFlood flood-opacity="0" result="BackgroundImageFix"/>
<feColorMatrix in="SourceAlpha" type="matrix" values="0 0 0 0 0 0 0 0 0 0 0 0 0 0 0 0 0 0 127 0" result="hardAlpha"/>
<feOffset dy="4"/>
<feGaussianBlur stdDeviation="2"/>
<feComposite in2="hardAlpha" operator="out"/>
<feColorMatrix type="matrix" values="0 0 0 0 0 0 0 0 0 0 0 0 0 0 0 0 0 0 0.25 0"/>
<feBlend mode="normal" in2="BackgroundImageFix" result="effect1_dropShadow_123_2"/>
<feBlend mode="normal" in="SourceGraphic" in2="effect1_dropShadow_123_2" result="shape"/>
</filter>
<filter id="filter3_d_123_2" x="95.3736" y="8.53137" width="51.7798" height="13.592" filterUnits="userSpaceOnUse" color-interpolation-filters="sRGB">
<feFlood flood-opacity="0" result="BackgroundImageFix"/>
<feColorMatrix in="SourceAlpha" type="matrix" values="0 0 0 0 0 0 0 0 0 0 0 0 0 0 0 0 0 0 127 0" result="hardAlpha"/>
<feOffset dy="4"/>
<feGaussianBlur stdDeviation="2"/>
<feComposite in2="hardAlpha" operator="out"/>
<feColorMatrix type="matrix" values="0 0 0 0 0 0 0 0 0 0 0 0 0 0 0 0 0 0 0.25 0"/>
<feBlend mode="normal" in2="BackgroundImageFix" result="effect1_dropShadow_123_2"/>
<feBlend mode="normal" in="SourceGraphic" in2="effect1_dropShadow_123_2" result="shape"/>
</filter>
<filter id="filter4_d_123_2" x="187.4" y="0" width="36.6984" height="13.5203" filterUnits="userSpaceOnUse" color-interpolation-filters="sRGB">
<feFlood flood-opacity="0" result="BackgroundImageFix"/>
<feColorMatrix in="SourceAlpha" type="matrix" values="0 0 0 0 0 0 0 0 0 0 0 0 0 0 0 0 0 0 127 0" result="hardAlpha"/>
<feOffset dy="4"/>
<feGaussianBlur stdDeviation="2"/>
<feComposite in2="hardAlpha" operator="out"/>
<feColorMatrix type="matrix" values="0 0 0 0 0 0 0 0 0 0 0 0 0 0 0 0 0 0 0.25 0"/>
<feBlend mode="normal" in2="BackgroundImageFix" result="effect1_dropShadow_123_2"/>
<feBlend mode="normal" in="SourceGraphic" in2="effect1_dropShadow_123_2" result="shape"/>
</filter>
<filter id="filter5_d_123_2" x="187.037" y="8.53137" width="38.3129" height="13.592" filterUnits="userSpaceOnUse" color-interpolation-filters="sRGB">
<feFlood flood-opacity="0" result="BackgroundImageFix"/>
<feColorMatrix in="SourceAlpha" type="matrix" values="0 0 0 0 0 0 0 0 0 0 0 0 0 0 0 0 0 0 127 0" result="hardAlpha"/>
<feOffset dy="4"/>
<feGaussianBlur stdDeviation="2"/>
<feComposite in2="hardAlpha" operator="out"/>
<feColorMatrix type="matrix" values="0 0 0 0 0 0 0 0 0 0 0 0 0 0 0 0 0 0 0.25 0"/>
<feBlend mode="normal" in2="BackgroundImageFix" result="effect1_dropShadow_123_2"/>
<feBlend mode="normal" in="SourceGraphic" in2="effect1_dropShadow_123_2" result="shape"/>
</filter>
<filter id="filter6_d_123_2" x="272.045" y="0" width="36.5996" height="13.4486" filterUnits="userSpaceOnUse" color-interpolation-filters="sRGB">
<feFlood flood-opacity="0" result="BackgroundImageFix"/>
<feColorMatrix in="SourceAlpha" type="matrix" values="0 0 0 0 0 0 0 0 0 0 0 0 0 0 0 0 0 0 127 0" result="hardAlpha"/>
<feOffset dy="4"/>
<feGaussianBlur stdDeviation="2"/>
<feComposite in2="hardAlpha" operator="out"/>
<feColorMatrix type="matrix" values="0 0 0 0 0 0 0 0 0 0 0 0 0 0 0 0 0 0 0.25 0"/>
<feBlend mode="normal" in2="BackgroundImageFix" result="effect1_dropShadow_123_2"/>
<feBlend mode="normal" in="SourceGraphic" in2="effect1_dropShadow_123_2" result="shape"/>
</filter>
<filter id="filter7_d_123_2" x="276.79" y="8.53137" width="27.9907" height="13.592" filterUnits="userSpaceOnUse" color-interpolation-filters="sRGB">
<feFlood flood-opacity="0" result="BackgroundImageFix"/>
<feColorMatrix in="SourceAlpha" type="matrix" values="0 0 0 0 0 0 0 0 0 0 0 0 0 0 0 0 0 0 127 0" result="hardAlpha"/>
<feOffset dy="4"/>
<feGaussianBlur stdDeviation="2"/>
<feComposite in2="hardAlpha" operator="out"/>
<feColorMatrix type="matrix" values="0 0 0 0 0 0 0 0 0 0 0 0 0 0 0 0 0 0 0.25 0"/>
<feBlend mode="normal" in2="BackgroundImageFix" result="effect1_dropShadow_123_2"/>
<feBlend mode="normal" in="SourceGraphic" in2="effect1_dropShadow_123_2" result="shape"/>
</filter>
<filter id="filter8_d_123_2" x="355.735" y="0" width="36.929" height="13.4486" filterUnits="userSpaceOnUse" color-interpolation-filters="sRGB">
<feFlood flood-opacity="0" result="BackgroundImageFix"/>
<feColorMatrix in="SourceAlpha" type="matrix" values="0 0 0 0 0 0 0 0 0 0 0 0 0 0 0 0 0 0 127 0" result="hardAlpha"/>
<feOffset dy="4"/>
<feGaussianBlur stdDeviation="2"/>
<feComposite in2="hardAlpha" operator="out"/>
<feColorMatrix type="matrix" values="0 0 0 0 0 0 0 0 0 0 0 0 0 0 0 0 0 0 0.25 0"/>
<feBlend mode="normal" in2="BackgroundImageFix" result="effect1_dropShadow_123_2"/>
<feBlend mode="normal" in="SourceGraphic" in2="effect1_dropShadow_123_2" result="shape"/>
</filter>
<filter id="filter9_d_123_2" x="351.32" y="8.60315" width="49.7791" height="13.5203" filterUnits="userSpaceOnUse" color-interpolation-filters="sRGB">
<feFlood flood-opacity="0" result="BackgroundImageFix"/>
<feColorMatrix in="SourceAlpha" type="matrix" values="0 0 0 0 0 0 0 0 0 0 0 0 0 0 0 0 0 0 127 0" result="hardAlpha"/>
<feOffset dy="4"/>
<feGaussianBlur stdDeviation="2"/>
<feComposite in2="hardAlpha" operator="out"/>
<feColorMatrix type="matrix" values="0 0 0 0 0 0 0 0 0 0 0 0 0 0 0 0 0 0 0.25 0"/>
<feBlend mode="normal" in2="BackgroundImageFix" result="effect1_dropShadow_123_2"/>
<feBlend mode="normal" in="SourceGraphic" in2="effect1_dropShadow_123_2" result="shape"/>
</filter>
<clipPath id="clip0_123_2">
<rect width="417" height="97" fill="white"/>
</clipPath>
</defs>
</svg>
