<svg width="282" height="70" viewBox="0 0 282 70" fill="none" xmlns="http://www.w3.org/2000/svg">
<mask id="path-1-inside-1_121_37" fill="white">
<path d="M3.34576 65.0565C33.362 61.596 44.642 15.0282 68.5403 3.06497L68.7315 2.9661C57.7383 2.17514 46.8407 1.18644 36.7078 1.18644C23.4203 1.18644 12.5227 2.9661 3.82373 10.3814C4.11051 10.4802 4.2061 10.7768 4.2061 11.0734C4.2061 11.4689 4.01492 12.0621 3.53695 12.6554C2.67661 13.6441 1.4339 14.435 0.573559 14.435C0.191186 14.435 0 14.2373 0 13.7429C0 13.0508 0.764746 12.0621 1.33831 11.4689C10.4197 2.37288 23.9939 0 39.48 0C50.76 0 58.0251 0.88983 71.2169 1.77966C72.0773 1.48305 72.9376 1.18644 74.4671 0.88983L74.5627 1.08757C73.9892 1.28531 73.4156 1.58192 72.842 1.87853C79.6292 2.37288 86.4163 2.76836 93.0122 2.76836C99.2258 2.76836 105.248 2.37288 111.079 1.48305L111.271 2.27401C105.726 3.16384 99.7993 3.55932 93.7769 3.55932L89.5708 3.46045L90.5268 3.55932C84.0264 3.55932 77.5261 3.26271 70.9302 2.9661C47.5098 16.8079 37.9505 64.2655 3.34576 65.3531V65.0565Z"/>
</mask>
<path d="M3.34576 65.0565C33.362 61.596 44.642 15.0282 68.5403 3.06497L68.7315 2.9661C57.7383 2.17514 46.8407 1.18644 36.7078 1.18644C23.4203 1.18644 12.5227 2.9661 3.82373 10.3814C4.11051 10.4802 4.2061 10.7768 4.2061 11.0734C4.2061 11.4689 4.01492 12.0621 3.53695 12.6554C2.67661 13.6441 1.4339 14.435 0.573559 14.435C0.191186 14.435 0 14.2373 0 13.7429C0 13.0508 0.764746 12.0621 1.33831 11.4689C10.4197 2.37288 23.9939 0 39.48 0C50.76 0 58.0251 0.88983 71.2169 1.77966C72.0773 1.48305 72.9376 1.18644 74.4671 0.88983L74.5627 1.08757C73.9892 1.28531 73.4156 1.58192 72.842 1.87853C79.6292 2.37288 86.4163 2.76836 93.0122 2.76836C99.2258 2.76836 105.248 2.37288 111.079 1.48305L111.271 2.27401C105.726 3.16384 99.7993 3.55932 93.7769 3.55932L89.5708 3.46045L90.5268 3.55932C84.0264 3.55932 77.5261 3.26271 70.9302 2.9661C47.5098 16.8079 37.9505 64.2655 3.34576 65.3531V65.0565Z" fill="#4D3107" stroke="#4D3107" stroke-width="2" mask="url(#path-1-inside-1_121_37)"/>
<mask id="path-2-inside-2_121_37" fill="white">
<path d="M47.8922 45.9745C47.9878 43.8983 53.7234 32.5282 55.8264 32.5282C56.0176 32.5282 56.1132 32.6271 56.1132 32.9237C56.1132 33.6158 55.1573 35.0988 54.2969 35.4943C52.0983 38.8559 50.1864 42.8107 50.0908 44.7881C50.0908 46.2712 51.238 46.8644 52.863 46.8644C59.9369 46.5678 70.6434 40.6356 75.7098 37.4717L76.379 38.0649C67.7756 43.3051 56.9736 48.7429 51.4291 48.7429C49.2305 48.7429 47.8922 47.9519 47.8922 45.9745ZM56.2088 30.8474C56.2088 30.2542 56.9736 29.3644 57.6427 29.3644C58.2163 29.3644 58.5986 29.5621 58.5986 29.8587C58.5986 30.0565 58.4075 30.2542 58.2163 30.4519C57.5471 30.9463 57.5471 31.2429 56.7824 31.2429C56.4 31.2429 56.2088 31.0452 56.2088 30.8474Z"/>
</mask>
<path d="M47.8922 45.9745C47.9878 43.8983 53.7234 32.5282 55.8264 32.5282C56.0176 32.5282 56.1132 32.6271 56.1132 32.9237C56.1132 33.6158 55.1573 35.0988 54.2969 35.4943C52.0983 38.8559 50.1864 42.8107 50.0908 44.7881C50.0908 46.2712 51.238 46.8644 52.863 46.8644C59.9369 46.5678 70.6434 40.6356 75.7098 37.4717L76.379 38.0649C67.7756 43.3051 56.9736 48.7429 51.4291 48.7429C49.2305 48.7429 47.8922 47.9519 47.8922 45.9745ZM56.2088 30.8474C56.2088 30.2542 56.9736 29.3644 57.6427 29.3644C58.2163 29.3644 58.5986 29.5621 58.5986 29.8587C58.5986 30.0565 58.4075 30.2542 58.2163 30.4519C57.5471 30.9463 57.5471 31.2429 56.7824 31.2429C56.4 31.2429 56.2088 31.0452 56.2088 30.8474Z" fill="#4D3107" stroke="#4D3107" stroke-width="2" mask="url(#path-2-inside-2_121_37)"/>
<mask id="path-3-inside-3_121_37" fill="white">
<path d="M71.5037 48.2486C72.0773 45.8757 73.2244 42.7118 74.6583 40.0423C75.2319 38.8559 80.7763 29.3644 82.3058 29.3644C82.4969 29.3644 82.6881 29.661 82.6881 30.0565C82.6881 31.144 81.3498 33.2203 80.3939 33.4181L75.1363 43.4039C81.9234 34.6045 84.122 32.726 85.5559 32.726C86.3207 32.726 86.6074 33.2203 86.6074 34.4068C86.6074 36.1864 85.9383 38.9548 85.9383 40.7344C85.9383 41.822 86.0339 42.0197 86.5119 42.3164C88.1369 42.3164 93.2034 35.6921 95.5932 35.6921C96.0712 35.7909 96.358 36.0875 96.358 36.5819C96.1668 37.8672 95.88 38.4604 95.88 39.3503C95.88 41.3277 97.0271 42.0197 98.5566 42.0197C101.807 42.0197 106.873 38.8559 107.447 37.8672L108.116 38.0649C106.3 40.0423 101.424 42.613 97.983 42.613C95.5932 42.613 94.5417 41.5254 94.5417 40.339C94.5417 39.2514 95.3064 37.8672 95.3064 37.0762C95.2108 36.6808 95.402 36.7796 95.0197 36.5819C93.7769 36.5819 88.6149 43.4039 85.6515 43.6017C84.3132 43.6017 83.6441 42.5141 83.5485 40.7344C83.5485 38.757 84.7912 35.3955 84.7912 34.3079C84.7912 34.1101 84.7912 34.0113 84.6 34.0113C83.2617 34.7034 82.3058 35.9887 80.0115 38.757C78.0996 41.031 75.6142 44.1949 72.4597 48.3474C72.3641 48.4463 72.1729 48.5452 71.9817 48.5452C71.6949 48.5452 71.5037 48.5452 71.5037 48.2486Z"/>
</mask>
<path d="M71.5037 48.2486C72.0773 45.8757 73.2244 42.7118 74.6583 40.0423C75.2319 38.8559 80.7763 29.3644 82.3058 29.3644C82.4969 29.3644 82.6881 29.661 82.6881 30.0565C82.6881 31.144 81.3498 33.2203 80.3939 33.4181L75.1363 43.4039C81.9234 34.6045 84.122 32.726 85.5559 32.726C86.3207 32.726 86.6074 33.2203 86.6074 34.4068C86.6074 36.1864 85.9383 38.9548 85.9383 40.7344C85.9383 41.822 86.0339 42.0197 86.5119 42.3164C88.1369 42.3164 93.2034 35.6921 95.5932 35.6921C96.0712 35.7909 96.358 36.0875 96.358 36.5819C96.1668 37.8672 95.88 38.4604 95.88 39.3503C95.88 41.3277 97.0271 42.0197 98.5566 42.0197C101.807 42.0197 106.873 38.8559 107.447 37.8672L108.116 38.0649C106.3 40.0423 101.424 42.613 97.983 42.613C95.5932 42.613 94.5417 41.5254 94.5417 40.339C94.5417 39.2514 95.3064 37.8672 95.3064 37.0762C95.2108 36.6808 95.402 36.7796 95.0197 36.5819C93.7769 36.5819 88.6149 43.4039 85.6515 43.6017C84.3132 43.6017 83.6441 42.5141 83.5485 40.7344C83.5485 38.757 84.7912 35.3955 84.7912 34.3079C84.7912 34.1101 84.7912 34.0113 84.6 34.0113C83.2617 34.7034 82.3058 35.9887 80.0115 38.757C78.0996 41.031 75.6142 44.1949 72.4597 48.3474C72.3641 48.4463 72.1729 48.5452 71.9817 48.5452C71.6949 48.5452 71.5037 48.5452 71.5037 48.2486Z" fill="#4D3107" stroke="#4D3107" stroke-width="2" mask="url(#path-3-inside-3_121_37)"/>
<mask id="path-4-inside-4_121_37" fill="white">
<path d="M109.932 43.9972C107.064 43.9972 106.3 42.8107 106.108 41.2288C106.108 40.0424 106.969 38.3616 108.212 37.3729V37.274C109.645 35.791 110.984 35.0989 111.748 35.0989C112.513 35.0989 112.513 35.2966 112.609 35.9887C112.609 37.274 110.888 39.7458 108.116 40.8333C108.594 41.822 109.741 42.613 111.653 42.613C115.094 42.613 119.587 39.9435 122.455 38.065L122.933 38.7571C117.102 42.4153 113.087 43.7994 110.601 43.9972H109.932ZM111.557 35.9887H111.462C110.601 35.9887 108.307 37.9661 108.02 39.6469V39.9435C110.315 38.9548 111.557 36.7797 111.557 35.9887Z"/>
</mask>
<path d="M109.932 43.9972C107.064 43.9972 106.3 42.8107 106.108 41.2288C106.108 40.0424 106.969 38.3616 108.212 37.3729V37.274C109.645 35.791 110.984 35.0989 111.748 35.0989C112.513 35.0989 112.513 35.2966 112.609 35.9887C112.609 37.274 110.888 39.7458 108.116 40.8333C108.594 41.822 109.741 42.613 111.653 42.613C115.094 42.613 119.587 39.9435 122.455 38.065L122.933 38.7571C117.102 42.4153 113.087 43.7994 110.601 43.9972H109.932ZM111.557 35.9887H111.462C110.601 35.9887 108.307 37.9661 108.02 39.6469V39.9435C110.315 38.9548 111.557 36.7797 111.557 35.9887Z" fill="#4D3107" stroke="#4D3107" stroke-width="2" mask="url(#path-4-inside-4_121_37)"/>
<mask id="path-5-inside-5_121_37" fill="white">
<path d="M206.29 56.6525C201.033 55.9604 196.253 55.565 192.047 55.4661C189.083 58.3333 176.083 69.1102 168.435 69.1102C164.898 69.1102 162.604 67.2316 162.604 64.7599C162.604 60.6073 169.869 55.0706 188.605 54.6751C202.562 40.1412 215.085 19.2796 232.196 8.60168C218.335 8.60168 201.797 4.2514 183.157 4.2514C169.965 4.2514 156.295 6.52541 143.103 14.5339C143.39 14.6328 143.485 14.8305 143.485 15.0282C143.485 16.1158 140.713 17.9943 139.279 17.9943C138.706 17.8955 138.419 17.8955 138.419 17.4011C138.419 16.9068 138.993 16.1158 140.14 15.4237C154.192 6.03106 169.009 3.46044 183.157 3.46044C201.797 3.46044 218.526 7.81072 231.336 7.81072L233.63 7.71185C241.373 3.16383 249.02 1.58191 253.418 1.58191C255.999 1.58191 257.433 2.07626 257.433 2.86722C257.433 4.35027 252.557 6.92089 237.836 8.2062C220.916 18.6864 207.533 40.1412 192.812 54.6751C196.922 54.774 201.511 55.1695 206.481 55.8616C224.166 58.2345 251.984 69.209 269.764 69.209C272.823 69.209 275.691 68.9124 278.081 68.1215L278.463 68.8135C275.882 69.6045 272.919 70 269.573 70C251.601 70 223.879 59.0254 206.29 56.6525ZM187.841 55.4661C171.399 55.9604 164.038 60.5085 164.038 64.661C164.038 66.4407 165.567 67.9237 168.244 67.9237C175.892 67.3305 185.355 58.0367 187.841 55.4661ZM255.712 3.16383C255.712 2.86722 255.138 2.66948 254.087 2.66948C251.315 2.66948 245.292 3.95479 239.461 7.31637C251.41 6.03106 255.712 3.95479 255.712 3.16383Z"/>
</mask>
<path d="M206.29 56.6525C201.033 55.9604 196.253 55.565 192.047 55.4661C189.083 58.3333 176.083 69.1102 168.435 69.1102C164.898 69.1102 162.604 67.2316 162.604 64.7599C162.604 60.6073 169.869 55.0706 188.605 54.6751C202.562 40.1412 215.085 19.2796 232.196 8.60168C218.335 8.60168 201.797 4.2514 183.157 4.2514C169.965 4.2514 156.295 6.52541 143.103 14.5339C143.39 14.6328 143.485 14.8305 143.485 15.0282C143.485 16.1158 140.713 17.9943 139.279 17.9943C138.706 17.8955 138.419 17.8955 138.419 17.4011C138.419 16.9068 138.993 16.1158 140.14 15.4237C154.192 6.03106 169.009 3.46044 183.157 3.46044C201.797 3.46044 218.526 7.81072 231.336 7.81072L233.63 7.71185C241.373 3.16383 249.02 1.58191 253.418 1.58191C255.999 1.58191 257.433 2.07626 257.433 2.86722C257.433 4.35027 252.557 6.92089 237.836 8.2062C220.916 18.6864 207.533 40.1412 192.812 54.6751C196.922 54.774 201.511 55.1695 206.481 55.8616C224.166 58.2345 251.984 69.209 269.764 69.209C272.823 69.209 275.691 68.9124 278.081 68.1215L278.463 68.8135C275.882 69.6045 272.919 70 269.573 70C251.601 70 223.879 59.0254 206.29 56.6525ZM187.841 55.4661C171.399 55.9604 164.038 60.5085 164.038 64.661C164.038 66.4407 165.567 67.9237 168.244 67.9237C175.892 67.3305 185.355 58.0367 187.841 55.4661ZM255.712 3.16383C255.712 2.86722 255.138 2.66948 254.087 2.66948C251.315 2.66948 245.292 3.95479 239.461 7.31637C251.41 6.03106 255.712 3.95479 255.712 3.16383Z" fill="#4D3107" stroke="#4D3107" stroke-width="2" mask="url(#path-5-inside-5_121_37)"/>
<mask id="path-6-inside-6_121_37" fill="white">
<path d="M215.18 45.9745C215.276 43.8983 221.012 32.5282 223.115 32.5282C223.306 32.5282 223.401 32.6271 223.401 32.9237C223.401 33.6158 222.445 35.0988 221.585 35.4943C219.386 38.8559 217.475 42.8107 217.379 44.7881C217.379 46.2712 218.526 46.8644 220.151 46.8644C227.225 46.5678 237.932 40.6356 242.998 37.4717L243.667 38.0649C235.064 43.3051 224.262 48.7429 218.717 48.7429C216.519 48.7429 215.18 47.9519 215.18 45.9745ZM223.497 30.8474C223.497 30.2542 224.262 29.3644 224.931 29.3644C225.504 29.3644 225.887 29.5621 225.887 29.8587C225.887 30.0565 225.696 30.2542 225.504 30.4519C224.835 30.9463 224.835 31.2429 224.071 31.2429C223.688 31.2429 223.497 31.0452 223.497 30.8474Z"/>
</mask>
<path d="M215.18 45.9745C215.276 43.8983 221.012 32.5282 223.115 32.5282C223.306 32.5282 223.401 32.6271 223.401 32.9237C223.401 33.6158 222.445 35.0988 221.585 35.4943C219.386 38.8559 217.475 42.8107 217.379 44.7881C217.379 46.2712 218.526 46.8644 220.151 46.8644C227.225 46.5678 237.932 40.6356 242.998 37.4717L243.667 38.0649C235.064 43.3051 224.262 48.7429 218.717 48.7429C216.519 48.7429 215.18 47.9519 215.18 45.9745ZM223.497 30.8474C223.497 30.2542 224.262 29.3644 224.931 29.3644C225.504 29.3644 225.887 29.5621 225.887 29.8587C225.887 30.0565 225.696 30.2542 225.504 30.4519C224.835 30.9463 224.835 31.2429 224.071 31.2429C223.688 31.2429 223.497 31.0452 223.497 30.8474Z" fill="#4D3107" stroke="#4D3107" stroke-width="2" mask="url(#path-6-inside-6_121_37)"/>
<mask id="path-7-inside-7_121_37" fill="white">
<path d="M239.461 46.4689C239.461 43.7006 244.432 35.6921 246.153 33.2204C246.535 32.3305 247.3 31.8362 247.778 31.8362C248.064 31.8362 248.256 31.9351 248.256 32.4294C248.256 33.4181 247.013 35.3955 246.153 35.791L241.373 45.5791C244.527 41.8221 248.256 37.7684 251.601 37.5706C255.234 37.5706 255.234 44.0961 256.763 44.9859L257.433 45.1836C260.109 45.1836 265.558 39.0537 266.418 37.8673L267.183 38.065C265.367 40.5367 260.683 45.9746 256.285 46.3701C254.087 46.3701 253.896 44.4915 253.609 42.4153C253.322 40.339 252.94 38.3616 251.41 38.3616C250.645 38.3616 249.498 38.9548 247.873 40.2401C246.057 41.7232 244.241 43.7006 242.807 45.1836C242.424 45.5791 240.99 47.4576 240.226 47.4576C239.748 47.4576 239.461 47.161 239.461 46.4689Z"/>
</mask>
<path d="M239.461 46.4689C239.461 43.7006 244.432 35.6921 246.153 33.2204C246.535 32.3305 247.3 31.8362 247.778 31.8362C248.064 31.8362 248.256 31.9351 248.256 32.4294C248.256 33.4181 247.013 35.3955 246.153 35.791L241.373 45.5791C244.527 41.8221 248.256 37.7684 251.601 37.5706C255.234 37.5706 255.234 44.0961 256.763 44.9859L257.433 45.1836C260.109 45.1836 265.558 39.0537 266.418 37.8673L267.183 38.065C265.367 40.5367 260.683 45.9746 256.285 46.3701C254.087 46.3701 253.896 44.4915 253.609 42.4153C253.322 40.339 252.94 38.3616 251.41 38.3616C250.645 38.3616 249.498 38.9548 247.873 40.2401C246.057 41.7232 244.241 43.7006 242.807 45.1836C242.424 45.5791 240.99 47.4576 240.226 47.4576C239.748 47.4576 239.461 47.161 239.461 46.4689Z" fill="#4D3107" stroke="#4D3107" stroke-width="2" mask="url(#path-7-inside-7_121_37)"/>
<mask id="path-8-inside-8_121_37" fill="white">
<path d="M268.999 43.9972C266.132 43.9972 265.367 42.8107 265.176 41.2288C265.176 40.0424 266.036 38.3616 267.279 37.3729V37.274C268.713 35.791 270.051 35.0989 270.816 35.0989C271.58 35.0989 271.58 35.2966 271.676 35.9887C271.676 37.274 269.955 39.7458 267.183 40.8333C267.661 41.822 268.808 42.613 270.72 42.613C274.161 42.613 278.654 39.9435 281.522 38.065L282 38.7571C276.169 42.4153 272.154 43.7994 269.668 43.9972H268.999ZM270.624 35.9887H270.529C269.668 35.9887 267.374 37.9661 267.087 39.6469V39.9435C269.382 38.9548 270.624 36.7797 270.624 35.9887Z"/>
</mask>
<path d="M268.999 43.9972C266.132 43.9972 265.367 42.8107 265.176 41.2288C265.176 40.0424 266.036 38.3616 267.279 37.3729V37.274C268.713 35.791 270.051 35.0989 270.816 35.0989C271.58 35.0989 271.58 35.2966 271.676 35.9887C271.676 37.274 269.955 39.7458 267.183 40.8333C267.661 41.822 268.808 42.613 270.72 42.613C274.161 42.613 278.654 39.9435 281.522 38.065L282 38.7571C276.169 42.4153 272.154 43.7994 269.668 43.9972H268.999ZM270.624 35.9887H270.529C269.668 35.9887 267.374 37.9661 267.087 39.6469V39.9435C269.382 38.9548 270.624 36.7797 270.624 35.9887Z" fill="#4D3107" stroke="#4D3107" stroke-width="2" mask="url(#path-8-inside-8_121_37)"/>
</svg>
