<svg width="289" height="64" viewBox="0 0 289 64" fill="none" xmlns="http://www.w3.org/2000/svg">
<g filter="url(#filter0_d_168_221)">
<path d="M4 47.1533C4 43.6319 8.23662 39.7668 16.7098 37.7914C22.0705 24.6503 36.6825 5.23923 44.8098 1.3742C45.3286 1.11653 45.7609 1.03064 46.1068 1.03064C46.4526 1.03064 46.6255 1.20242 46.6255 1.63187C46.6255 2.57665 45.4151 4.38033 44.0317 5.32512C41.4378 6.95702 34.9532 14.1717 28.9009 22.3313C45.4151 10.4785 55.8769 6.2699 63.3991 6.09812C69.1055 6.09812 71.6994 9.19015 71.6994 13.7423C71.6994 22.9325 60.8917 38.3067 43.9452 46.5521C33.0511 51.8773 23.8862 53.8527 17.1422 53.8527C8.32308 53.8527 4.08646 50.6748 4 47.1533ZM70.316 13.227C70.316 11.5951 69.7972 10.1349 68.7597 9.01837C67.5492 7.73003 66.0794 6.78524 63.0532 6.78524C55.8769 6.95702 44.7234 11.8527 28.5551 23.6196L28.2092 23.3619C24.8372 28.0859 21.6382 32.9816 19.4766 37.276C20.9465 37.1043 22.5892 37.0184 24.232 37.0184C28.4686 37.0184 33.0511 37.8773 37.3742 40.0245H37.2877C37.8065 40.2822 38.1523 40.5398 38.1523 40.7975C38.1523 41.1411 37.9794 41.227 37.3742 41.227C36.1637 41.227 34.0886 40.3681 34.0886 39.681C34.0886 39.5951 34.1751 39.5951 34.2615 39.5092C30.8895 38.3067 27.4311 37.7055 24.232 37.7055C22.4163 37.7055 20.6871 37.7914 19.1308 38.049C17.5745 41.3129 16.5369 44.2331 16.5369 46.4662C16.5369 49.0429 17.8338 50.5889 21.0329 50.5889C20.4277 50.7607 19.736 50.8466 19.1308 50.8466C16.1911 50.6748 14.4618 49.9018 14.4618 46.3803C14.4618 44.4908 15.0671 42.0859 16.1046 39.3374C16.1911 39.0797 16.2775 38.8221 16.4505 38.5644C8.75538 40.5398 4.95108 43.9754 4.95108 47.1533C5.124 51.0184 11.0034 53.2515 17.4015 53.2515C41.9566 53.2515 70.316 26.454 70.316 13.227Z" fill="#4D3107"/>
<path d="M65.4742 46.4662C65.4742 43.7177 68.9326 37.7055 68.9326 35.5582C68.9326 35.0429 68.7597 34.7852 68.4138 34.6993C67.7222 34.5276 67.4628 34.2699 67.4628 33.9263C67.4628 32.5521 72.2182 29.8895 73.1692 29.8895C73.3422 29.8895 73.3422 29.8895 73.3422 30.0613C73.3422 30.6625 71.2671 32.2085 70.316 32.3803C70.0566 32.638 69.8837 32.8957 69.8837 33.0674C69.8837 33.3251 70.0566 33.411 70.4889 33.4969C71.3535 33.5828 71.6994 34.0981 71.6994 34.957C71.6994 37.7055 67.4628 43.8036 67.4628 45.865C67.4628 46.3803 67.7222 46.638 68.1545 46.638C69.7972 46.638 75.0714 43.2024 87.8677 32.9816L88.5594 33.411C75.0714 44.2331 69.0191 47.8404 66.6846 47.8404C65.82 47.8404 65.4742 47.3251 65.4742 46.4662Z" fill="#4D3107"/>
<path d="M90.2022 38.4785C87.6083 38.4785 86.9166 37.4478 86.7437 36.0736C86.7437 35.0429 87.5218 33.5828 88.6458 32.7239V32.638C89.9428 31.3496 91.1532 30.7484 91.8449 30.7484C92.5366 30.7484 92.5366 30.9202 92.6231 31.5214C92.6231 32.638 91.0668 34.7852 88.5594 35.73C88.9917 36.5889 90.0292 37.276 91.7585 37.276C94.8711 37.276 98.9348 34.957 101.529 33.3251L101.961 33.9263C96.6868 37.1042 93.0554 38.3067 90.8074 38.4785H90.2022ZM91.672 31.5214H91.5855C90.8074 31.5214 88.7323 33.2392 88.4729 34.6993V34.957C90.548 34.0981 91.672 32.2085 91.672 31.5214Z" fill="#4D3107"/>
<path d="M85.4468 50.4171L85.5332 50.1595C85.9655 46.638 96.6003 41.3987 104.901 37.6196C103.863 35.4723 101.356 34.3558 101.356 32.8098C101.356 31.2638 102.912 30.2331 104.728 29.8895C105.16 29.8895 105.506 30.0613 105.506 30.4049C105.333 31.2638 104.987 31.7791 102.566 33.4969C103.085 34.4417 105.16 35.6441 106.457 36.9325C111.558 34.7852 115.535 33.2392 115.535 33.2392L115.881 33.8404C115.881 33.8404 111.904 35.3006 106.976 37.4478C107.84 38.5644 108.1 39.4233 108.1 40.5398C107.84 46.8098 94.7846 52.049 88.9917 52.049C86.7437 51.9631 85.7926 51.6196 85.4468 50.4171ZM105.419 40.1963C105.419 39.5092 105.333 38.822 105.16 38.3067C96.5138 42.1717 87.0031 47.3251 87.0031 50.0736C87.0031 50.5889 87.3489 50.8466 88.3 50.9325H88.8188C93.5742 50.9325 104.901 45.7791 105.419 40.1963ZM104.468 30.6625C103.517 30.8343 102.307 31.3497 102.307 32.8098C103.95 31.5214 104.382 31.092 104.468 30.6625Z" fill="#4D3107"/>
<path d="M99.3671 50.4171L99.4535 50.1595C99.8858 46.638 110.521 41.3987 118.821 37.6196C117.783 35.4723 115.276 34.3558 115.276 32.8098C115.276 31.2638 116.832 30.2331 118.648 29.8895C119.08 29.8895 119.426 30.0613 119.426 30.4049C119.253 31.2638 118.907 31.7791 116.486 33.4969C117.005 34.4417 119.08 35.6441 120.377 36.9325C125.478 34.7852 129.456 33.2392 129.456 33.2392L129.802 33.8404C129.802 33.8404 125.824 35.3006 120.896 37.4478C121.761 38.5644 122.02 39.4233 122.02 40.5398C121.761 46.8098 108.705 52.049 102.912 52.049C100.664 51.9631 99.7129 51.6196 99.3671 50.4171ZM119.34 40.1963C119.34 39.5092 119.253 38.822 119.08 38.3067C110.434 42.1717 100.923 47.3251 100.923 50.0736C100.923 50.5889 101.269 50.8466 102.22 50.9325H102.739C107.494 50.9325 118.821 45.7791 119.34 40.1963ZM118.389 30.6625C117.438 30.8343 116.227 31.3497 116.227 32.8098C117.87 31.5214 118.302 31.092 118.389 30.6625Z" fill="#4D3107"/>
<path d="M175.713 47.4969C175.799 39.681 184.618 24.9939 197.155 13.3988L197.242 13.3129C188.682 11.2515 180.727 9.8773 172.254 9.8773C164.991 9.8773 157.21 10.908 148.304 13.4847C148.564 13.5706 148.477 13.4847 148.564 13.7423C148.564 14.3436 146.662 15.0307 145.192 15.0307C144.241 15.0307 143.981 15.0307 143.808 14.6012C143.808 14.3436 144.154 14 144.846 13.8282L144.759 13.7423C155.221 10.4785 163.954 9.19018 172.168 9.19018C180.987 9.19018 189.028 10.6503 197.847 12.7117C206.32 5.15337 215.312 0 222.748 0C227.676 0 231.74 2.74847 231.74 7.47239C231.74 12.0245 227.417 17.5215 217.646 17.5215C215.139 17.5215 212.199 17.092 209 16.319L208.654 16.1472L200.873 14.1718C194.302 20.0123 188.855 26.8834 185.05 33.0675C182.37 37.362 179.258 42.773 179.258 47.1534C179.258 52.2209 183.667 54.7975 188.941 54.7975C195.772 54.7975 204.158 50.8466 208.568 48.3558C216.609 43.9755 224.131 38.135 228.368 33.2393L229.146 33.6687C221.71 42.2577 203.64 54.2822 190.498 55.6564C189.028 55.9141 187.644 56 186.347 56C180.036 55.7423 175.713 53.7669 175.713 47.4969ZM230.529 7.30061C230.529 4.20859 228.541 1.54601 224.131 1.54601C219.462 1.54601 212.113 4.63804 201.565 13.6564L209 15.546C212.372 16.4049 214.88 16.8344 217.646 16.8344C226.293 16.8344 230.529 12.1963 230.529 7.30061Z" fill="#4D3107"/>
<path d="M231.913 40.454C230.702 41.6565 228.714 42.1718 227.503 42.1718C226.293 42.1718 225.342 41.3129 225.342 40.0246C225.428 38.0491 226.12 36.6749 228.627 32.8099C229.232 31.951 230.01 31.4356 230.356 31.4356C230.616 31.4356 230.702 31.4356 230.702 31.6933C230.702 32.3804 229.405 34.27 228.454 34.6136C226.984 36.8467 226.379 38.4786 226.293 39.5093C226.293 40.7976 226.638 41.3129 227.33 41.3129C228.886 41.2271 230.183 40.2823 231.307 39.0798C230.875 38.135 230.789 37.1044 230.789 35.9878C230.789 32.6381 231.999 28.9448 233.123 27.7424C233.642 27.0553 234.247 26.7976 234.766 26.7976C235.976 26.7976 236.582 28.4295 236.582 30.7485C236.582 33.4111 235.544 36.8467 233.123 39.4234C234.247 40.7976 235.544 41.3988 236.841 41.3988C240.559 41.3988 244.882 36.8467 247.908 33.4111L248.6 33.497C246.006 36.6749 240.818 42.4295 236.063 42.5154C234.161 42.5154 232.95 41.8283 231.913 40.454ZM235.198 28.9448C235.198 28.1718 235.025 27.6565 234.679 27.6565C233.728 27.6565 231.74 31.8651 231.74 35.6442C231.74 36.4172 231.913 37.1902 232.172 37.8774C234.074 35.043 235.198 31.0062 235.198 28.9448Z" fill="#4D3107"/>
<path d="M253.269 38.4785C253.269 35.5582 255.949 30.4907 258.802 25.9386C257.073 28.2576 255.084 30.6625 253.269 32.7239C253.528 32.9815 253.701 33.3251 253.787 33.8404L252.836 34.0981C252.836 33.8404 252.75 33.5828 252.577 33.411C250.502 35.73 248.254 37.4478 246.957 37.4478C246.352 37.4478 245.66 37.1901 245.66 36.5889C245.66 35.2147 248.946 31.865 251.366 31.865C251.972 31.9509 252.058 31.865 252.663 32.2085C255.776 28.6871 259.321 24.049 261.569 20.957C261.742 20.6993 263.99 17.1779 265.287 17.1779C265.546 17.1779 265.719 17.2637 265.719 17.6073C265.719 18.2085 264.768 19.4969 263.903 19.8404V19.9263C261.396 23.4478 256.381 30.1472 255.43 35.6441C255.257 36.4171 255.171 37.1042 255.171 37.6196C255.171 39.7668 256.468 40.4539 258.024 40.4539C262.001 40.4539 268.572 35.73 270.907 33.3251L271.598 33.4969C269.783 35.8159 262.261 41.8282 257.246 41.8282C255.344 41.8282 253.269 40.9693 253.269 38.4785ZM252.145 32.8098C251.885 32.638 251.712 32.638 251.28 32.638C249.551 32.638 246.611 35.5582 246.611 36.4171C246.698 36.6748 246.784 36.6748 247.043 36.6748C248.081 36.6748 249.81 35.3006 252.145 32.8098Z" fill="#4D3107"/>
<path d="M273.241 38.4785C270.647 38.4785 269.956 37.4478 269.783 36.0736C269.783 35.0429 270.561 33.5828 271.685 32.7239V32.638C272.982 31.3496 274.192 30.7484 274.884 30.7484C275.576 30.7484 275.576 30.9202 275.662 31.5214C275.662 32.638 274.106 34.7852 271.598 35.73C272.031 36.5889 273.068 37.276 274.798 37.276C277.91 37.276 281.974 34.957 284.568 33.3251L285 33.9263C279.726 37.1042 276.094 38.3067 273.846 38.4785H273.241ZM274.711 31.5214H274.625C273.846 31.5214 271.771 33.2392 271.512 34.6993V34.957C273.587 34.0981 274.711 32.2085 274.711 31.5214Z" fill="#4D3107"/>
</g>
<defs>
<filter id="filter0_d_168_221" x="0" y="0" width="289" height="64" filterUnits="userSpaceOnUse" color-interpolation-filters="sRGB">
<feFlood flood-opacity="0" result="BackgroundImageFix"/>
<feColorMatrix in="SourceAlpha" type="matrix" values="0 0 0 0 0 0 0 0 0 0 0 0 0 0 0 0 0 0 127 0" result="hardAlpha"/>
<feOffset dy="4"/>
<feGaussianBlur stdDeviation="2"/>
<feComposite in2="hardAlpha" operator="out"/>
<feColorMatrix type="matrix" values="0 0 0 0 0 0 0 0 0 0 0 0 0 0 0 0 0 0 0.25 0"/>
<feBlend mode="normal" in2="BackgroundImageFix" result="effect1_dropShadow_168_221"/>
<feBlend mode="normal" in="SourceGraphic" in2="effect1_dropShadow_168_221" result="shape"/>
</filter>
</defs>
</svg>
