<svg width="190" height="76" viewBox="0 0 190 76" fill="none" xmlns="http://www.w3.org/2000/svg">
<path id="Vector" d="M108.028 75.0704L109.855 73.245C111.683 70.0505 112.368 66.1715 112.368 61.8361C112.368 49.9709 107.114 35.1394 107.114 22.3614C107.114 17.7979 107.8 13.6907 109.399 10.0398C106.429 13.4625 103.459 17.5697 100.261 21.6769C83.3567 43.8101 60.9697 73.245 8.88577 73.245C6.82983 73.245 4.77389 73.245 2.71795 73.245C1.34732 73.245 0.433562 72.7887 0.205124 72.3323V72.1041C0.205124 71.6478 1.34731 71.1914 3.17482 70.9632H3.86014C5.68764 70.9632 7.05827 71.4196 7.51514 71.8759V72.3323H9.34265C60.7413 72.3323 82.8998 42.8974 99.8042 20.9923C104.83 14.6034 109.17 8.67075 113.739 4.10719C115.338 2.50995 117.394 0.912708 119.678 -0.22818L119.907 -2.30968e-06C113.054 4.56355 111.226 11.6371 111.226 19.8515C111.226 31.9449 115.566 46.5482 115.566 58.1853C115.566 62.5207 115.11 66.3997 113.282 69.8223L123.562 58.1853C142.294 36.5084 167.879 7.75804 188.895 5.01991L189.124 5.93262C168.793 8.67075 143.436 37.4211 124.247 59.098C118.536 65.487 113.51 71.1914 109.17 75.755L108.028 75.0704Z" fill="#4D3107"/>
</svg>
